M48
; DRILL file KiCad 10.0.6 date 2026-10-06T16:49:11
; FORMAT={-:-/ absolute / metric / decimal}
; #@! TF.CreationDate,2026-10-06T16:49:11+05:30
; #@! TF.GenerationSoftware,Kicad,Pcbnew,10.0.6
; #@! TF.FileFunction,Plated,1,2,PTH
FMAT,2
METRIC
; #@! TA.AperFunction,Plated,PTH,ViaDrill
T1C0.300
; #@! TA.AperFunction,Plated,PTH,ComponentDrill
T2C1.000
%
G90
G05
T1
X45.72Y-75.692
X46.952Y-66.764
X47.844Y-68.537
X47.869Y-62.367
X52.508Y-66.249
X53.432Y-71.628
X55.278Y-69.562
X55.372Y-64.516
X55.372Y-66.675
X56.134Y-73.314
X56.896Y-67.31
X56.934Y-73.314
X57.404Y-59.944
X57.496Y-68.58
X57.734Y-73.314
X57.766Y-64.77
X58.42Y-60.868
X59.944Y-68.58
X60.002Y-60.668
X60.325Y-57.696
X60.96Y-69.215
X63.154Y-63.5
X63.5Y-60.198
X63.754Y-69.342
X64.516Y-71.628
X64.554Y-65.57
X65.245Y-63.533
X65.278Y-77.47
X65.336Y-61.664
X67.564Y-68.072
X68.58Y-63.5
X69.088Y-60.706
X69.85Y-59.69
X70.866Y-77.47
X71.628Y-68.072
X72.644Y-71.915
X72.898Y-60.706
X74.676Y-73.914
X74.93Y-67.31
X76.708Y-74.676
X77.02Y-69.908
T2
X36.83Y-62.484
X36.83Y-65.024
X39.37Y-82.55
X41.91Y-82.55
X44.45Y-82.55
X46.99Y-82.55
X49.53Y-82.55
X52.07Y-82.55
X54.61Y-82.55
X57.15Y-82.55
X59.69Y-82.55
X66.04Y-82.55
X68.58Y-82.55
X71.12Y-82.55
X73.66Y-82.55
X77.47Y-61.468
X77.47Y-64.008
X77.47Y-66.548
X80.01Y-61.468
X80.01Y-64.008
X80.01Y-66.548
X80.01Y-70.612
X80.01Y-73.152
X80.01Y-75.692
X80.01Y-78.232
M30
