%TF.GenerationSoftware,KiCad,Pcbnew,10.0.6*%
%TF.CreationDate,2026-10-06T16:49:29+05:30*%
%TF.ProjectId,Mcu - data logger,4d637520-2d20-4646-9174-61206c6f6767,1*%
%TF.SameCoordinates,Original*%
%TF.FileFunction,Paste,Top*%
%TF.FilePolarity,Positive*%
%FSLAX46Y46*%
G04 Gerber Fmt 4.6, Leading zero omitted, Abs format (unit mm)*
G04 Created by KiCad (PCBNEW 10.0.6) date 2026-10-06 16:49:29*
%MOMM*%
%LPD*%
G01*
G04 APERTURE LIST*
G04 Aperture macros list*
%AMRoundRect*
0 Rectangle with rounded corners*
0 $1 Rounding radius*
0 $2 $3 $4 $5 $6 $7 $8 $9 X,Y pos of 4 corners*
0 Add a 4 corners polygon primitive as box body*
4,1,4,$2,$3,$4,$5,$6,$7,$8,$9,$2,$3,0*
0 Add four circle primitives for the rounded corners*
1,1,$1+$1,$2,$3*
1,1,$1+$1,$4,$5*
1,1,$1+$1,$6,$7*
1,1,$1+$1,$8,$9*
0 Add four rect primitives between the rounded corners*
20,1,$1+$1,$2,$3,$4,$5,0*
20,1,$1+$1,$4,$5,$6,$7,0*
20,1,$1+$1,$6,$7,$8,$9,0*
20,1,$1+$1,$8,$9,$2,$3,0*%
G04 Aperture macros list end*
%ADD10RoundRect,0.162500X-0.650000X-0.162500X0.650000X-0.162500X0.650000X0.162500X-0.650000X0.162500X0*%
%ADD11RoundRect,0.250000X-0.250000X-0.475000X0.250000X-0.475000X0.250000X0.475000X-0.250000X0.475000X0*%
%ADD12RoundRect,0.243750X-0.243750X-0.456250X0.243750X-0.456250X0.243750X0.456250X-0.243750X0.456250X0*%
%ADD13RoundRect,0.250000X-0.262500X-0.450000X0.262500X-0.450000X0.262500X0.450000X-0.262500X0.450000X0*%
%ADD14RoundRect,0.250000X0.262500X0.450000X-0.262500X0.450000X-0.262500X-0.450000X0.262500X-0.450000X0*%
%ADD15RoundRect,0.250000X0.250000X0.475000X-0.250000X0.475000X-0.250000X-0.475000X0.250000X-0.475000X0*%
%ADD16RoundRect,0.068750X-0.666250X-0.206250X0.666250X-0.206250X0.666250X0.206250X-0.666250X0.206250X0*%
%ADD17RoundRect,0.068750X-0.206250X-0.666250X0.206250X-0.666250X0.206250X0.666250X-0.206250X0.666250X0*%
%ADD18RoundRect,0.250001X0.949999X-1.499999X0.949999X1.499999X-0.949999X1.499999X-0.949999X-1.499999X0*%
%ADD19RoundRect,0.073750X-0.911250X-0.221250X0.911250X-0.221250X0.911250X0.221250X-0.911250X0.221250X0*%
%ADD20RoundRect,0.250001X1.499999X0.949999X-1.499999X0.949999X-1.499999X-0.949999X1.499999X-0.949999X0*%
G04 APERTURE END LIST*
D10*
%TO.C,U1*%
X42132500Y-64897000D03*
X42132500Y-66167000D03*
X42132500Y-67437000D03*
X42132500Y-68707000D03*
X49307500Y-68707000D03*
X49307500Y-67437000D03*
X49307500Y-66167000D03*
X49307500Y-64897000D03*
%TD*%
D11*
%TO.C,C2*%
X67188000Y-73660000D03*
X69088000Y-73660000D03*
%TD*%
D12*
%TO.C,D2*%
X67213000Y-58420000D03*
X69088000Y-58420000D03*
%TD*%
D13*
%TO.C,R7*%
X67263000Y-62230000D03*
X69088000Y-62230000D03*
%TD*%
D11*
%TO.C,C3*%
X57028000Y-58674000D03*
X58928000Y-58674000D03*
%TD*%
D13*
%TO.C,R6*%
X71073000Y-66040000D03*
X72898000Y-66040000D03*
%TD*%
%TO.C,R4*%
X67263000Y-66040000D03*
X69088000Y-66040000D03*
%TD*%
D14*
%TO.C,R3*%
X69088000Y-69850000D03*
X67263000Y-69850000D03*
%TD*%
D15*
%TO.C,C4*%
X69088000Y-77470000D03*
X67188000Y-77470000D03*
%TD*%
D16*
%TO.C,U4*%
X53996000Y-64510000D03*
X53996000Y-65310000D03*
X53996000Y-66110000D03*
X53996000Y-66910000D03*
X53996000Y-67710000D03*
X53996000Y-68510000D03*
X53996000Y-69310000D03*
X53996000Y-70110000D03*
D17*
X55366000Y-71480000D03*
X56166000Y-71480000D03*
X56966000Y-71480000D03*
X57766000Y-71480000D03*
X58566000Y-71480000D03*
X59366000Y-71480000D03*
X60166000Y-71480000D03*
X60966000Y-71480000D03*
D16*
X62336000Y-70110000D03*
X62336000Y-69310000D03*
X62336000Y-68510000D03*
X62336000Y-67710000D03*
X62336000Y-66910000D03*
X62336000Y-66110000D03*
X62336000Y-65310000D03*
X62336000Y-64510000D03*
D17*
X60966000Y-63140000D03*
X60166000Y-63140000D03*
X59366000Y-63140000D03*
X58566000Y-63140000D03*
X57766000Y-63140000D03*
X56966000Y-63140000D03*
X56166000Y-63140000D03*
X55366000Y-63140000D03*
%TD*%
D18*
%TO.C,Y1*%
X36830000Y-76514000D03*
X36830000Y-71314000D03*
%TD*%
D13*
%TO.C,R1*%
X42267500Y-78232000D03*
X44092500Y-78232000D03*
%TD*%
D19*
%TO.C,U2*%
X43245000Y-72009000D03*
X43245000Y-73279000D03*
X43245000Y-74549000D03*
X43245000Y-75819000D03*
X48195000Y-75819000D03*
X48195000Y-74549000D03*
X48195000Y-73279000D03*
X48195000Y-72009000D03*
%TD*%
D14*
%TO.C,R2*%
X48664500Y-78232000D03*
X46839500Y-78232000D03*
%TD*%
D10*
%TO.C,U3*%
X42386500Y-58547000D03*
X42386500Y-59817000D03*
X42386500Y-61087000D03*
X42386500Y-62357000D03*
X49561500Y-62357000D03*
X49561500Y-61087000D03*
X49561500Y-59817000D03*
X49561500Y-58547000D03*
%TD*%
D12*
%TO.C,D1*%
X71023000Y-58420000D03*
X72898000Y-58420000D03*
%TD*%
D20*
%TO.C,Y2*%
X60258000Y-76200000D03*
X55058000Y-76200000D03*
%TD*%
D11*
%TO.C,C5*%
X60838000Y-58674000D03*
X62738000Y-58674000D03*
%TD*%
D14*
%TO.C,R5*%
X72898000Y-62230000D03*
X71073000Y-62230000D03*
%TD*%
D15*
%TO.C,C1*%
X55118000Y-58674000D03*
X53218000Y-58674000D03*
%TD*%
M02*
