%TF.GenerationSoftware,KiCad,Pcbnew,10.0.6*%
%TF.CreationDate,2026-10-06T16:49:29+05:30*%
%TF.ProjectId,Mcu - data logger,4d637520-2d20-4646-9174-61206c6f6767,1*%
%TF.SameCoordinates,Original*%
%TF.FileFunction,Legend,Top*%
%TF.FilePolarity,Positive*%
%FSLAX46Y46*%
G04 Gerber Fmt 4.6, Leading zero omitted, Abs format (unit mm)*
G04 Created by KiCad (PCBNEW 10.0.6) date 2026-10-06 16:49:29*
%MOMM*%
%LPD*%
G01*
G04 APERTURE LIST*
%ADD10C,0.100000*%
%ADD11C,0.125000*%
%ADD12C,0.120000*%
%ADD13C,0.127000*%
%ADD14C,0.200000*%
G04 APERTURE END LIST*
D10*
X51712217Y-80083609D02*
X52045550Y-80083609D01*
X52045550Y-80083609D02*
X51831265Y-80583609D01*
X76209836Y-81658609D02*
X76209836Y-81158609D01*
X76424122Y-81206228D02*
X76447931Y-81182419D01*
X76447931Y-81182419D02*
X76495550Y-81158609D01*
X76495550Y-81158609D02*
X76614598Y-81158609D01*
X76614598Y-81158609D02*
X76662217Y-81182419D01*
X76662217Y-81182419D02*
X76686026Y-81206228D01*
X76686026Y-81206228D02*
X76709836Y-81253847D01*
X76709836Y-81253847D02*
X76709836Y-81301466D01*
X76709836Y-81301466D02*
X76686026Y-81372895D01*
X76686026Y-81372895D02*
X76400312Y-81658609D01*
X76400312Y-81658609D02*
X76709836Y-81658609D01*
X77209835Y-81610990D02*
X77186026Y-81634800D01*
X77186026Y-81634800D02*
X77114597Y-81658609D01*
X77114597Y-81658609D02*
X77066978Y-81658609D01*
X77066978Y-81658609D02*
X76995550Y-81634800D01*
X76995550Y-81634800D02*
X76947931Y-81587180D01*
X76947931Y-81587180D02*
X76924121Y-81539561D01*
X76924121Y-81539561D02*
X76900312Y-81444323D01*
X76900312Y-81444323D02*
X76900312Y-81372895D01*
X76900312Y-81372895D02*
X76924121Y-81277657D01*
X76924121Y-81277657D02*
X76947931Y-81230038D01*
X76947931Y-81230038D02*
X76995550Y-81182419D01*
X76995550Y-81182419D02*
X77066978Y-81158609D01*
X77066978Y-81158609D02*
X77114597Y-81158609D01*
X77114597Y-81158609D02*
X77186026Y-81182419D01*
X77186026Y-81182419D02*
X77209835Y-81206228D01*
X76736027Y-78634800D02*
X76807455Y-78658609D01*
X76807455Y-78658609D02*
X76926503Y-78658609D01*
X76926503Y-78658609D02*
X76974122Y-78634800D01*
X76974122Y-78634800D02*
X76997931Y-78610990D01*
X76997931Y-78610990D02*
X77021741Y-78563371D01*
X77021741Y-78563371D02*
X77021741Y-78515752D01*
X77021741Y-78515752D02*
X76997931Y-78468133D01*
X76997931Y-78468133D02*
X76974122Y-78444323D01*
X76974122Y-78444323D02*
X76926503Y-78420514D01*
X76926503Y-78420514D02*
X76831265Y-78396704D01*
X76831265Y-78396704D02*
X76783646Y-78372895D01*
X76783646Y-78372895D02*
X76759836Y-78349085D01*
X76759836Y-78349085D02*
X76736027Y-78301466D01*
X76736027Y-78301466D02*
X76736027Y-78253847D01*
X76736027Y-78253847D02*
X76759836Y-78206228D01*
X76759836Y-78206228D02*
X76783646Y-78182419D01*
X76783646Y-78182419D02*
X76831265Y-78158609D01*
X76831265Y-78158609D02*
X76950312Y-78158609D01*
X76950312Y-78158609D02*
X77021741Y-78182419D01*
X77521740Y-78610990D02*
X77497931Y-78634800D01*
X77497931Y-78634800D02*
X77426502Y-78658609D01*
X77426502Y-78658609D02*
X77378883Y-78658609D01*
X77378883Y-78658609D02*
X77307455Y-78634800D01*
X77307455Y-78634800D02*
X77259836Y-78587180D01*
X77259836Y-78587180D02*
X77236026Y-78539561D01*
X77236026Y-78539561D02*
X77212217Y-78444323D01*
X77212217Y-78444323D02*
X77212217Y-78372895D01*
X77212217Y-78372895D02*
X77236026Y-78277657D01*
X77236026Y-78277657D02*
X77259836Y-78230038D01*
X77259836Y-78230038D02*
X77307455Y-78182419D01*
X77307455Y-78182419D02*
X77378883Y-78158609D01*
X77378883Y-78158609D02*
X77426502Y-78158609D01*
X77426502Y-78158609D02*
X77497931Y-78182419D01*
X77497931Y-78182419D02*
X77521740Y-78206228D01*
X77736026Y-78658609D02*
X77736026Y-78158609D01*
X78021740Y-78658609D02*
X77807455Y-78372895D01*
X78021740Y-78158609D02*
X77736026Y-78444323D01*
X39161027Y-80131228D02*
X39184836Y-80107419D01*
X39184836Y-80107419D02*
X39232455Y-80083609D01*
X39232455Y-80083609D02*
X39351503Y-80083609D01*
X39351503Y-80083609D02*
X39399122Y-80107419D01*
X39399122Y-80107419D02*
X39422931Y-80131228D01*
X39422931Y-80131228D02*
X39446741Y-80178847D01*
X39446741Y-80178847D02*
X39446741Y-80226466D01*
X39446741Y-80226466D02*
X39422931Y-80297895D01*
X39422931Y-80297895D02*
X39137217Y-80583609D01*
X39137217Y-80583609D02*
X39446741Y-80583609D01*
X41812217Y-80158609D02*
X42121741Y-80158609D01*
X42121741Y-80158609D02*
X41955074Y-80349085D01*
X41955074Y-80349085D02*
X42026503Y-80349085D01*
X42026503Y-80349085D02*
X42074122Y-80372895D01*
X42074122Y-80372895D02*
X42097931Y-80396704D01*
X42097931Y-80396704D02*
X42121741Y-80444323D01*
X42121741Y-80444323D02*
X42121741Y-80563371D01*
X42121741Y-80563371D02*
X42097931Y-80610990D01*
X42097931Y-80610990D02*
X42074122Y-80634800D01*
X42074122Y-80634800D02*
X42026503Y-80658609D01*
X42026503Y-80658609D02*
X41883646Y-80658609D01*
X41883646Y-80658609D02*
X41836027Y-80634800D01*
X41836027Y-80634800D02*
X41812217Y-80610990D01*
X44524122Y-80325276D02*
X44524122Y-80658609D01*
X44405074Y-80134800D02*
X44286027Y-80491942D01*
X44286027Y-80491942D02*
X44595550Y-80491942D01*
X46872931Y-80108609D02*
X46634836Y-80108609D01*
X46634836Y-80108609D02*
X46611027Y-80346704D01*
X46611027Y-80346704D02*
X46634836Y-80322895D01*
X46634836Y-80322895D02*
X46682455Y-80299085D01*
X46682455Y-80299085D02*
X46801503Y-80299085D01*
X46801503Y-80299085D02*
X46849122Y-80322895D01*
X46849122Y-80322895D02*
X46872931Y-80346704D01*
X46872931Y-80346704D02*
X46896741Y-80394323D01*
X46896741Y-80394323D02*
X46896741Y-80513371D01*
X46896741Y-80513371D02*
X46872931Y-80560990D01*
X46872931Y-80560990D02*
X46849122Y-80584800D01*
X46849122Y-80584800D02*
X46801503Y-80608609D01*
X46801503Y-80608609D02*
X46682455Y-80608609D01*
X46682455Y-80608609D02*
X46634836Y-80584800D01*
X46634836Y-80584800D02*
X46611027Y-80560990D01*
X49499122Y-80133609D02*
X49403884Y-80133609D01*
X49403884Y-80133609D02*
X49356265Y-80157419D01*
X49356265Y-80157419D02*
X49332455Y-80181228D01*
X49332455Y-80181228D02*
X49284836Y-80252657D01*
X49284836Y-80252657D02*
X49261027Y-80347895D01*
X49261027Y-80347895D02*
X49261027Y-80538371D01*
X49261027Y-80538371D02*
X49284836Y-80585990D01*
X49284836Y-80585990D02*
X49308646Y-80609800D01*
X49308646Y-80609800D02*
X49356265Y-80633609D01*
X49356265Y-80633609D02*
X49451503Y-80633609D01*
X49451503Y-80633609D02*
X49499122Y-80609800D01*
X49499122Y-80609800D02*
X49522931Y-80585990D01*
X49522931Y-80585990D02*
X49546741Y-80538371D01*
X49546741Y-80538371D02*
X49546741Y-80419323D01*
X49546741Y-80419323D02*
X49522931Y-80371704D01*
X49522931Y-80371704D02*
X49499122Y-80347895D01*
X49499122Y-80347895D02*
X49451503Y-80324085D01*
X49451503Y-80324085D02*
X49356265Y-80324085D01*
X49356265Y-80324085D02*
X49308646Y-80347895D01*
X49308646Y-80347895D02*
X49284836Y-80371704D01*
X49284836Y-80371704D02*
X49261027Y-80419323D01*
X54386357Y-80285740D02*
X54338738Y-80261930D01*
X54338738Y-80261930D02*
X54314928Y-80238121D01*
X54314928Y-80238121D02*
X54291119Y-80190502D01*
X54291119Y-80190502D02*
X54291119Y-80166692D01*
X54291119Y-80166692D02*
X54314928Y-80119073D01*
X54314928Y-80119073D02*
X54338738Y-80095264D01*
X54338738Y-80095264D02*
X54386357Y-80071454D01*
X54386357Y-80071454D02*
X54481595Y-80071454D01*
X54481595Y-80071454D02*
X54529214Y-80095264D01*
X54529214Y-80095264D02*
X54553023Y-80119073D01*
X54553023Y-80119073D02*
X54576833Y-80166692D01*
X54576833Y-80166692D02*
X54576833Y-80190502D01*
X54576833Y-80190502D02*
X54553023Y-80238121D01*
X54553023Y-80238121D02*
X54529214Y-80261930D01*
X54529214Y-80261930D02*
X54481595Y-80285740D01*
X54481595Y-80285740D02*
X54386357Y-80285740D01*
X54386357Y-80285740D02*
X54338738Y-80309549D01*
X54338738Y-80309549D02*
X54314928Y-80333359D01*
X54314928Y-80333359D02*
X54291119Y-80380978D01*
X54291119Y-80380978D02*
X54291119Y-80476216D01*
X54291119Y-80476216D02*
X54314928Y-80523835D01*
X54314928Y-80523835D02*
X54338738Y-80547645D01*
X54338738Y-80547645D02*
X54386357Y-80571454D01*
X54386357Y-80571454D02*
X54481595Y-80571454D01*
X54481595Y-80571454D02*
X54529214Y-80547645D01*
X54529214Y-80547645D02*
X54553023Y-80523835D01*
X54553023Y-80523835D02*
X54576833Y-80476216D01*
X54576833Y-80476216D02*
X54576833Y-80380978D01*
X54576833Y-80380978D02*
X54553023Y-80333359D01*
X54553023Y-80333359D02*
X54529214Y-80309549D01*
X54529214Y-80309549D02*
X54481595Y-80285740D01*
X56171741Y-80157419D02*
X56124122Y-80133609D01*
X56124122Y-80133609D02*
X56052693Y-80133609D01*
X56052693Y-80133609D02*
X55981265Y-80157419D01*
X55981265Y-80157419D02*
X55933646Y-80205038D01*
X55933646Y-80205038D02*
X55909836Y-80252657D01*
X55909836Y-80252657D02*
X55886027Y-80347895D01*
X55886027Y-80347895D02*
X55886027Y-80419323D01*
X55886027Y-80419323D02*
X55909836Y-80514561D01*
X55909836Y-80514561D02*
X55933646Y-80562180D01*
X55933646Y-80562180D02*
X55981265Y-80609800D01*
X55981265Y-80609800D02*
X56052693Y-80633609D01*
X56052693Y-80633609D02*
X56100312Y-80633609D01*
X56100312Y-80633609D02*
X56171741Y-80609800D01*
X56171741Y-80609800D02*
X56195550Y-80585990D01*
X56195550Y-80585990D02*
X56195550Y-80419323D01*
X56195550Y-80419323D02*
X56100312Y-80419323D01*
X56409836Y-80633609D02*
X56409836Y-80133609D01*
X56409836Y-80133609D02*
X56695550Y-80633609D01*
X56695550Y-80633609D02*
X56695550Y-80133609D01*
X56933646Y-80633609D02*
X56933646Y-80133609D01*
X56933646Y-80133609D02*
X57052694Y-80133609D01*
X57052694Y-80133609D02*
X57124122Y-80157419D01*
X57124122Y-80157419D02*
X57171741Y-80205038D01*
X57171741Y-80205038D02*
X57195551Y-80252657D01*
X57195551Y-80252657D02*
X57219360Y-80347895D01*
X57219360Y-80347895D02*
X57219360Y-80419323D01*
X57219360Y-80419323D02*
X57195551Y-80514561D01*
X57195551Y-80514561D02*
X57171741Y-80562180D01*
X57171741Y-80562180D02*
X57124122Y-80609800D01*
X57124122Y-80609800D02*
X57052694Y-80633609D01*
X57052694Y-80633609D02*
X56933646Y-80633609D01*
X65796741Y-79982419D02*
X65749122Y-79958609D01*
X65749122Y-79958609D02*
X65677693Y-79958609D01*
X65677693Y-79958609D02*
X65606265Y-79982419D01*
X65606265Y-79982419D02*
X65558646Y-80030038D01*
X65558646Y-80030038D02*
X65534836Y-80077657D01*
X65534836Y-80077657D02*
X65511027Y-80172895D01*
X65511027Y-80172895D02*
X65511027Y-80244323D01*
X65511027Y-80244323D02*
X65534836Y-80339561D01*
X65534836Y-80339561D02*
X65558646Y-80387180D01*
X65558646Y-80387180D02*
X65606265Y-80434800D01*
X65606265Y-80434800D02*
X65677693Y-80458609D01*
X65677693Y-80458609D02*
X65725312Y-80458609D01*
X65725312Y-80458609D02*
X65796741Y-80434800D01*
X65796741Y-80434800D02*
X65820550Y-80410990D01*
X65820550Y-80410990D02*
X65820550Y-80244323D01*
X65820550Y-80244323D02*
X65725312Y-80244323D01*
X66034836Y-80458609D02*
X66034836Y-79958609D01*
X66034836Y-79958609D02*
X66320550Y-80458609D01*
X66320550Y-80458609D02*
X66320550Y-79958609D01*
X66558646Y-80458609D02*
X66558646Y-79958609D01*
X66558646Y-79958609D02*
X66677694Y-79958609D01*
X66677694Y-79958609D02*
X66749122Y-79982419D01*
X66749122Y-79982419D02*
X66796741Y-80030038D01*
X66796741Y-80030038D02*
X66820551Y-80077657D01*
X66820551Y-80077657D02*
X66844360Y-80172895D01*
X66844360Y-80172895D02*
X66844360Y-80244323D01*
X66844360Y-80244323D02*
X66820551Y-80339561D01*
X66820551Y-80339561D02*
X66796741Y-80387180D01*
X66796741Y-80387180D02*
X66749122Y-80434800D01*
X66749122Y-80434800D02*
X66677694Y-80458609D01*
X66677694Y-80458609D02*
X66558646Y-80458609D01*
X76846741Y-70482419D02*
X76799122Y-70458609D01*
X76799122Y-70458609D02*
X76727693Y-70458609D01*
X76727693Y-70458609D02*
X76656265Y-70482419D01*
X76656265Y-70482419D02*
X76608646Y-70530038D01*
X76608646Y-70530038D02*
X76584836Y-70577657D01*
X76584836Y-70577657D02*
X76561027Y-70672895D01*
X76561027Y-70672895D02*
X76561027Y-70744323D01*
X76561027Y-70744323D02*
X76584836Y-70839561D01*
X76584836Y-70839561D02*
X76608646Y-70887180D01*
X76608646Y-70887180D02*
X76656265Y-70934800D01*
X76656265Y-70934800D02*
X76727693Y-70958609D01*
X76727693Y-70958609D02*
X76775312Y-70958609D01*
X76775312Y-70958609D02*
X76846741Y-70934800D01*
X76846741Y-70934800D02*
X76870550Y-70910990D01*
X76870550Y-70910990D02*
X76870550Y-70744323D01*
X76870550Y-70744323D02*
X76775312Y-70744323D01*
X77084836Y-70958609D02*
X77084836Y-70458609D01*
X77084836Y-70458609D02*
X77370550Y-70958609D01*
X77370550Y-70958609D02*
X77370550Y-70458609D01*
X77608646Y-70958609D02*
X77608646Y-70458609D01*
X77608646Y-70458609D02*
X77727694Y-70458609D01*
X77727694Y-70458609D02*
X77799122Y-70482419D01*
X77799122Y-70482419D02*
X77846741Y-70530038D01*
X77846741Y-70530038D02*
X77870551Y-70577657D01*
X77870551Y-70577657D02*
X77894360Y-70672895D01*
X77894360Y-70672895D02*
X77894360Y-70744323D01*
X77894360Y-70744323D02*
X77870551Y-70839561D01*
X77870551Y-70839561D02*
X77846741Y-70887180D01*
X77846741Y-70887180D02*
X77799122Y-70934800D01*
X77799122Y-70934800D02*
X77727694Y-70958609D01*
X77727694Y-70958609D02*
X77608646Y-70958609D01*
X77734836Y-59483609D02*
X77734836Y-58983609D01*
X78258645Y-59435990D02*
X78234836Y-59459800D01*
X78234836Y-59459800D02*
X78163407Y-59483609D01*
X78163407Y-59483609D02*
X78115788Y-59483609D01*
X78115788Y-59483609D02*
X78044360Y-59459800D01*
X78044360Y-59459800D02*
X77996741Y-59412180D01*
X77996741Y-59412180D02*
X77972931Y-59364561D01*
X77972931Y-59364561D02*
X77949122Y-59269323D01*
X77949122Y-59269323D02*
X77949122Y-59197895D01*
X77949122Y-59197895D02*
X77972931Y-59102657D01*
X77972931Y-59102657D02*
X77996741Y-59055038D01*
X77996741Y-59055038D02*
X78044360Y-59007419D01*
X78044360Y-59007419D02*
X78115788Y-58983609D01*
X78115788Y-58983609D02*
X78163407Y-58983609D01*
X78163407Y-58983609D02*
X78234836Y-59007419D01*
X78234836Y-59007419D02*
X78258645Y-59031228D01*
X78449122Y-59459800D02*
X78520550Y-59483609D01*
X78520550Y-59483609D02*
X78639598Y-59483609D01*
X78639598Y-59483609D02*
X78687217Y-59459800D01*
X78687217Y-59459800D02*
X78711026Y-59435990D01*
X78711026Y-59435990D02*
X78734836Y-59388371D01*
X78734836Y-59388371D02*
X78734836Y-59340752D01*
X78734836Y-59340752D02*
X78711026Y-59293133D01*
X78711026Y-59293133D02*
X78687217Y-59269323D01*
X78687217Y-59269323D02*
X78639598Y-59245514D01*
X78639598Y-59245514D02*
X78544360Y-59221704D01*
X78544360Y-59221704D02*
X78496741Y-59197895D01*
X78496741Y-59197895D02*
X78472931Y-59174085D01*
X78472931Y-59174085D02*
X78449122Y-59126466D01*
X78449122Y-59126466D02*
X78449122Y-59078847D01*
X78449122Y-59078847D02*
X78472931Y-59031228D01*
X78472931Y-59031228D02*
X78496741Y-59007419D01*
X78496741Y-59007419D02*
X78544360Y-58983609D01*
X78544360Y-58983609D02*
X78663407Y-58983609D01*
X78663407Y-58983609D02*
X78734836Y-59007419D01*
X78949121Y-59483609D02*
X78949121Y-58983609D01*
X78949121Y-58983609D02*
X79139597Y-58983609D01*
X79139597Y-58983609D02*
X79187216Y-59007419D01*
X79187216Y-59007419D02*
X79211026Y-59031228D01*
X79211026Y-59031228D02*
X79234835Y-59078847D01*
X79234835Y-59078847D02*
X79234835Y-59150276D01*
X79234835Y-59150276D02*
X79211026Y-59197895D01*
X79211026Y-59197895D02*
X79187216Y-59221704D01*
X79187216Y-59221704D02*
X79139597Y-59245514D01*
X79139597Y-59245514D02*
X78949121Y-59245514D01*
X61807419Y-82978258D02*
X61783609Y-83025877D01*
X61783609Y-83025877D02*
X61783609Y-83097306D01*
X61783609Y-83097306D02*
X61807419Y-83168734D01*
X61807419Y-83168734D02*
X61855038Y-83216353D01*
X61855038Y-83216353D02*
X61902657Y-83240163D01*
X61902657Y-83240163D02*
X61997895Y-83263972D01*
X61997895Y-83263972D02*
X62069323Y-83263972D01*
X62069323Y-83263972D02*
X62164561Y-83240163D01*
X62164561Y-83240163D02*
X62212180Y-83216353D01*
X62212180Y-83216353D02*
X62259800Y-83168734D01*
X62259800Y-83168734D02*
X62283609Y-83097306D01*
X62283609Y-83097306D02*
X62283609Y-83049687D01*
X62283609Y-83049687D02*
X62259800Y-82978258D01*
X62259800Y-82978258D02*
X62235990Y-82954449D01*
X62235990Y-82954449D02*
X62069323Y-82954449D01*
X62069323Y-82954449D02*
X62069323Y-83049687D01*
X62283609Y-82740163D02*
X61783609Y-82740163D01*
X61783609Y-82740163D02*
X61783609Y-82549687D01*
X61783609Y-82549687D02*
X61807419Y-82502068D01*
X61807419Y-82502068D02*
X61831228Y-82478258D01*
X61831228Y-82478258D02*
X61878847Y-82454449D01*
X61878847Y-82454449D02*
X61950276Y-82454449D01*
X61950276Y-82454449D02*
X61997895Y-82478258D01*
X61997895Y-82478258D02*
X62021704Y-82502068D01*
X62021704Y-82502068D02*
X62045514Y-82549687D01*
X62045514Y-82549687D02*
X62045514Y-82740163D01*
X62283609Y-82240163D02*
X61783609Y-82240163D01*
X61783609Y-81906830D02*
X61783609Y-81811592D01*
X61783609Y-81811592D02*
X61807419Y-81763973D01*
X61807419Y-81763973D02*
X61855038Y-81716354D01*
X61855038Y-81716354D02*
X61950276Y-81692544D01*
X61950276Y-81692544D02*
X62116942Y-81692544D01*
X62116942Y-81692544D02*
X62212180Y-81716354D01*
X62212180Y-81716354D02*
X62259800Y-81763973D01*
X62259800Y-81763973D02*
X62283609Y-81811592D01*
X62283609Y-81811592D02*
X62283609Y-81906830D01*
X62283609Y-81906830D02*
X62259800Y-81954449D01*
X62259800Y-81954449D02*
X62212180Y-82002068D01*
X62212180Y-82002068D02*
X62116942Y-82025877D01*
X62116942Y-82025877D02*
X61950276Y-82025877D01*
X61950276Y-82025877D02*
X61855038Y-82002068D01*
X61855038Y-82002068D02*
X61807419Y-81954449D01*
X61807419Y-81954449D02*
X61783609Y-81906830D01*
D11*
X58979855Y-80057309D02*
X59146521Y-80557309D01*
X59146521Y-80557309D02*
X59313188Y-80057309D01*
X59765568Y-80509690D02*
X59741759Y-80533500D01*
X59741759Y-80533500D02*
X59670330Y-80557309D01*
X59670330Y-80557309D02*
X59622711Y-80557309D01*
X59622711Y-80557309D02*
X59551283Y-80533500D01*
X59551283Y-80533500D02*
X59503664Y-80485880D01*
X59503664Y-80485880D02*
X59479854Y-80438261D01*
X59479854Y-80438261D02*
X59456045Y-80343023D01*
X59456045Y-80343023D02*
X59456045Y-80271595D01*
X59456045Y-80271595D02*
X59479854Y-80176357D01*
X59479854Y-80176357D02*
X59503664Y-80128738D01*
X59503664Y-80128738D02*
X59551283Y-80081119D01*
X59551283Y-80081119D02*
X59622711Y-80057309D01*
X59622711Y-80057309D02*
X59670330Y-80057309D01*
X59670330Y-80057309D02*
X59741759Y-80081119D01*
X59741759Y-80081119D02*
X59765568Y-80104928D01*
X60265568Y-80509690D02*
X60241759Y-80533500D01*
X60241759Y-80533500D02*
X60170330Y-80557309D01*
X60170330Y-80557309D02*
X60122711Y-80557309D01*
X60122711Y-80557309D02*
X60051283Y-80533500D01*
X60051283Y-80533500D02*
X60003664Y-80485880D01*
X60003664Y-80485880D02*
X59979854Y-80438261D01*
X59979854Y-80438261D02*
X59956045Y-80343023D01*
X59956045Y-80343023D02*
X59956045Y-80271595D01*
X59956045Y-80271595D02*
X59979854Y-80176357D01*
X59979854Y-80176357D02*
X60003664Y-80128738D01*
X60003664Y-80128738D02*
X60051283Y-80081119D01*
X60051283Y-80081119D02*
X60122711Y-80057309D01*
X60122711Y-80057309D02*
X60170330Y-80057309D01*
X60170330Y-80057309D02*
X60241759Y-80081119D01*
X60241759Y-80081119D02*
X60265568Y-80104928D01*
X67829855Y-79982309D02*
X67996521Y-80482309D01*
X67996521Y-80482309D02*
X68163188Y-79982309D01*
X68615568Y-80434690D02*
X68591759Y-80458500D01*
X68591759Y-80458500D02*
X68520330Y-80482309D01*
X68520330Y-80482309D02*
X68472711Y-80482309D01*
X68472711Y-80482309D02*
X68401283Y-80458500D01*
X68401283Y-80458500D02*
X68353664Y-80410880D01*
X68353664Y-80410880D02*
X68329854Y-80363261D01*
X68329854Y-80363261D02*
X68306045Y-80268023D01*
X68306045Y-80268023D02*
X68306045Y-80196595D01*
X68306045Y-80196595D02*
X68329854Y-80101357D01*
X68329854Y-80101357D02*
X68353664Y-80053738D01*
X68353664Y-80053738D02*
X68401283Y-80006119D01*
X68401283Y-80006119D02*
X68472711Y-79982309D01*
X68472711Y-79982309D02*
X68520330Y-79982309D01*
X68520330Y-79982309D02*
X68591759Y-80006119D01*
X68591759Y-80006119D02*
X68615568Y-80029928D01*
X69115568Y-80434690D02*
X69091759Y-80458500D01*
X69091759Y-80458500D02*
X69020330Y-80482309D01*
X69020330Y-80482309D02*
X68972711Y-80482309D01*
X68972711Y-80482309D02*
X68901283Y-80458500D01*
X68901283Y-80458500D02*
X68853664Y-80410880D01*
X68853664Y-80410880D02*
X68829854Y-80363261D01*
X68829854Y-80363261D02*
X68806045Y-80268023D01*
X68806045Y-80268023D02*
X68806045Y-80196595D01*
X68806045Y-80196595D02*
X68829854Y-80101357D01*
X68829854Y-80101357D02*
X68853664Y-80053738D01*
X68853664Y-80053738D02*
X68901283Y-80006119D01*
X68901283Y-80006119D02*
X68972711Y-79982309D01*
X68972711Y-79982309D02*
X69020330Y-79982309D01*
X69020330Y-79982309D02*
X69091759Y-80006119D01*
X69091759Y-80006119D02*
X69115568Y-80029928D01*
X71036997Y-80632309D02*
X70870331Y-80394214D01*
X70751283Y-80632309D02*
X70751283Y-80132309D01*
X70751283Y-80132309D02*
X70941759Y-80132309D01*
X70941759Y-80132309D02*
X70989378Y-80156119D01*
X70989378Y-80156119D02*
X71013188Y-80179928D01*
X71013188Y-80179928D02*
X71036997Y-80227547D01*
X71036997Y-80227547D02*
X71036997Y-80298976D01*
X71036997Y-80298976D02*
X71013188Y-80346595D01*
X71013188Y-80346595D02*
X70989378Y-80370404D01*
X70989378Y-80370404D02*
X70941759Y-80394214D01*
X70941759Y-80394214D02*
X70751283Y-80394214D01*
X71203664Y-80132309D02*
X71536997Y-80632309D01*
X71536997Y-80132309D02*
X71203664Y-80632309D01*
X73054855Y-80107309D02*
X73340569Y-80107309D01*
X73197712Y-80607309D02*
X73197712Y-80107309D01*
X73459616Y-80107309D02*
X73792949Y-80607309D01*
X73792949Y-80107309D02*
X73459616Y-80607309D01*
X75802474Y-82583500D02*
X75873902Y-82607309D01*
X75873902Y-82607309D02*
X75992950Y-82607309D01*
X75992950Y-82607309D02*
X76040569Y-82583500D01*
X76040569Y-82583500D02*
X76064378Y-82559690D01*
X76064378Y-82559690D02*
X76088188Y-82512071D01*
X76088188Y-82512071D02*
X76088188Y-82464452D01*
X76088188Y-82464452D02*
X76064378Y-82416833D01*
X76064378Y-82416833D02*
X76040569Y-82393023D01*
X76040569Y-82393023D02*
X75992950Y-82369214D01*
X75992950Y-82369214D02*
X75897712Y-82345404D01*
X75897712Y-82345404D02*
X75850093Y-82321595D01*
X75850093Y-82321595D02*
X75826283Y-82297785D01*
X75826283Y-82297785D02*
X75802474Y-82250166D01*
X75802474Y-82250166D02*
X75802474Y-82202547D01*
X75802474Y-82202547D02*
X75826283Y-82154928D01*
X75826283Y-82154928D02*
X75850093Y-82131119D01*
X75850093Y-82131119D02*
X75897712Y-82107309D01*
X75897712Y-82107309D02*
X76016759Y-82107309D01*
X76016759Y-82107309D02*
X76088188Y-82131119D01*
X76492949Y-82583500D02*
X76445330Y-82607309D01*
X76445330Y-82607309D02*
X76350092Y-82607309D01*
X76350092Y-82607309D02*
X76302473Y-82583500D01*
X76302473Y-82583500D02*
X76278664Y-82535880D01*
X76278664Y-82535880D02*
X76278664Y-82345404D01*
X76278664Y-82345404D02*
X76302473Y-82297785D01*
X76302473Y-82297785D02*
X76350092Y-82273976D01*
X76350092Y-82273976D02*
X76445330Y-82273976D01*
X76445330Y-82273976D02*
X76492949Y-82297785D01*
X76492949Y-82297785D02*
X76516759Y-82345404D01*
X76516759Y-82345404D02*
X76516759Y-82393023D01*
X76516759Y-82393023D02*
X76278664Y-82440642D01*
X76731044Y-82607309D02*
X76731044Y-82273976D01*
X76731044Y-82369214D02*
X76754854Y-82321595D01*
X76754854Y-82321595D02*
X76778663Y-82297785D01*
X76778663Y-82297785D02*
X76826282Y-82273976D01*
X76826282Y-82273976D02*
X76873901Y-82273976D01*
X77040568Y-82607309D02*
X77040568Y-82273976D01*
X77040568Y-82107309D02*
X77016759Y-82131119D01*
X77016759Y-82131119D02*
X77040568Y-82154928D01*
X77040568Y-82154928D02*
X77064378Y-82131119D01*
X77064378Y-82131119D02*
X77040568Y-82107309D01*
X77040568Y-82107309D02*
X77040568Y-82154928D01*
X77492949Y-82607309D02*
X77492949Y-82345404D01*
X77492949Y-82345404D02*
X77469139Y-82297785D01*
X77469139Y-82297785D02*
X77421520Y-82273976D01*
X77421520Y-82273976D02*
X77326282Y-82273976D01*
X77326282Y-82273976D02*
X77278663Y-82297785D01*
X77492949Y-82583500D02*
X77445330Y-82607309D01*
X77445330Y-82607309D02*
X77326282Y-82607309D01*
X77326282Y-82607309D02*
X77278663Y-82583500D01*
X77278663Y-82583500D02*
X77254854Y-82535880D01*
X77254854Y-82535880D02*
X77254854Y-82488261D01*
X77254854Y-82488261D02*
X77278663Y-82440642D01*
X77278663Y-82440642D02*
X77326282Y-82416833D01*
X77326282Y-82416833D02*
X77445330Y-82416833D01*
X77445330Y-82416833D02*
X77492949Y-82393023D01*
X77802473Y-82607309D02*
X77754854Y-82583500D01*
X77754854Y-82583500D02*
X77731044Y-82535880D01*
X77731044Y-82535880D02*
X77731044Y-82107309D01*
X76627474Y-75933500D02*
X76698902Y-75957309D01*
X76698902Y-75957309D02*
X76817950Y-75957309D01*
X76817950Y-75957309D02*
X76865569Y-75933500D01*
X76865569Y-75933500D02*
X76889378Y-75909690D01*
X76889378Y-75909690D02*
X76913188Y-75862071D01*
X76913188Y-75862071D02*
X76913188Y-75814452D01*
X76913188Y-75814452D02*
X76889378Y-75766833D01*
X76889378Y-75766833D02*
X76865569Y-75743023D01*
X76865569Y-75743023D02*
X76817950Y-75719214D01*
X76817950Y-75719214D02*
X76722712Y-75695404D01*
X76722712Y-75695404D02*
X76675093Y-75671595D01*
X76675093Y-75671595D02*
X76651283Y-75647785D01*
X76651283Y-75647785D02*
X76627474Y-75600166D01*
X76627474Y-75600166D02*
X76627474Y-75552547D01*
X76627474Y-75552547D02*
X76651283Y-75504928D01*
X76651283Y-75504928D02*
X76675093Y-75481119D01*
X76675093Y-75481119D02*
X76722712Y-75457309D01*
X76722712Y-75457309D02*
X76841759Y-75457309D01*
X76841759Y-75457309D02*
X76913188Y-75481119D01*
X77127473Y-75957309D02*
X77127473Y-75457309D01*
X77127473Y-75457309D02*
X77246521Y-75457309D01*
X77246521Y-75457309D02*
X77317949Y-75481119D01*
X77317949Y-75481119D02*
X77365568Y-75528738D01*
X77365568Y-75528738D02*
X77389378Y-75576357D01*
X77389378Y-75576357D02*
X77413187Y-75671595D01*
X77413187Y-75671595D02*
X77413187Y-75743023D01*
X77413187Y-75743023D02*
X77389378Y-75838261D01*
X77389378Y-75838261D02*
X77365568Y-75885880D01*
X77365568Y-75885880D02*
X77317949Y-75933500D01*
X77317949Y-75933500D02*
X77246521Y-75957309D01*
X77246521Y-75957309D02*
X77127473Y-75957309D01*
X77603664Y-75814452D02*
X77841759Y-75814452D01*
X77556045Y-75957309D02*
X77722711Y-75457309D01*
X77722711Y-75457309D02*
X77889378Y-75957309D01*
X76604855Y-72707309D02*
X76771521Y-73207309D01*
X76771521Y-73207309D02*
X76938188Y-72707309D01*
X77390568Y-73159690D02*
X77366759Y-73183500D01*
X77366759Y-73183500D02*
X77295330Y-73207309D01*
X77295330Y-73207309D02*
X77247711Y-73207309D01*
X77247711Y-73207309D02*
X77176283Y-73183500D01*
X77176283Y-73183500D02*
X77128664Y-73135880D01*
X77128664Y-73135880D02*
X77104854Y-73088261D01*
X77104854Y-73088261D02*
X77081045Y-72993023D01*
X77081045Y-72993023D02*
X77081045Y-72921595D01*
X77081045Y-72921595D02*
X77104854Y-72826357D01*
X77104854Y-72826357D02*
X77128664Y-72778738D01*
X77128664Y-72778738D02*
X77176283Y-72731119D01*
X77176283Y-72731119D02*
X77247711Y-72707309D01*
X77247711Y-72707309D02*
X77295330Y-72707309D01*
X77295330Y-72707309D02*
X77366759Y-72731119D01*
X77366759Y-72731119D02*
X77390568Y-72754928D01*
X77890568Y-73159690D02*
X77866759Y-73183500D01*
X77866759Y-73183500D02*
X77795330Y-73207309D01*
X77795330Y-73207309D02*
X77747711Y-73207309D01*
X77747711Y-73207309D02*
X77676283Y-73183500D01*
X77676283Y-73183500D02*
X77628664Y-73135880D01*
X77628664Y-73135880D02*
X77604854Y-73088261D01*
X77604854Y-73088261D02*
X77581045Y-72993023D01*
X77581045Y-72993023D02*
X77581045Y-72921595D01*
X77581045Y-72921595D02*
X77604854Y-72826357D01*
X77604854Y-72826357D02*
X77628664Y-72778738D01*
X77628664Y-72778738D02*
X77676283Y-72731119D01*
X77676283Y-72731119D02*
X77747711Y-72707309D01*
X77747711Y-72707309D02*
X77795330Y-72707309D01*
X77795330Y-72707309D02*
X77866759Y-72731119D01*
X77866759Y-72731119D02*
X77890568Y-72754928D01*
D10*
X45066666Y-66493633D02*
X45066666Y-67060300D01*
X45066666Y-67060300D02*
X45100000Y-67126966D01*
X45100000Y-67126966D02*
X45133333Y-67160300D01*
X45133333Y-67160300D02*
X45200000Y-67193633D01*
X45200000Y-67193633D02*
X45333333Y-67193633D01*
X45333333Y-67193633D02*
X45400000Y-67160300D01*
X45400000Y-67160300D02*
X45433333Y-67126966D01*
X45433333Y-67126966D02*
X45466666Y-67060300D01*
X45466666Y-67060300D02*
X45466666Y-66493633D01*
X46166666Y-67193633D02*
X45766666Y-67193633D01*
X45966666Y-67193633D02*
X45966666Y-66493633D01*
X45966666Y-66493633D02*
X45899999Y-66593633D01*
X45899999Y-66593633D02*
X45833333Y-66660300D01*
X45833333Y-66660300D02*
X45766666Y-66693633D01*
X42367856Y-70091085D02*
X42405952Y-70052990D01*
X42405952Y-70052990D02*
X42482142Y-70014895D01*
X42482142Y-70014895D02*
X42672618Y-70014895D01*
X42672618Y-70014895D02*
X42748809Y-70052990D01*
X42748809Y-70052990D02*
X42786904Y-70091085D01*
X42786904Y-70091085D02*
X42824999Y-70167276D01*
X42824999Y-70167276D02*
X42824999Y-70243466D01*
X42824999Y-70243466D02*
X42786904Y-70357752D01*
X42786904Y-70357752D02*
X42329761Y-70814895D01*
X42329761Y-70814895D02*
X42824999Y-70814895D01*
X43510714Y-70281561D02*
X43510714Y-70814895D01*
X43320238Y-69976800D02*
X43129761Y-70548228D01*
X43129761Y-70548228D02*
X43625000Y-70548228D01*
X44310714Y-70814895D02*
X43929762Y-70814895D01*
X43929762Y-70814895D02*
X43929762Y-70014895D01*
X45034524Y-70738704D02*
X44996428Y-70776800D01*
X44996428Y-70776800D02*
X44882143Y-70814895D01*
X44882143Y-70814895D02*
X44805952Y-70814895D01*
X44805952Y-70814895D02*
X44691666Y-70776800D01*
X44691666Y-70776800D02*
X44615476Y-70700609D01*
X44615476Y-70700609D02*
X44577381Y-70624419D01*
X44577381Y-70624419D02*
X44539285Y-70472038D01*
X44539285Y-70472038D02*
X44539285Y-70357752D01*
X44539285Y-70357752D02*
X44577381Y-70205371D01*
X44577381Y-70205371D02*
X44615476Y-70129180D01*
X44615476Y-70129180D02*
X44691666Y-70052990D01*
X44691666Y-70052990D02*
X44805952Y-70014895D01*
X44805952Y-70014895D02*
X44882143Y-70014895D01*
X44882143Y-70014895D02*
X44996428Y-70052990D01*
X44996428Y-70052990D02*
X45034524Y-70091085D01*
X45796428Y-70814895D02*
X45339285Y-70814895D01*
X45567857Y-70814895D02*
X45567857Y-70014895D01*
X45567857Y-70014895D02*
X45491666Y-70129180D01*
X45491666Y-70129180D02*
X45415476Y-70205371D01*
X45415476Y-70205371D02*
X45339285Y-70243466D01*
X46291667Y-70014895D02*
X46367857Y-70014895D01*
X46367857Y-70014895D02*
X46444048Y-70052990D01*
X46444048Y-70052990D02*
X46482143Y-70091085D01*
X46482143Y-70091085D02*
X46520238Y-70167276D01*
X46520238Y-70167276D02*
X46558333Y-70319657D01*
X46558333Y-70319657D02*
X46558333Y-70510133D01*
X46558333Y-70510133D02*
X46520238Y-70662514D01*
X46520238Y-70662514D02*
X46482143Y-70738704D01*
X46482143Y-70738704D02*
X46444048Y-70776800D01*
X46444048Y-70776800D02*
X46367857Y-70814895D01*
X46367857Y-70814895D02*
X46291667Y-70814895D01*
X46291667Y-70814895D02*
X46215476Y-70776800D01*
X46215476Y-70776800D02*
X46177381Y-70738704D01*
X46177381Y-70738704D02*
X46139286Y-70662514D01*
X46139286Y-70662514D02*
X46101190Y-70510133D01*
X46101190Y-70510133D02*
X46101190Y-70319657D01*
X46101190Y-70319657D02*
X46139286Y-70167276D01*
X46139286Y-70167276D02*
X46177381Y-70091085D01*
X46177381Y-70091085D02*
X46215476Y-70052990D01*
X46215476Y-70052990D02*
X46291667Y-70014895D01*
X46863095Y-70091085D02*
X46901191Y-70052990D01*
X46901191Y-70052990D02*
X46977381Y-70014895D01*
X46977381Y-70014895D02*
X47167857Y-70014895D01*
X47167857Y-70014895D02*
X47244048Y-70052990D01*
X47244048Y-70052990D02*
X47282143Y-70091085D01*
X47282143Y-70091085D02*
X47320238Y-70167276D01*
X47320238Y-70167276D02*
X47320238Y-70243466D01*
X47320238Y-70243466D02*
X47282143Y-70357752D01*
X47282143Y-70357752D02*
X46825000Y-70814895D01*
X46825000Y-70814895D02*
X47320238Y-70814895D01*
X48044048Y-70014895D02*
X47663096Y-70014895D01*
X47663096Y-70014895D02*
X47625000Y-70395847D01*
X47625000Y-70395847D02*
X47663096Y-70357752D01*
X47663096Y-70357752D02*
X47739286Y-70319657D01*
X47739286Y-70319657D02*
X47929762Y-70319657D01*
X47929762Y-70319657D02*
X48005953Y-70357752D01*
X48005953Y-70357752D02*
X48044048Y-70395847D01*
X48044048Y-70395847D02*
X48082143Y-70472038D01*
X48082143Y-70472038D02*
X48082143Y-70662514D01*
X48082143Y-70662514D02*
X48044048Y-70738704D01*
X48044048Y-70738704D02*
X48005953Y-70776800D01*
X48005953Y-70776800D02*
X47929762Y-70814895D01*
X47929762Y-70814895D02*
X47739286Y-70814895D01*
X47739286Y-70814895D02*
X47663096Y-70776800D01*
X47663096Y-70776800D02*
X47625000Y-70738704D01*
X66508333Y-75526966D02*
X66475000Y-75560300D01*
X66475000Y-75560300D02*
X66375000Y-75593633D01*
X66375000Y-75593633D02*
X66308333Y-75593633D01*
X66308333Y-75593633D02*
X66208333Y-75560300D01*
X66208333Y-75560300D02*
X66141667Y-75493633D01*
X66141667Y-75493633D02*
X66108333Y-75426966D01*
X66108333Y-75426966D02*
X66075000Y-75293633D01*
X66075000Y-75293633D02*
X66075000Y-75193633D01*
X66075000Y-75193633D02*
X66108333Y-75060300D01*
X66108333Y-75060300D02*
X66141667Y-74993633D01*
X66141667Y-74993633D02*
X66208333Y-74926966D01*
X66208333Y-74926966D02*
X66308333Y-74893633D01*
X66308333Y-74893633D02*
X66375000Y-74893633D01*
X66375000Y-74893633D02*
X66475000Y-74926966D01*
X66475000Y-74926966D02*
X66508333Y-74960300D01*
X66775000Y-74960300D02*
X66808333Y-74926966D01*
X66808333Y-74926966D02*
X66875000Y-74893633D01*
X66875000Y-74893633D02*
X67041667Y-74893633D01*
X67041667Y-74893633D02*
X67108333Y-74926966D01*
X67108333Y-74926966D02*
X67141667Y-74960300D01*
X67141667Y-74960300D02*
X67175000Y-75026966D01*
X67175000Y-75026966D02*
X67175000Y-75093633D01*
X67175000Y-75093633D02*
X67141667Y-75193633D01*
X67141667Y-75193633D02*
X66741667Y-75593633D01*
X66741667Y-75593633D02*
X67175000Y-75593633D01*
X68235713Y-74916085D02*
X68273809Y-74877990D01*
X68273809Y-74877990D02*
X68349999Y-74839895D01*
X68349999Y-74839895D02*
X68540475Y-74839895D01*
X68540475Y-74839895D02*
X68616666Y-74877990D01*
X68616666Y-74877990D02*
X68654761Y-74916085D01*
X68654761Y-74916085D02*
X68692856Y-74992276D01*
X68692856Y-74992276D02*
X68692856Y-75068466D01*
X68692856Y-75068466D02*
X68654761Y-75182752D01*
X68654761Y-75182752D02*
X68197618Y-75639895D01*
X68197618Y-75639895D02*
X68692856Y-75639895D01*
X68997618Y-74916085D02*
X69035714Y-74877990D01*
X69035714Y-74877990D02*
X69111904Y-74839895D01*
X69111904Y-74839895D02*
X69302380Y-74839895D01*
X69302380Y-74839895D02*
X69378571Y-74877990D01*
X69378571Y-74877990D02*
X69416666Y-74916085D01*
X69416666Y-74916085D02*
X69454761Y-74992276D01*
X69454761Y-74992276D02*
X69454761Y-75068466D01*
X69454761Y-75068466D02*
X69416666Y-75182752D01*
X69416666Y-75182752D02*
X68959523Y-75639895D01*
X68959523Y-75639895D02*
X69454761Y-75639895D01*
X69797619Y-75106561D02*
X69797619Y-75906561D01*
X69797619Y-75144657D02*
X69873809Y-75106561D01*
X69873809Y-75106561D02*
X70026190Y-75106561D01*
X70026190Y-75106561D02*
X70102381Y-75144657D01*
X70102381Y-75144657D02*
X70140476Y-75182752D01*
X70140476Y-75182752D02*
X70178571Y-75258942D01*
X70178571Y-75258942D02*
X70178571Y-75487514D01*
X70178571Y-75487514D02*
X70140476Y-75563704D01*
X70140476Y-75563704D02*
X70102381Y-75601800D01*
X70102381Y-75601800D02*
X70026190Y-75639895D01*
X70026190Y-75639895D02*
X69873809Y-75639895D01*
X69873809Y-75639895D02*
X69797619Y-75601800D01*
X70788095Y-75220847D02*
X70521429Y-75220847D01*
X70521429Y-75639895D02*
X70521429Y-74839895D01*
X70521429Y-74839895D02*
X70902381Y-74839895D01*
X36608633Y-82783333D02*
X37108633Y-82783333D01*
X37108633Y-82783333D02*
X37208633Y-82816666D01*
X37208633Y-82816666D02*
X37275300Y-82883333D01*
X37275300Y-82883333D02*
X37308633Y-82983333D01*
X37308633Y-82983333D02*
X37308633Y-83050000D01*
X36675300Y-82483333D02*
X36641966Y-82450000D01*
X36641966Y-82450000D02*
X36608633Y-82383333D01*
X36608633Y-82383333D02*
X36608633Y-82216667D01*
X36608633Y-82216667D02*
X36641966Y-82150000D01*
X36641966Y-82150000D02*
X36675300Y-82116667D01*
X36675300Y-82116667D02*
X36741966Y-82083333D01*
X36741966Y-82083333D02*
X36808633Y-82083333D01*
X36808633Y-82083333D02*
X36908633Y-82116667D01*
X36908633Y-82116667D02*
X37308633Y-82516667D01*
X37308633Y-82516667D02*
X37308633Y-82083333D01*
X66433333Y-60293633D02*
X66433333Y-59593633D01*
X66433333Y-59593633D02*
X66600000Y-59593633D01*
X66600000Y-59593633D02*
X66700000Y-59626966D01*
X66700000Y-59626966D02*
X66766667Y-59693633D01*
X66766667Y-59693633D02*
X66800000Y-59760300D01*
X66800000Y-59760300D02*
X66833333Y-59893633D01*
X66833333Y-59893633D02*
X66833333Y-59993633D01*
X66833333Y-59993633D02*
X66800000Y-60126966D01*
X66800000Y-60126966D02*
X66766667Y-60193633D01*
X66766667Y-60193633D02*
X66700000Y-60260300D01*
X66700000Y-60260300D02*
X66600000Y-60293633D01*
X66600000Y-60293633D02*
X66433333Y-60293633D01*
X67100000Y-59660300D02*
X67133333Y-59626966D01*
X67133333Y-59626966D02*
X67200000Y-59593633D01*
X67200000Y-59593633D02*
X67366667Y-59593633D01*
X67366667Y-59593633D02*
X67433333Y-59626966D01*
X67433333Y-59626966D02*
X67466667Y-59660300D01*
X67466667Y-59660300D02*
X67500000Y-59726966D01*
X67500000Y-59726966D02*
X67500000Y-59793633D01*
X67500000Y-59793633D02*
X67466667Y-59893633D01*
X67466667Y-59893633D02*
X67066667Y-60293633D01*
X67066667Y-60293633D02*
X67500000Y-60293633D01*
X68535714Y-60389895D02*
X68154762Y-60389895D01*
X68154762Y-60389895D02*
X68154762Y-59589895D01*
X68802381Y-59970847D02*
X69069047Y-59970847D01*
X69183333Y-60389895D02*
X68802381Y-60389895D01*
X68802381Y-60389895D02*
X68802381Y-59589895D01*
X68802381Y-59589895D02*
X69183333Y-59589895D01*
X69526191Y-60389895D02*
X69526191Y-59589895D01*
X69526191Y-59589895D02*
X69716667Y-59589895D01*
X69716667Y-59589895D02*
X69830953Y-59627990D01*
X69830953Y-59627990D02*
X69907143Y-59704180D01*
X69907143Y-59704180D02*
X69945238Y-59780371D01*
X69945238Y-59780371D02*
X69983334Y-59932752D01*
X69983334Y-59932752D02*
X69983334Y-60047038D01*
X69983334Y-60047038D02*
X69945238Y-60199419D01*
X69945238Y-60199419D02*
X69907143Y-60275609D01*
X69907143Y-60275609D02*
X69830953Y-60351800D01*
X69830953Y-60351800D02*
X69716667Y-60389895D01*
X69716667Y-60389895D02*
X69526191Y-60389895D01*
X66983333Y-64118633D02*
X66750000Y-63785300D01*
X66583333Y-64118633D02*
X66583333Y-63418633D01*
X66583333Y-63418633D02*
X66850000Y-63418633D01*
X66850000Y-63418633D02*
X66916667Y-63451966D01*
X66916667Y-63451966D02*
X66950000Y-63485300D01*
X66950000Y-63485300D02*
X66983333Y-63551966D01*
X66983333Y-63551966D02*
X66983333Y-63651966D01*
X66983333Y-63651966D02*
X66950000Y-63718633D01*
X66950000Y-63718633D02*
X66916667Y-63751966D01*
X66916667Y-63751966D02*
X66850000Y-63785300D01*
X66850000Y-63785300D02*
X66583333Y-63785300D01*
X67216667Y-63418633D02*
X67683333Y-63418633D01*
X67683333Y-63418633D02*
X67383333Y-64118633D01*
X68271428Y-63439895D02*
X68766666Y-63439895D01*
X68766666Y-63439895D02*
X68500000Y-63744657D01*
X68500000Y-63744657D02*
X68614285Y-63744657D01*
X68614285Y-63744657D02*
X68690476Y-63782752D01*
X68690476Y-63782752D02*
X68728571Y-63820847D01*
X68728571Y-63820847D02*
X68766666Y-63897038D01*
X68766666Y-63897038D02*
X68766666Y-64087514D01*
X68766666Y-64087514D02*
X68728571Y-64163704D01*
X68728571Y-64163704D02*
X68690476Y-64201800D01*
X68690476Y-64201800D02*
X68614285Y-64239895D01*
X68614285Y-64239895D02*
X68385714Y-64239895D01*
X68385714Y-64239895D02*
X68309523Y-64201800D01*
X68309523Y-64201800D02*
X68271428Y-64163704D01*
X69033333Y-63439895D02*
X69528571Y-63439895D01*
X69528571Y-63439895D02*
X69261905Y-63744657D01*
X69261905Y-63744657D02*
X69376190Y-63744657D01*
X69376190Y-63744657D02*
X69452381Y-63782752D01*
X69452381Y-63782752D02*
X69490476Y-63820847D01*
X69490476Y-63820847D02*
X69528571Y-63897038D01*
X69528571Y-63897038D02*
X69528571Y-64087514D01*
X69528571Y-64087514D02*
X69490476Y-64163704D01*
X69490476Y-64163704D02*
X69452381Y-64201800D01*
X69452381Y-64201800D02*
X69376190Y-64239895D01*
X69376190Y-64239895D02*
X69147619Y-64239895D01*
X69147619Y-64239895D02*
X69071428Y-64201800D01*
X69071428Y-64201800D02*
X69033333Y-64163704D01*
X70023810Y-63439895D02*
X70100000Y-63439895D01*
X70100000Y-63439895D02*
X70176191Y-63477990D01*
X70176191Y-63477990D02*
X70214286Y-63516085D01*
X70214286Y-63516085D02*
X70252381Y-63592276D01*
X70252381Y-63592276D02*
X70290476Y-63744657D01*
X70290476Y-63744657D02*
X70290476Y-63935133D01*
X70290476Y-63935133D02*
X70252381Y-64087514D01*
X70252381Y-64087514D02*
X70214286Y-64163704D01*
X70214286Y-64163704D02*
X70176191Y-64201800D01*
X70176191Y-64201800D02*
X70100000Y-64239895D01*
X70100000Y-64239895D02*
X70023810Y-64239895D01*
X70023810Y-64239895D02*
X69947619Y-64201800D01*
X69947619Y-64201800D02*
X69909524Y-64163704D01*
X69909524Y-64163704D02*
X69871429Y-64087514D01*
X69871429Y-64087514D02*
X69833333Y-63935133D01*
X69833333Y-63935133D02*
X69833333Y-63744657D01*
X69833333Y-63744657D02*
X69871429Y-63592276D01*
X69871429Y-63592276D02*
X69909524Y-63516085D01*
X69909524Y-63516085D02*
X69947619Y-63477990D01*
X69947619Y-63477990D02*
X70023810Y-63439895D01*
X56858333Y-57751966D02*
X56825000Y-57785300D01*
X56825000Y-57785300D02*
X56725000Y-57818633D01*
X56725000Y-57818633D02*
X56658333Y-57818633D01*
X56658333Y-57818633D02*
X56558333Y-57785300D01*
X56558333Y-57785300D02*
X56491667Y-57718633D01*
X56491667Y-57718633D02*
X56458333Y-57651966D01*
X56458333Y-57651966D02*
X56425000Y-57518633D01*
X56425000Y-57518633D02*
X56425000Y-57418633D01*
X56425000Y-57418633D02*
X56458333Y-57285300D01*
X56458333Y-57285300D02*
X56491667Y-57218633D01*
X56491667Y-57218633D02*
X56558333Y-57151966D01*
X56558333Y-57151966D02*
X56658333Y-57118633D01*
X56658333Y-57118633D02*
X56725000Y-57118633D01*
X56725000Y-57118633D02*
X56825000Y-57151966D01*
X56825000Y-57151966D02*
X56858333Y-57185300D01*
X57091667Y-57118633D02*
X57525000Y-57118633D01*
X57525000Y-57118633D02*
X57291667Y-57385300D01*
X57291667Y-57385300D02*
X57391667Y-57385300D01*
X57391667Y-57385300D02*
X57458333Y-57418633D01*
X57458333Y-57418633D02*
X57491667Y-57451966D01*
X57491667Y-57451966D02*
X57525000Y-57518633D01*
X57525000Y-57518633D02*
X57525000Y-57685300D01*
X57525000Y-57685300D02*
X57491667Y-57751966D01*
X57491667Y-57751966D02*
X57458333Y-57785300D01*
X57458333Y-57785300D02*
X57391667Y-57818633D01*
X57391667Y-57818633D02*
X57191667Y-57818633D01*
X57191667Y-57818633D02*
X57125000Y-57785300D01*
X57125000Y-57785300D02*
X57091667Y-57751966D01*
X58060713Y-57091085D02*
X58098809Y-57052990D01*
X58098809Y-57052990D02*
X58174999Y-57014895D01*
X58174999Y-57014895D02*
X58365475Y-57014895D01*
X58365475Y-57014895D02*
X58441666Y-57052990D01*
X58441666Y-57052990D02*
X58479761Y-57091085D01*
X58479761Y-57091085D02*
X58517856Y-57167276D01*
X58517856Y-57167276D02*
X58517856Y-57243466D01*
X58517856Y-57243466D02*
X58479761Y-57357752D01*
X58479761Y-57357752D02*
X58022618Y-57814895D01*
X58022618Y-57814895D02*
X58517856Y-57814895D01*
X58822618Y-57091085D02*
X58860714Y-57052990D01*
X58860714Y-57052990D02*
X58936904Y-57014895D01*
X58936904Y-57014895D02*
X59127380Y-57014895D01*
X59127380Y-57014895D02*
X59203571Y-57052990D01*
X59203571Y-57052990D02*
X59241666Y-57091085D01*
X59241666Y-57091085D02*
X59279761Y-57167276D01*
X59279761Y-57167276D02*
X59279761Y-57243466D01*
X59279761Y-57243466D02*
X59241666Y-57357752D01*
X59241666Y-57357752D02*
X58784523Y-57814895D01*
X58784523Y-57814895D02*
X59279761Y-57814895D01*
X59622619Y-57281561D02*
X59622619Y-58081561D01*
X59622619Y-57319657D02*
X59698809Y-57281561D01*
X59698809Y-57281561D02*
X59851190Y-57281561D01*
X59851190Y-57281561D02*
X59927381Y-57319657D01*
X59927381Y-57319657D02*
X59965476Y-57357752D01*
X59965476Y-57357752D02*
X60003571Y-57433942D01*
X60003571Y-57433942D02*
X60003571Y-57662514D01*
X60003571Y-57662514D02*
X59965476Y-57738704D01*
X59965476Y-57738704D02*
X59927381Y-57776800D01*
X59927381Y-57776800D02*
X59851190Y-57814895D01*
X59851190Y-57814895D02*
X59698809Y-57814895D01*
X59698809Y-57814895D02*
X59622619Y-57776800D01*
X60613095Y-57395847D02*
X60346429Y-57395847D01*
X60346429Y-57814895D02*
X60346429Y-57014895D01*
X60346429Y-57014895D02*
X60727381Y-57014895D01*
X70808333Y-67818633D02*
X70575000Y-67485300D01*
X70408333Y-67818633D02*
X70408333Y-67118633D01*
X70408333Y-67118633D02*
X70675000Y-67118633D01*
X70675000Y-67118633D02*
X70741667Y-67151966D01*
X70741667Y-67151966D02*
X70775000Y-67185300D01*
X70775000Y-67185300D02*
X70808333Y-67251966D01*
X70808333Y-67251966D02*
X70808333Y-67351966D01*
X70808333Y-67351966D02*
X70775000Y-67418633D01*
X70775000Y-67418633D02*
X70741667Y-67451966D01*
X70741667Y-67451966D02*
X70675000Y-67485300D01*
X70675000Y-67485300D02*
X70408333Y-67485300D01*
X71408333Y-67118633D02*
X71275000Y-67118633D01*
X71275000Y-67118633D02*
X71208333Y-67151966D01*
X71208333Y-67151966D02*
X71175000Y-67185300D01*
X71175000Y-67185300D02*
X71108333Y-67285300D01*
X71108333Y-67285300D02*
X71075000Y-67418633D01*
X71075000Y-67418633D02*
X71075000Y-67685300D01*
X71075000Y-67685300D02*
X71108333Y-67751966D01*
X71108333Y-67751966D02*
X71141667Y-67785300D01*
X71141667Y-67785300D02*
X71208333Y-67818633D01*
X71208333Y-67818633D02*
X71341667Y-67818633D01*
X71341667Y-67818633D02*
X71408333Y-67785300D01*
X71408333Y-67785300D02*
X71441667Y-67751966D01*
X71441667Y-67751966D02*
X71475000Y-67685300D01*
X71475000Y-67685300D02*
X71475000Y-67518633D01*
X71475000Y-67518633D02*
X71441667Y-67451966D01*
X71441667Y-67451966D02*
X71408333Y-67418633D01*
X71408333Y-67418633D02*
X71341667Y-67385300D01*
X71341667Y-67385300D02*
X71208333Y-67385300D01*
X71208333Y-67385300D02*
X71141667Y-67418633D01*
X71141667Y-67418633D02*
X71108333Y-67451966D01*
X71108333Y-67451966D02*
X71075000Y-67518633D01*
X72697618Y-67914895D02*
X72240475Y-67914895D01*
X72469047Y-67914895D02*
X72469047Y-67114895D01*
X72469047Y-67114895D02*
X72392856Y-67229180D01*
X72392856Y-67229180D02*
X72316666Y-67305371D01*
X72316666Y-67305371D02*
X72240475Y-67343466D01*
X73192857Y-67114895D02*
X73269047Y-67114895D01*
X73269047Y-67114895D02*
X73345238Y-67152990D01*
X73345238Y-67152990D02*
X73383333Y-67191085D01*
X73383333Y-67191085D02*
X73421428Y-67267276D01*
X73421428Y-67267276D02*
X73459523Y-67419657D01*
X73459523Y-67419657D02*
X73459523Y-67610133D01*
X73459523Y-67610133D02*
X73421428Y-67762514D01*
X73421428Y-67762514D02*
X73383333Y-67838704D01*
X73383333Y-67838704D02*
X73345238Y-67876800D01*
X73345238Y-67876800D02*
X73269047Y-67914895D01*
X73269047Y-67914895D02*
X73192857Y-67914895D01*
X73192857Y-67914895D02*
X73116666Y-67876800D01*
X73116666Y-67876800D02*
X73078571Y-67838704D01*
X73078571Y-67838704D02*
X73040476Y-67762514D01*
X73040476Y-67762514D02*
X73002380Y-67610133D01*
X73002380Y-67610133D02*
X73002380Y-67419657D01*
X73002380Y-67419657D02*
X73040476Y-67267276D01*
X73040476Y-67267276D02*
X73078571Y-67191085D01*
X73078571Y-67191085D02*
X73116666Y-67152990D01*
X73116666Y-67152990D02*
X73192857Y-67114895D01*
X73802381Y-67914895D02*
X73802381Y-67114895D01*
X74259524Y-67914895D02*
X73916666Y-67457752D01*
X74259524Y-67114895D02*
X73802381Y-67572038D01*
X66408333Y-67868633D02*
X66175000Y-67535300D01*
X66008333Y-67868633D02*
X66008333Y-67168633D01*
X66008333Y-67168633D02*
X66275000Y-67168633D01*
X66275000Y-67168633D02*
X66341667Y-67201966D01*
X66341667Y-67201966D02*
X66375000Y-67235300D01*
X66375000Y-67235300D02*
X66408333Y-67301966D01*
X66408333Y-67301966D02*
X66408333Y-67401966D01*
X66408333Y-67401966D02*
X66375000Y-67468633D01*
X66375000Y-67468633D02*
X66341667Y-67501966D01*
X66341667Y-67501966D02*
X66275000Y-67535300D01*
X66275000Y-67535300D02*
X66008333Y-67535300D01*
X67008333Y-67401966D02*
X67008333Y-67868633D01*
X66841667Y-67135300D02*
X66675000Y-67635300D01*
X66675000Y-67635300D02*
X67108333Y-67635300D01*
X67980952Y-67381561D02*
X67980952Y-67914895D01*
X67790476Y-67076800D02*
X67599999Y-67648228D01*
X67599999Y-67648228D02*
X68095238Y-67648228D01*
X68400000Y-67838704D02*
X68438095Y-67876800D01*
X68438095Y-67876800D02*
X68400000Y-67914895D01*
X68400000Y-67914895D02*
X68361904Y-67876800D01*
X68361904Y-67876800D02*
X68400000Y-67838704D01*
X68400000Y-67838704D02*
X68400000Y-67914895D01*
X68704761Y-67114895D02*
X69238095Y-67114895D01*
X69238095Y-67114895D02*
X68895237Y-67914895D01*
X69542857Y-67914895D02*
X69542857Y-67114895D01*
X70000000Y-67914895D02*
X69657142Y-67457752D01*
X70000000Y-67114895D02*
X69542857Y-67572038D01*
X66708333Y-71693633D02*
X66475000Y-71360300D01*
X66308333Y-71693633D02*
X66308333Y-70993633D01*
X66308333Y-70993633D02*
X66575000Y-70993633D01*
X66575000Y-70993633D02*
X66641667Y-71026966D01*
X66641667Y-71026966D02*
X66675000Y-71060300D01*
X66675000Y-71060300D02*
X66708333Y-71126966D01*
X66708333Y-71126966D02*
X66708333Y-71226966D01*
X66708333Y-71226966D02*
X66675000Y-71293633D01*
X66675000Y-71293633D02*
X66641667Y-71326966D01*
X66641667Y-71326966D02*
X66575000Y-71360300D01*
X66575000Y-71360300D02*
X66308333Y-71360300D01*
X66941667Y-70993633D02*
X67375000Y-70993633D01*
X67375000Y-70993633D02*
X67141667Y-71260300D01*
X67141667Y-71260300D02*
X67241667Y-71260300D01*
X67241667Y-71260300D02*
X67308333Y-71293633D01*
X67308333Y-71293633D02*
X67341667Y-71326966D01*
X67341667Y-71326966D02*
X67375000Y-71393633D01*
X67375000Y-71393633D02*
X67375000Y-71560300D01*
X67375000Y-71560300D02*
X67341667Y-71626966D01*
X67341667Y-71626966D02*
X67308333Y-71660300D01*
X67308333Y-71660300D02*
X67241667Y-71693633D01*
X67241667Y-71693633D02*
X67041667Y-71693633D01*
X67041667Y-71693633D02*
X66975000Y-71660300D01*
X66975000Y-71660300D02*
X66941667Y-71626966D01*
X68430952Y-71256561D02*
X68430952Y-71789895D01*
X68240476Y-70951800D02*
X68049999Y-71523228D01*
X68049999Y-71523228D02*
X68545238Y-71523228D01*
X68850000Y-71713704D02*
X68888095Y-71751800D01*
X68888095Y-71751800D02*
X68850000Y-71789895D01*
X68850000Y-71789895D02*
X68811904Y-71751800D01*
X68811904Y-71751800D02*
X68850000Y-71713704D01*
X68850000Y-71713704D02*
X68850000Y-71789895D01*
X69154761Y-70989895D02*
X69688095Y-70989895D01*
X69688095Y-70989895D02*
X69345237Y-71789895D01*
X69992857Y-71789895D02*
X69992857Y-70989895D01*
X70450000Y-71789895D02*
X70107142Y-71332752D01*
X70450000Y-70989895D02*
X69992857Y-71447038D01*
X66633333Y-79251966D02*
X66600000Y-79285300D01*
X66600000Y-79285300D02*
X66500000Y-79318633D01*
X66500000Y-79318633D02*
X66433333Y-79318633D01*
X66433333Y-79318633D02*
X66333333Y-79285300D01*
X66333333Y-79285300D02*
X66266667Y-79218633D01*
X66266667Y-79218633D02*
X66233333Y-79151966D01*
X66233333Y-79151966D02*
X66200000Y-79018633D01*
X66200000Y-79018633D02*
X66200000Y-78918633D01*
X66200000Y-78918633D02*
X66233333Y-78785300D01*
X66233333Y-78785300D02*
X66266667Y-78718633D01*
X66266667Y-78718633D02*
X66333333Y-78651966D01*
X66333333Y-78651966D02*
X66433333Y-78618633D01*
X66433333Y-78618633D02*
X66500000Y-78618633D01*
X66500000Y-78618633D02*
X66600000Y-78651966D01*
X66600000Y-78651966D02*
X66633333Y-78685300D01*
X67233333Y-78851966D02*
X67233333Y-79318633D01*
X67066667Y-78585300D02*
X66900000Y-79085300D01*
X66900000Y-79085300D02*
X67333333Y-79085300D01*
X68510714Y-78564895D02*
X68586904Y-78564895D01*
X68586904Y-78564895D02*
X68663095Y-78602990D01*
X68663095Y-78602990D02*
X68701190Y-78641085D01*
X68701190Y-78641085D02*
X68739285Y-78717276D01*
X68739285Y-78717276D02*
X68777380Y-78869657D01*
X68777380Y-78869657D02*
X68777380Y-79060133D01*
X68777380Y-79060133D02*
X68739285Y-79212514D01*
X68739285Y-79212514D02*
X68701190Y-79288704D01*
X68701190Y-79288704D02*
X68663095Y-79326800D01*
X68663095Y-79326800D02*
X68586904Y-79364895D01*
X68586904Y-79364895D02*
X68510714Y-79364895D01*
X68510714Y-79364895D02*
X68434523Y-79326800D01*
X68434523Y-79326800D02*
X68396428Y-79288704D01*
X68396428Y-79288704D02*
X68358333Y-79212514D01*
X68358333Y-79212514D02*
X68320237Y-79060133D01*
X68320237Y-79060133D02*
X68320237Y-78869657D01*
X68320237Y-78869657D02*
X68358333Y-78717276D01*
X68358333Y-78717276D02*
X68396428Y-78641085D01*
X68396428Y-78641085D02*
X68434523Y-78602990D01*
X68434523Y-78602990D02*
X68510714Y-78564895D01*
X69120238Y-79288704D02*
X69158333Y-79326800D01*
X69158333Y-79326800D02*
X69120238Y-79364895D01*
X69120238Y-79364895D02*
X69082142Y-79326800D01*
X69082142Y-79326800D02*
X69120238Y-79288704D01*
X69120238Y-79288704D02*
X69120238Y-79364895D01*
X69920237Y-79364895D02*
X69463094Y-79364895D01*
X69691666Y-79364895D02*
X69691666Y-78564895D01*
X69691666Y-78564895D02*
X69615475Y-78679180D01*
X69615475Y-78679180D02*
X69539285Y-78755371D01*
X69539285Y-78755371D02*
X69463094Y-78793466D01*
X70605952Y-78831561D02*
X70605952Y-79364895D01*
X70263095Y-78831561D02*
X70263095Y-79250609D01*
X70263095Y-79250609D02*
X70301190Y-79326800D01*
X70301190Y-79326800D02*
X70377380Y-79364895D01*
X70377380Y-79364895D02*
X70491666Y-79364895D01*
X70491666Y-79364895D02*
X70567857Y-79326800D01*
X70567857Y-79326800D02*
X70605952Y-79288704D01*
X71253571Y-78945847D02*
X70986905Y-78945847D01*
X70986905Y-79364895D02*
X70986905Y-78564895D01*
X70986905Y-78564895D02*
X71367857Y-78564895D01*
X57716666Y-66968633D02*
X57716666Y-67535300D01*
X57716666Y-67535300D02*
X57750000Y-67601966D01*
X57750000Y-67601966D02*
X57783333Y-67635300D01*
X57783333Y-67635300D02*
X57850000Y-67668633D01*
X57850000Y-67668633D02*
X57983333Y-67668633D01*
X57983333Y-67668633D02*
X58050000Y-67635300D01*
X58050000Y-67635300D02*
X58083333Y-67601966D01*
X58083333Y-67601966D02*
X58116666Y-67535300D01*
X58116666Y-67535300D02*
X58116666Y-66968633D01*
X58749999Y-67201966D02*
X58749999Y-67668633D01*
X58583333Y-66935300D02*
X58416666Y-67435300D01*
X58416666Y-67435300D02*
X58849999Y-67435300D01*
X55567856Y-73361323D02*
X55948809Y-73361323D01*
X55491666Y-73589895D02*
X55758333Y-72789895D01*
X55758333Y-72789895D02*
X56024999Y-73589895D01*
X56177380Y-72789895D02*
X56634523Y-72789895D01*
X56405951Y-73589895D02*
X56405951Y-72789895D01*
X56901190Y-73589895D02*
X56901190Y-72789895D01*
X56901190Y-72789895D02*
X57167856Y-73361323D01*
X57167856Y-73361323D02*
X57434523Y-72789895D01*
X57434523Y-72789895D02*
X57434523Y-73589895D01*
X57815476Y-73170847D02*
X58082142Y-73170847D01*
X58196428Y-73589895D02*
X57815476Y-73589895D01*
X57815476Y-73589895D02*
X57815476Y-72789895D01*
X57815476Y-72789895D02*
X58196428Y-72789895D01*
X58958333Y-72827990D02*
X58882143Y-72789895D01*
X58882143Y-72789895D02*
X58767857Y-72789895D01*
X58767857Y-72789895D02*
X58653571Y-72827990D01*
X58653571Y-72827990D02*
X58577381Y-72904180D01*
X58577381Y-72904180D02*
X58539286Y-72980371D01*
X58539286Y-72980371D02*
X58501190Y-73132752D01*
X58501190Y-73132752D02*
X58501190Y-73247038D01*
X58501190Y-73247038D02*
X58539286Y-73399419D01*
X58539286Y-73399419D02*
X58577381Y-73475609D01*
X58577381Y-73475609D02*
X58653571Y-73551800D01*
X58653571Y-73551800D02*
X58767857Y-73589895D01*
X58767857Y-73589895D02*
X58844048Y-73589895D01*
X58844048Y-73589895D02*
X58958333Y-73551800D01*
X58958333Y-73551800D02*
X58996429Y-73513704D01*
X58996429Y-73513704D02*
X58996429Y-73247038D01*
X58996429Y-73247038D02*
X58844048Y-73247038D01*
X59301190Y-73361323D02*
X59682143Y-73361323D01*
X59225000Y-73589895D02*
X59491667Y-72789895D01*
X59491667Y-72789895D02*
X59758333Y-73589895D01*
X59948809Y-72789895D02*
X60444047Y-72789895D01*
X60444047Y-72789895D02*
X60177381Y-73094657D01*
X60177381Y-73094657D02*
X60291666Y-73094657D01*
X60291666Y-73094657D02*
X60367857Y-73132752D01*
X60367857Y-73132752D02*
X60405952Y-73170847D01*
X60405952Y-73170847D02*
X60444047Y-73247038D01*
X60444047Y-73247038D02*
X60444047Y-73437514D01*
X60444047Y-73437514D02*
X60405952Y-73513704D01*
X60405952Y-73513704D02*
X60367857Y-73551800D01*
X60367857Y-73551800D02*
X60291666Y-73589895D01*
X60291666Y-73589895D02*
X60063095Y-73589895D01*
X60063095Y-73589895D02*
X59986904Y-73551800D01*
X59986904Y-73551800D02*
X59948809Y-73513704D01*
X60748809Y-72866085D02*
X60786905Y-72827990D01*
X60786905Y-72827990D02*
X60863095Y-72789895D01*
X60863095Y-72789895D02*
X61053571Y-72789895D01*
X61053571Y-72789895D02*
X61129762Y-72827990D01*
X61129762Y-72827990D02*
X61167857Y-72866085D01*
X61167857Y-72866085D02*
X61205952Y-72942276D01*
X61205952Y-72942276D02*
X61205952Y-73018466D01*
X61205952Y-73018466D02*
X61167857Y-73132752D01*
X61167857Y-73132752D02*
X60710714Y-73589895D01*
X60710714Y-73589895D02*
X61205952Y-73589895D01*
X61663095Y-73132752D02*
X61586905Y-73094657D01*
X61586905Y-73094657D02*
X61548810Y-73056561D01*
X61548810Y-73056561D02*
X61510714Y-72980371D01*
X61510714Y-72980371D02*
X61510714Y-72942276D01*
X61510714Y-72942276D02*
X61548810Y-72866085D01*
X61548810Y-72866085D02*
X61586905Y-72827990D01*
X61586905Y-72827990D02*
X61663095Y-72789895D01*
X61663095Y-72789895D02*
X61815476Y-72789895D01*
X61815476Y-72789895D02*
X61891667Y-72827990D01*
X61891667Y-72827990D02*
X61929762Y-72866085D01*
X61929762Y-72866085D02*
X61967857Y-72942276D01*
X61967857Y-72942276D02*
X61967857Y-72980371D01*
X61967857Y-72980371D02*
X61929762Y-73056561D01*
X61929762Y-73056561D02*
X61891667Y-73094657D01*
X61891667Y-73094657D02*
X61815476Y-73132752D01*
X61815476Y-73132752D02*
X61663095Y-73132752D01*
X61663095Y-73132752D02*
X61586905Y-73170847D01*
X61586905Y-73170847D02*
X61548810Y-73208942D01*
X61548810Y-73208942D02*
X61510714Y-73285133D01*
X61510714Y-73285133D02*
X61510714Y-73437514D01*
X61510714Y-73437514D02*
X61548810Y-73513704D01*
X61548810Y-73513704D02*
X61586905Y-73551800D01*
X61586905Y-73551800D02*
X61663095Y-73589895D01*
X61663095Y-73589895D02*
X61815476Y-73589895D01*
X61815476Y-73589895D02*
X61891667Y-73551800D01*
X61891667Y-73551800D02*
X61929762Y-73513704D01*
X61929762Y-73513704D02*
X61967857Y-73437514D01*
X61967857Y-73437514D02*
X61967857Y-73285133D01*
X61967857Y-73285133D02*
X61929762Y-73208942D01*
X61929762Y-73208942D02*
X61891667Y-73170847D01*
X61891667Y-73170847D02*
X61815476Y-73132752D01*
X62310715Y-73589895D02*
X62310715Y-72789895D01*
X62310715Y-72789895D02*
X62615477Y-72789895D01*
X62615477Y-72789895D02*
X62691667Y-72827990D01*
X62691667Y-72827990D02*
X62729762Y-72866085D01*
X62729762Y-72866085D02*
X62767858Y-72942276D01*
X62767858Y-72942276D02*
X62767858Y-73056561D01*
X62767858Y-73056561D02*
X62729762Y-73132752D01*
X62729762Y-73132752D02*
X62691667Y-73170847D01*
X62691667Y-73170847D02*
X62615477Y-73208942D01*
X62615477Y-73208942D02*
X62310715Y-73208942D01*
X63110715Y-73285133D02*
X63720239Y-73285133D01*
X64063095Y-73361323D02*
X64444048Y-73361323D01*
X63986905Y-73589895D02*
X64253572Y-72789895D01*
X64253572Y-72789895D02*
X64520238Y-73589895D01*
X64786905Y-72789895D02*
X64786905Y-73437514D01*
X64786905Y-73437514D02*
X64825000Y-73513704D01*
X64825000Y-73513704D02*
X64863095Y-73551800D01*
X64863095Y-73551800D02*
X64939286Y-73589895D01*
X64939286Y-73589895D02*
X65091667Y-73589895D01*
X65091667Y-73589895D02*
X65167857Y-73551800D01*
X65167857Y-73551800D02*
X65205952Y-73513704D01*
X65205952Y-73513704D02*
X65244048Y-73437514D01*
X65244048Y-73437514D02*
X65244048Y-72789895D01*
X63278633Y-82783333D02*
X63778633Y-82783333D01*
X63778633Y-82783333D02*
X63878633Y-82816666D01*
X63878633Y-82816666D02*
X63945300Y-82883333D01*
X63945300Y-82883333D02*
X63978633Y-82983333D01*
X63978633Y-82983333D02*
X63978633Y-83050000D01*
X63278633Y-82516667D02*
X63278633Y-82083333D01*
X63278633Y-82083333D02*
X63545300Y-82316667D01*
X63545300Y-82316667D02*
X63545300Y-82216667D01*
X63545300Y-82216667D02*
X63578633Y-82150000D01*
X63578633Y-82150000D02*
X63611966Y-82116667D01*
X63611966Y-82116667D02*
X63678633Y-82083333D01*
X63678633Y-82083333D02*
X63845300Y-82083333D01*
X63845300Y-82083333D02*
X63911966Y-82116667D01*
X63911966Y-82116667D02*
X63945300Y-82150000D01*
X63945300Y-82150000D02*
X63978633Y-82216667D01*
X63978633Y-82216667D02*
X63978633Y-82416667D01*
X63978633Y-82416667D02*
X63945300Y-82483333D01*
X63945300Y-82483333D02*
X63911966Y-82516667D01*
X36291667Y-79435300D02*
X36291667Y-79768633D01*
X36058333Y-79068633D02*
X36291667Y-79435300D01*
X36291667Y-79435300D02*
X36525000Y-79068633D01*
X37125000Y-79768633D02*
X36725000Y-79768633D01*
X36925000Y-79768633D02*
X36925000Y-79068633D01*
X36925000Y-79068633D02*
X36858333Y-79168633D01*
X36858333Y-79168633D02*
X36791667Y-79235300D01*
X36791667Y-79235300D02*
X36725000Y-79268633D01*
X39194895Y-77342571D02*
X39194895Y-76847333D01*
X39194895Y-76847333D02*
X39499657Y-77113999D01*
X39499657Y-77113999D02*
X39499657Y-76999714D01*
X39499657Y-76999714D02*
X39537752Y-76923523D01*
X39537752Y-76923523D02*
X39575847Y-76885428D01*
X39575847Y-76885428D02*
X39652038Y-76847333D01*
X39652038Y-76847333D02*
X39842514Y-76847333D01*
X39842514Y-76847333D02*
X39918704Y-76885428D01*
X39918704Y-76885428D02*
X39956800Y-76923523D01*
X39956800Y-76923523D02*
X39994895Y-76999714D01*
X39994895Y-76999714D02*
X39994895Y-77228285D01*
X39994895Y-77228285D02*
X39956800Y-77304476D01*
X39956800Y-77304476D02*
X39918704Y-77342571D01*
X39271085Y-76542571D02*
X39232990Y-76504475D01*
X39232990Y-76504475D02*
X39194895Y-76428285D01*
X39194895Y-76428285D02*
X39194895Y-76237809D01*
X39194895Y-76237809D02*
X39232990Y-76161618D01*
X39232990Y-76161618D02*
X39271085Y-76123523D01*
X39271085Y-76123523D02*
X39347276Y-76085428D01*
X39347276Y-76085428D02*
X39423466Y-76085428D01*
X39423466Y-76085428D02*
X39537752Y-76123523D01*
X39537752Y-76123523D02*
X39994895Y-76580666D01*
X39994895Y-76580666D02*
X39994895Y-76085428D01*
X39918704Y-75742570D02*
X39956800Y-75704475D01*
X39956800Y-75704475D02*
X39994895Y-75742570D01*
X39994895Y-75742570D02*
X39956800Y-75780666D01*
X39956800Y-75780666D02*
X39918704Y-75742570D01*
X39918704Y-75742570D02*
X39994895Y-75742570D01*
X39194895Y-75437809D02*
X39194895Y-74904475D01*
X39194895Y-74904475D02*
X39994895Y-75247333D01*
X39194895Y-74256856D02*
X39194895Y-74409237D01*
X39194895Y-74409237D02*
X39232990Y-74485428D01*
X39232990Y-74485428D02*
X39271085Y-74523523D01*
X39271085Y-74523523D02*
X39385371Y-74599713D01*
X39385371Y-74599713D02*
X39537752Y-74637809D01*
X39537752Y-74637809D02*
X39842514Y-74637809D01*
X39842514Y-74637809D02*
X39918704Y-74599713D01*
X39918704Y-74599713D02*
X39956800Y-74561618D01*
X39956800Y-74561618D02*
X39994895Y-74485428D01*
X39994895Y-74485428D02*
X39994895Y-74333047D01*
X39994895Y-74333047D02*
X39956800Y-74256856D01*
X39956800Y-74256856D02*
X39918704Y-74218761D01*
X39918704Y-74218761D02*
X39842514Y-74180666D01*
X39842514Y-74180666D02*
X39652038Y-74180666D01*
X39652038Y-74180666D02*
X39575847Y-74218761D01*
X39575847Y-74218761D02*
X39537752Y-74256856D01*
X39537752Y-74256856D02*
X39499657Y-74333047D01*
X39499657Y-74333047D02*
X39499657Y-74485428D01*
X39499657Y-74485428D02*
X39537752Y-74561618D01*
X39537752Y-74561618D02*
X39575847Y-74599713D01*
X39575847Y-74599713D02*
X39652038Y-74637809D01*
X39537752Y-73723523D02*
X39499657Y-73799713D01*
X39499657Y-73799713D02*
X39461561Y-73837808D01*
X39461561Y-73837808D02*
X39385371Y-73875904D01*
X39385371Y-73875904D02*
X39347276Y-73875904D01*
X39347276Y-73875904D02*
X39271085Y-73837808D01*
X39271085Y-73837808D02*
X39232990Y-73799713D01*
X39232990Y-73799713D02*
X39194895Y-73723523D01*
X39194895Y-73723523D02*
X39194895Y-73571142D01*
X39194895Y-73571142D02*
X39232990Y-73494951D01*
X39232990Y-73494951D02*
X39271085Y-73456856D01*
X39271085Y-73456856D02*
X39347276Y-73418761D01*
X39347276Y-73418761D02*
X39385371Y-73418761D01*
X39385371Y-73418761D02*
X39461561Y-73456856D01*
X39461561Y-73456856D02*
X39499657Y-73494951D01*
X39499657Y-73494951D02*
X39537752Y-73571142D01*
X39537752Y-73571142D02*
X39537752Y-73723523D01*
X39537752Y-73723523D02*
X39575847Y-73799713D01*
X39575847Y-73799713D02*
X39613942Y-73837808D01*
X39613942Y-73837808D02*
X39690133Y-73875904D01*
X39690133Y-73875904D02*
X39842514Y-73875904D01*
X39842514Y-73875904D02*
X39918704Y-73837808D01*
X39918704Y-73837808D02*
X39956800Y-73799713D01*
X39956800Y-73799713D02*
X39994895Y-73723523D01*
X39994895Y-73723523D02*
X39994895Y-73571142D01*
X39994895Y-73571142D02*
X39956800Y-73494951D01*
X39956800Y-73494951D02*
X39918704Y-73456856D01*
X39918704Y-73456856D02*
X39842514Y-73418761D01*
X39842514Y-73418761D02*
X39690133Y-73418761D01*
X39690133Y-73418761D02*
X39613942Y-73456856D01*
X39613942Y-73456856D02*
X39575847Y-73494951D01*
X39575847Y-73494951D02*
X39537752Y-73571142D01*
X39994895Y-72466379D02*
X39194895Y-72466379D01*
X39994895Y-72009236D02*
X39537752Y-72352094D01*
X39194895Y-72009236D02*
X39652038Y-72466379D01*
X39994895Y-71666379D02*
X39194895Y-71666379D01*
X39575847Y-71666379D02*
X39575847Y-71209236D01*
X39994895Y-71209236D02*
X39194895Y-71209236D01*
X39461561Y-70904475D02*
X39461561Y-70485427D01*
X39461561Y-70485427D02*
X39994895Y-70904475D01*
X39994895Y-70904475D02*
X39994895Y-70485427D01*
X41833333Y-80018633D02*
X41600000Y-79685300D01*
X41433333Y-80018633D02*
X41433333Y-79318633D01*
X41433333Y-79318633D02*
X41700000Y-79318633D01*
X41700000Y-79318633D02*
X41766667Y-79351966D01*
X41766667Y-79351966D02*
X41800000Y-79385300D01*
X41800000Y-79385300D02*
X41833333Y-79451966D01*
X41833333Y-79451966D02*
X41833333Y-79551966D01*
X41833333Y-79551966D02*
X41800000Y-79618633D01*
X41800000Y-79618633D02*
X41766667Y-79651966D01*
X41766667Y-79651966D02*
X41700000Y-79685300D01*
X41700000Y-79685300D02*
X41433333Y-79685300D01*
X42500000Y-80018633D02*
X42100000Y-80018633D01*
X42300000Y-80018633D02*
X42300000Y-79318633D01*
X42300000Y-79318633D02*
X42233333Y-79418633D01*
X42233333Y-79418633D02*
X42166667Y-79485300D01*
X42166667Y-79485300D02*
X42100000Y-79518633D01*
X43522618Y-80064895D02*
X43065475Y-80064895D01*
X43294047Y-80064895D02*
X43294047Y-79264895D01*
X43294047Y-79264895D02*
X43217856Y-79379180D01*
X43217856Y-79379180D02*
X43141666Y-79455371D01*
X43141666Y-79455371D02*
X43065475Y-79493466D01*
X44017857Y-79264895D02*
X44094047Y-79264895D01*
X44094047Y-79264895D02*
X44170238Y-79302990D01*
X44170238Y-79302990D02*
X44208333Y-79341085D01*
X44208333Y-79341085D02*
X44246428Y-79417276D01*
X44246428Y-79417276D02*
X44284523Y-79569657D01*
X44284523Y-79569657D02*
X44284523Y-79760133D01*
X44284523Y-79760133D02*
X44246428Y-79912514D01*
X44246428Y-79912514D02*
X44208333Y-79988704D01*
X44208333Y-79988704D02*
X44170238Y-80026800D01*
X44170238Y-80026800D02*
X44094047Y-80064895D01*
X44094047Y-80064895D02*
X44017857Y-80064895D01*
X44017857Y-80064895D02*
X43941666Y-80026800D01*
X43941666Y-80026800D02*
X43903571Y-79988704D01*
X43903571Y-79988704D02*
X43865476Y-79912514D01*
X43865476Y-79912514D02*
X43827380Y-79760133D01*
X43827380Y-79760133D02*
X43827380Y-79569657D01*
X43827380Y-79569657D02*
X43865476Y-79417276D01*
X43865476Y-79417276D02*
X43903571Y-79341085D01*
X43903571Y-79341085D02*
X43941666Y-79302990D01*
X43941666Y-79302990D02*
X44017857Y-79264895D01*
X44627381Y-80064895D02*
X44627381Y-79264895D01*
X45084524Y-80064895D02*
X44741666Y-79607752D01*
X45084524Y-79264895D02*
X44627381Y-79722038D01*
X42041666Y-76493633D02*
X42041666Y-77060300D01*
X42041666Y-77060300D02*
X42075000Y-77126966D01*
X42075000Y-77126966D02*
X42108333Y-77160300D01*
X42108333Y-77160300D02*
X42175000Y-77193633D01*
X42175000Y-77193633D02*
X42308333Y-77193633D01*
X42308333Y-77193633D02*
X42375000Y-77160300D01*
X42375000Y-77160300D02*
X42408333Y-77126966D01*
X42408333Y-77126966D02*
X42441666Y-77060300D01*
X42441666Y-77060300D02*
X42441666Y-76493633D01*
X42741666Y-76560300D02*
X42774999Y-76526966D01*
X42774999Y-76526966D02*
X42841666Y-76493633D01*
X42841666Y-76493633D02*
X43008333Y-76493633D01*
X43008333Y-76493633D02*
X43074999Y-76526966D01*
X43074999Y-76526966D02*
X43108333Y-76560300D01*
X43108333Y-76560300D02*
X43141666Y-76626966D01*
X43141666Y-76626966D02*
X43141666Y-76693633D01*
X43141666Y-76693633D02*
X43108333Y-76793633D01*
X43108333Y-76793633D02*
X42708333Y-77193633D01*
X42708333Y-77193633D02*
X43141666Y-77193633D01*
X44049999Y-77214895D02*
X44049999Y-76414895D01*
X44049999Y-76414895D02*
X44240475Y-76414895D01*
X44240475Y-76414895D02*
X44354761Y-76452990D01*
X44354761Y-76452990D02*
X44430951Y-76529180D01*
X44430951Y-76529180D02*
X44469046Y-76605371D01*
X44469046Y-76605371D02*
X44507142Y-76757752D01*
X44507142Y-76757752D02*
X44507142Y-76872038D01*
X44507142Y-76872038D02*
X44469046Y-77024419D01*
X44469046Y-77024419D02*
X44430951Y-77100609D01*
X44430951Y-77100609D02*
X44354761Y-77176800D01*
X44354761Y-77176800D02*
X44240475Y-77214895D01*
X44240475Y-77214895D02*
X44049999Y-77214895D01*
X44811903Y-77176800D02*
X44926189Y-77214895D01*
X44926189Y-77214895D02*
X45116665Y-77214895D01*
X45116665Y-77214895D02*
X45192856Y-77176800D01*
X45192856Y-77176800D02*
X45230951Y-77138704D01*
X45230951Y-77138704D02*
X45269046Y-77062514D01*
X45269046Y-77062514D02*
X45269046Y-76986323D01*
X45269046Y-76986323D02*
X45230951Y-76910133D01*
X45230951Y-76910133D02*
X45192856Y-76872038D01*
X45192856Y-76872038D02*
X45116665Y-76833942D01*
X45116665Y-76833942D02*
X44964284Y-76795847D01*
X44964284Y-76795847D02*
X44888094Y-76757752D01*
X44888094Y-76757752D02*
X44849999Y-76719657D01*
X44849999Y-76719657D02*
X44811903Y-76643466D01*
X44811903Y-76643466D02*
X44811903Y-76567276D01*
X44811903Y-76567276D02*
X44849999Y-76491085D01*
X44849999Y-76491085D02*
X44888094Y-76452990D01*
X44888094Y-76452990D02*
X44964284Y-76414895D01*
X44964284Y-76414895D02*
X45154761Y-76414895D01*
X45154761Y-76414895D02*
X45269046Y-76452990D01*
X46030951Y-77214895D02*
X45573808Y-77214895D01*
X45802380Y-77214895D02*
X45802380Y-76414895D01*
X45802380Y-76414895D02*
X45726189Y-76529180D01*
X45726189Y-76529180D02*
X45649999Y-76605371D01*
X45649999Y-76605371D02*
X45573808Y-76643466D01*
X46297618Y-76414895D02*
X46792856Y-76414895D01*
X46792856Y-76414895D02*
X46526190Y-76719657D01*
X46526190Y-76719657D02*
X46640475Y-76719657D01*
X46640475Y-76719657D02*
X46716666Y-76757752D01*
X46716666Y-76757752D02*
X46754761Y-76795847D01*
X46754761Y-76795847D02*
X46792856Y-76872038D01*
X46792856Y-76872038D02*
X46792856Y-77062514D01*
X46792856Y-77062514D02*
X46754761Y-77138704D01*
X46754761Y-77138704D02*
X46716666Y-77176800D01*
X46716666Y-77176800D02*
X46640475Y-77214895D01*
X46640475Y-77214895D02*
X46411904Y-77214895D01*
X46411904Y-77214895D02*
X46335713Y-77176800D01*
X46335713Y-77176800D02*
X46297618Y-77138704D01*
X47059523Y-76414895D02*
X47554761Y-76414895D01*
X47554761Y-76414895D02*
X47288095Y-76719657D01*
X47288095Y-76719657D02*
X47402380Y-76719657D01*
X47402380Y-76719657D02*
X47478571Y-76757752D01*
X47478571Y-76757752D02*
X47516666Y-76795847D01*
X47516666Y-76795847D02*
X47554761Y-76872038D01*
X47554761Y-76872038D02*
X47554761Y-77062514D01*
X47554761Y-77062514D02*
X47516666Y-77138704D01*
X47516666Y-77138704D02*
X47478571Y-77176800D01*
X47478571Y-77176800D02*
X47402380Y-77214895D01*
X47402380Y-77214895D02*
X47173809Y-77214895D01*
X47173809Y-77214895D02*
X47097618Y-77176800D01*
X47097618Y-77176800D02*
X47059523Y-77138704D01*
X47821428Y-76414895D02*
X48354762Y-76414895D01*
X48354762Y-76414895D02*
X48011904Y-77214895D01*
X48621428Y-77176800D02*
X48735714Y-77214895D01*
X48735714Y-77214895D02*
X48926190Y-77214895D01*
X48926190Y-77214895D02*
X49002381Y-77176800D01*
X49002381Y-77176800D02*
X49040476Y-77138704D01*
X49040476Y-77138704D02*
X49078571Y-77062514D01*
X49078571Y-77062514D02*
X49078571Y-76986323D01*
X49078571Y-76986323D02*
X49040476Y-76910133D01*
X49040476Y-76910133D02*
X49002381Y-76872038D01*
X49002381Y-76872038D02*
X48926190Y-76833942D01*
X48926190Y-76833942D02*
X48773809Y-76795847D01*
X48773809Y-76795847D02*
X48697619Y-76757752D01*
X48697619Y-76757752D02*
X48659524Y-76719657D01*
X48659524Y-76719657D02*
X48621428Y-76643466D01*
X48621428Y-76643466D02*
X48621428Y-76567276D01*
X48621428Y-76567276D02*
X48659524Y-76491085D01*
X48659524Y-76491085D02*
X48697619Y-76452990D01*
X48697619Y-76452990D02*
X48773809Y-76414895D01*
X48773809Y-76414895D02*
X48964286Y-76414895D01*
X48964286Y-76414895D02*
X49078571Y-76452990D01*
X49230953Y-77291085D02*
X49840476Y-77291085D01*
X46533333Y-80143633D02*
X46300000Y-79810300D01*
X46133333Y-80143633D02*
X46133333Y-79443633D01*
X46133333Y-79443633D02*
X46400000Y-79443633D01*
X46400000Y-79443633D02*
X46466667Y-79476966D01*
X46466667Y-79476966D02*
X46500000Y-79510300D01*
X46500000Y-79510300D02*
X46533333Y-79576966D01*
X46533333Y-79576966D02*
X46533333Y-79676966D01*
X46533333Y-79676966D02*
X46500000Y-79743633D01*
X46500000Y-79743633D02*
X46466667Y-79776966D01*
X46466667Y-79776966D02*
X46400000Y-79810300D01*
X46400000Y-79810300D02*
X46133333Y-79810300D01*
X46800000Y-79510300D02*
X46833333Y-79476966D01*
X46833333Y-79476966D02*
X46900000Y-79443633D01*
X46900000Y-79443633D02*
X47066667Y-79443633D01*
X47066667Y-79443633D02*
X47133333Y-79476966D01*
X47133333Y-79476966D02*
X47166667Y-79510300D01*
X47166667Y-79510300D02*
X47200000Y-79576966D01*
X47200000Y-79576966D02*
X47200000Y-79643633D01*
X47200000Y-79643633D02*
X47166667Y-79743633D01*
X47166667Y-79743633D02*
X46766667Y-80143633D01*
X46766667Y-80143633D02*
X47200000Y-80143633D01*
X48272618Y-80139895D02*
X47815475Y-80139895D01*
X48044047Y-80139895D02*
X48044047Y-79339895D01*
X48044047Y-79339895D02*
X47967856Y-79454180D01*
X47967856Y-79454180D02*
X47891666Y-79530371D01*
X47891666Y-79530371D02*
X47815475Y-79568466D01*
X48767857Y-79339895D02*
X48844047Y-79339895D01*
X48844047Y-79339895D02*
X48920238Y-79377990D01*
X48920238Y-79377990D02*
X48958333Y-79416085D01*
X48958333Y-79416085D02*
X48996428Y-79492276D01*
X48996428Y-79492276D02*
X49034523Y-79644657D01*
X49034523Y-79644657D02*
X49034523Y-79835133D01*
X49034523Y-79835133D02*
X48996428Y-79987514D01*
X48996428Y-79987514D02*
X48958333Y-80063704D01*
X48958333Y-80063704D02*
X48920238Y-80101800D01*
X48920238Y-80101800D02*
X48844047Y-80139895D01*
X48844047Y-80139895D02*
X48767857Y-80139895D01*
X48767857Y-80139895D02*
X48691666Y-80101800D01*
X48691666Y-80101800D02*
X48653571Y-80063704D01*
X48653571Y-80063704D02*
X48615476Y-79987514D01*
X48615476Y-79987514D02*
X48577380Y-79835133D01*
X48577380Y-79835133D02*
X48577380Y-79644657D01*
X48577380Y-79644657D02*
X48615476Y-79492276D01*
X48615476Y-79492276D02*
X48653571Y-79416085D01*
X48653571Y-79416085D02*
X48691666Y-79377990D01*
X48691666Y-79377990D02*
X48767857Y-79339895D01*
X49377381Y-80139895D02*
X49377381Y-79339895D01*
X49834524Y-80139895D02*
X49491666Y-79682752D01*
X49834524Y-79339895D02*
X49377381Y-79797038D01*
X45316666Y-60043633D02*
X45316666Y-60610300D01*
X45316666Y-60610300D02*
X45350000Y-60676966D01*
X45350000Y-60676966D02*
X45383333Y-60710300D01*
X45383333Y-60710300D02*
X45450000Y-60743633D01*
X45450000Y-60743633D02*
X45583333Y-60743633D01*
X45583333Y-60743633D02*
X45650000Y-60710300D01*
X45650000Y-60710300D02*
X45683333Y-60676966D01*
X45683333Y-60676966D02*
X45716666Y-60610300D01*
X45716666Y-60610300D02*
X45716666Y-60043633D01*
X45983333Y-60043633D02*
X46416666Y-60043633D01*
X46416666Y-60043633D02*
X46183333Y-60310300D01*
X46183333Y-60310300D02*
X46283333Y-60310300D01*
X46283333Y-60310300D02*
X46349999Y-60343633D01*
X46349999Y-60343633D02*
X46383333Y-60376966D01*
X46383333Y-60376966D02*
X46416666Y-60443633D01*
X46416666Y-60443633D02*
X46416666Y-60610300D01*
X46416666Y-60610300D02*
X46383333Y-60676966D01*
X46383333Y-60676966D02*
X46349999Y-60710300D01*
X46349999Y-60710300D02*
X46283333Y-60743633D01*
X46283333Y-60743633D02*
X46083333Y-60743633D01*
X46083333Y-60743633D02*
X46016666Y-60710300D01*
X46016666Y-60710300D02*
X45983333Y-60676966D01*
X43117856Y-57216085D02*
X43155952Y-57177990D01*
X43155952Y-57177990D02*
X43232142Y-57139895D01*
X43232142Y-57139895D02*
X43422618Y-57139895D01*
X43422618Y-57139895D02*
X43498809Y-57177990D01*
X43498809Y-57177990D02*
X43536904Y-57216085D01*
X43536904Y-57216085D02*
X43574999Y-57292276D01*
X43574999Y-57292276D02*
X43574999Y-57368466D01*
X43574999Y-57368466D02*
X43536904Y-57482752D01*
X43536904Y-57482752D02*
X43079761Y-57939895D01*
X43079761Y-57939895D02*
X43574999Y-57939895D01*
X44260714Y-57406561D02*
X44260714Y-57939895D01*
X44070238Y-57101800D02*
X43879761Y-57673228D01*
X43879761Y-57673228D02*
X44375000Y-57673228D01*
X45060714Y-57939895D02*
X44679762Y-57939895D01*
X44679762Y-57939895D02*
X44679762Y-57139895D01*
X45784524Y-57863704D02*
X45746428Y-57901800D01*
X45746428Y-57901800D02*
X45632143Y-57939895D01*
X45632143Y-57939895D02*
X45555952Y-57939895D01*
X45555952Y-57939895D02*
X45441666Y-57901800D01*
X45441666Y-57901800D02*
X45365476Y-57825609D01*
X45365476Y-57825609D02*
X45327381Y-57749419D01*
X45327381Y-57749419D02*
X45289285Y-57597038D01*
X45289285Y-57597038D02*
X45289285Y-57482752D01*
X45289285Y-57482752D02*
X45327381Y-57330371D01*
X45327381Y-57330371D02*
X45365476Y-57254180D01*
X45365476Y-57254180D02*
X45441666Y-57177990D01*
X45441666Y-57177990D02*
X45555952Y-57139895D01*
X45555952Y-57139895D02*
X45632143Y-57139895D01*
X45632143Y-57139895D02*
X45746428Y-57177990D01*
X45746428Y-57177990D02*
X45784524Y-57216085D01*
X46546428Y-57939895D02*
X46089285Y-57939895D01*
X46317857Y-57939895D02*
X46317857Y-57139895D01*
X46317857Y-57139895D02*
X46241666Y-57254180D01*
X46241666Y-57254180D02*
X46165476Y-57330371D01*
X46165476Y-57330371D02*
X46089285Y-57368466D01*
X47041667Y-57139895D02*
X47117857Y-57139895D01*
X47117857Y-57139895D02*
X47194048Y-57177990D01*
X47194048Y-57177990D02*
X47232143Y-57216085D01*
X47232143Y-57216085D02*
X47270238Y-57292276D01*
X47270238Y-57292276D02*
X47308333Y-57444657D01*
X47308333Y-57444657D02*
X47308333Y-57635133D01*
X47308333Y-57635133D02*
X47270238Y-57787514D01*
X47270238Y-57787514D02*
X47232143Y-57863704D01*
X47232143Y-57863704D02*
X47194048Y-57901800D01*
X47194048Y-57901800D02*
X47117857Y-57939895D01*
X47117857Y-57939895D02*
X47041667Y-57939895D01*
X47041667Y-57939895D02*
X46965476Y-57901800D01*
X46965476Y-57901800D02*
X46927381Y-57863704D01*
X46927381Y-57863704D02*
X46889286Y-57787514D01*
X46889286Y-57787514D02*
X46851190Y-57635133D01*
X46851190Y-57635133D02*
X46851190Y-57444657D01*
X46851190Y-57444657D02*
X46889286Y-57292276D01*
X46889286Y-57292276D02*
X46927381Y-57216085D01*
X46927381Y-57216085D02*
X46965476Y-57177990D01*
X46965476Y-57177990D02*
X47041667Y-57139895D01*
X47613095Y-57216085D02*
X47651191Y-57177990D01*
X47651191Y-57177990D02*
X47727381Y-57139895D01*
X47727381Y-57139895D02*
X47917857Y-57139895D01*
X47917857Y-57139895D02*
X47994048Y-57177990D01*
X47994048Y-57177990D02*
X48032143Y-57216085D01*
X48032143Y-57216085D02*
X48070238Y-57292276D01*
X48070238Y-57292276D02*
X48070238Y-57368466D01*
X48070238Y-57368466D02*
X48032143Y-57482752D01*
X48032143Y-57482752D02*
X47575000Y-57939895D01*
X47575000Y-57939895D02*
X48070238Y-57939895D01*
X48794048Y-57139895D02*
X48413096Y-57139895D01*
X48413096Y-57139895D02*
X48375000Y-57520847D01*
X48375000Y-57520847D02*
X48413096Y-57482752D01*
X48413096Y-57482752D02*
X48489286Y-57444657D01*
X48489286Y-57444657D02*
X48679762Y-57444657D01*
X48679762Y-57444657D02*
X48755953Y-57482752D01*
X48755953Y-57482752D02*
X48794048Y-57520847D01*
X48794048Y-57520847D02*
X48832143Y-57597038D01*
X48832143Y-57597038D02*
X48832143Y-57787514D01*
X48832143Y-57787514D02*
X48794048Y-57863704D01*
X48794048Y-57863704D02*
X48755953Y-57901800D01*
X48755953Y-57901800D02*
X48679762Y-57939895D01*
X48679762Y-57939895D02*
X48489286Y-57939895D01*
X48489286Y-57939895D02*
X48413096Y-57901800D01*
X48413096Y-57901800D02*
X48375000Y-57863704D01*
X70333333Y-60343633D02*
X70333333Y-59643633D01*
X70333333Y-59643633D02*
X70500000Y-59643633D01*
X70500000Y-59643633D02*
X70600000Y-59676966D01*
X70600000Y-59676966D02*
X70666667Y-59743633D01*
X70666667Y-59743633D02*
X70700000Y-59810300D01*
X70700000Y-59810300D02*
X70733333Y-59943633D01*
X70733333Y-59943633D02*
X70733333Y-60043633D01*
X70733333Y-60043633D02*
X70700000Y-60176966D01*
X70700000Y-60176966D02*
X70666667Y-60243633D01*
X70666667Y-60243633D02*
X70600000Y-60310300D01*
X70600000Y-60310300D02*
X70500000Y-60343633D01*
X70500000Y-60343633D02*
X70333333Y-60343633D01*
X71400000Y-60343633D02*
X71000000Y-60343633D01*
X71200000Y-60343633D02*
X71200000Y-59643633D01*
X71200000Y-59643633D02*
X71133333Y-59743633D01*
X71133333Y-59743633D02*
X71066667Y-59810300D01*
X71066667Y-59810300D02*
X71000000Y-59843633D01*
X72485714Y-60364895D02*
X72104762Y-60364895D01*
X72104762Y-60364895D02*
X72104762Y-59564895D01*
X72752381Y-59945847D02*
X73019047Y-59945847D01*
X73133333Y-60364895D02*
X72752381Y-60364895D01*
X72752381Y-60364895D02*
X72752381Y-59564895D01*
X72752381Y-59564895D02*
X73133333Y-59564895D01*
X73476191Y-60364895D02*
X73476191Y-59564895D01*
X73476191Y-59564895D02*
X73666667Y-59564895D01*
X73666667Y-59564895D02*
X73780953Y-59602990D01*
X73780953Y-59602990D02*
X73857143Y-59679180D01*
X73857143Y-59679180D02*
X73895238Y-59755371D01*
X73895238Y-59755371D02*
X73933334Y-59907752D01*
X73933334Y-59907752D02*
X73933334Y-60022038D01*
X73933334Y-60022038D02*
X73895238Y-60174419D01*
X73895238Y-60174419D02*
X73857143Y-60250609D01*
X73857143Y-60250609D02*
X73780953Y-60326800D01*
X73780953Y-60326800D02*
X73666667Y-60364895D01*
X73666667Y-60364895D02*
X73476191Y-60364895D01*
X35172856Y-59770847D02*
X35287142Y-59808942D01*
X35287142Y-59808942D02*
X35325237Y-59847038D01*
X35325237Y-59847038D02*
X35363333Y-59923228D01*
X35363333Y-59923228D02*
X35363333Y-60037514D01*
X35363333Y-60037514D02*
X35325237Y-60113704D01*
X35325237Y-60113704D02*
X35287142Y-60151800D01*
X35287142Y-60151800D02*
X35210952Y-60189895D01*
X35210952Y-60189895D02*
X34906190Y-60189895D01*
X34906190Y-60189895D02*
X34906190Y-59389895D01*
X34906190Y-59389895D02*
X35172856Y-59389895D01*
X35172856Y-59389895D02*
X35249047Y-59427990D01*
X35249047Y-59427990D02*
X35287142Y-59466085D01*
X35287142Y-59466085D02*
X35325237Y-59542276D01*
X35325237Y-59542276D02*
X35325237Y-59618466D01*
X35325237Y-59618466D02*
X35287142Y-59694657D01*
X35287142Y-59694657D02*
X35249047Y-59732752D01*
X35249047Y-59732752D02*
X35172856Y-59770847D01*
X35172856Y-59770847D02*
X34906190Y-59770847D01*
X36049047Y-60189895D02*
X36049047Y-59770847D01*
X36049047Y-59770847D02*
X36010952Y-59694657D01*
X36010952Y-59694657D02*
X35934761Y-59656561D01*
X35934761Y-59656561D02*
X35782380Y-59656561D01*
X35782380Y-59656561D02*
X35706190Y-59694657D01*
X36049047Y-60151800D02*
X35972856Y-60189895D01*
X35972856Y-60189895D02*
X35782380Y-60189895D01*
X35782380Y-60189895D02*
X35706190Y-60151800D01*
X35706190Y-60151800D02*
X35668094Y-60075609D01*
X35668094Y-60075609D02*
X35668094Y-59999419D01*
X35668094Y-59999419D02*
X35706190Y-59923228D01*
X35706190Y-59923228D02*
X35782380Y-59885133D01*
X35782380Y-59885133D02*
X35972856Y-59885133D01*
X35972856Y-59885133D02*
X36049047Y-59847038D01*
X36315714Y-59656561D02*
X36620476Y-59656561D01*
X36430000Y-59389895D02*
X36430000Y-60075609D01*
X36430000Y-60075609D02*
X36468095Y-60151800D01*
X36468095Y-60151800D02*
X36544285Y-60189895D01*
X36544285Y-60189895D02*
X36620476Y-60189895D01*
X36772857Y-59656561D02*
X37077619Y-59656561D01*
X36887143Y-59389895D02*
X36887143Y-60075609D01*
X36887143Y-60075609D02*
X36925238Y-60151800D01*
X36925238Y-60151800D02*
X37001428Y-60189895D01*
X37001428Y-60189895D02*
X37077619Y-60189895D01*
X37649048Y-60151800D02*
X37572857Y-60189895D01*
X37572857Y-60189895D02*
X37420476Y-60189895D01*
X37420476Y-60189895D02*
X37344286Y-60151800D01*
X37344286Y-60151800D02*
X37306190Y-60075609D01*
X37306190Y-60075609D02*
X37306190Y-59770847D01*
X37306190Y-59770847D02*
X37344286Y-59694657D01*
X37344286Y-59694657D02*
X37420476Y-59656561D01*
X37420476Y-59656561D02*
X37572857Y-59656561D01*
X37572857Y-59656561D02*
X37649048Y-59694657D01*
X37649048Y-59694657D02*
X37687143Y-59770847D01*
X37687143Y-59770847D02*
X37687143Y-59847038D01*
X37687143Y-59847038D02*
X37306190Y-59923228D01*
X38030000Y-60189895D02*
X38030000Y-59656561D01*
X38030000Y-59808942D02*
X38068095Y-59732752D01*
X38068095Y-59732752D02*
X38106190Y-59694657D01*
X38106190Y-59694657D02*
X38182381Y-59656561D01*
X38182381Y-59656561D02*
X38258571Y-59656561D01*
X38449047Y-59656561D02*
X38639523Y-60189895D01*
X38830000Y-59656561D02*
X38639523Y-60189895D01*
X38639523Y-60189895D02*
X38563333Y-60380371D01*
X38563333Y-60380371D02*
X38525238Y-60418466D01*
X38525238Y-60418466D02*
X38449047Y-60456561D01*
X79816666Y-80193633D02*
X79816666Y-80693633D01*
X79816666Y-80693633D02*
X79783333Y-80793633D01*
X79783333Y-80793633D02*
X79716666Y-80860300D01*
X79716666Y-80860300D02*
X79616666Y-80893633D01*
X79616666Y-80893633D02*
X79550000Y-80893633D01*
X80516666Y-80893633D02*
X80116666Y-80893633D01*
X80316666Y-80893633D02*
X80316666Y-80193633D01*
X80316666Y-80193633D02*
X80249999Y-80293633D01*
X80249999Y-80293633D02*
X80183333Y-80360300D01*
X80183333Y-80360300D02*
X80116666Y-80393633D01*
X53591667Y-78935300D02*
X53591667Y-79268633D01*
X53358333Y-78568633D02*
X53591667Y-78935300D01*
X53591667Y-78935300D02*
X53825000Y-78568633D01*
X54025000Y-78635300D02*
X54058333Y-78601966D01*
X54058333Y-78601966D02*
X54125000Y-78568633D01*
X54125000Y-78568633D02*
X54291667Y-78568633D01*
X54291667Y-78568633D02*
X54358333Y-78601966D01*
X54358333Y-78601966D02*
X54391667Y-78635300D01*
X54391667Y-78635300D02*
X54425000Y-78701966D01*
X54425000Y-78701966D02*
X54425000Y-78768633D01*
X54425000Y-78768633D02*
X54391667Y-78868633D01*
X54391667Y-78868633D02*
X53991667Y-79268633D01*
X53991667Y-79268633D02*
X54425000Y-79268633D01*
X56967856Y-79389895D02*
X56510713Y-79389895D01*
X56739285Y-79389895D02*
X56739285Y-78589895D01*
X56739285Y-78589895D02*
X56663094Y-78704180D01*
X56663094Y-78704180D02*
X56586904Y-78780371D01*
X56586904Y-78780371D02*
X56510713Y-78818466D01*
X57653571Y-78589895D02*
X57501190Y-78589895D01*
X57501190Y-78589895D02*
X57424999Y-78627990D01*
X57424999Y-78627990D02*
X57386904Y-78666085D01*
X57386904Y-78666085D02*
X57310714Y-78780371D01*
X57310714Y-78780371D02*
X57272618Y-78932752D01*
X57272618Y-78932752D02*
X57272618Y-79237514D01*
X57272618Y-79237514D02*
X57310714Y-79313704D01*
X57310714Y-79313704D02*
X57348809Y-79351800D01*
X57348809Y-79351800D02*
X57424999Y-79389895D01*
X57424999Y-79389895D02*
X57577380Y-79389895D01*
X57577380Y-79389895D02*
X57653571Y-79351800D01*
X57653571Y-79351800D02*
X57691666Y-79313704D01*
X57691666Y-79313704D02*
X57729761Y-79237514D01*
X57729761Y-79237514D02*
X57729761Y-79047038D01*
X57729761Y-79047038D02*
X57691666Y-78970847D01*
X57691666Y-78970847D02*
X57653571Y-78932752D01*
X57653571Y-78932752D02*
X57577380Y-78894657D01*
X57577380Y-78894657D02*
X57424999Y-78894657D01*
X57424999Y-78894657D02*
X57348809Y-78932752D01*
X57348809Y-78932752D02*
X57310714Y-78970847D01*
X57310714Y-78970847D02*
X57272618Y-79047038D01*
X58682143Y-79389895D02*
X58682143Y-78589895D01*
X58682143Y-78589895D02*
X58948809Y-79161323D01*
X58948809Y-79161323D02*
X59215476Y-78589895D01*
X59215476Y-78589895D02*
X59215476Y-79389895D01*
X59596429Y-79389895D02*
X59596429Y-78589895D01*
X59596429Y-78970847D02*
X60053572Y-78970847D01*
X60053572Y-79389895D02*
X60053572Y-78589895D01*
X60358333Y-78856561D02*
X60777381Y-78856561D01*
X60777381Y-78856561D02*
X60358333Y-79389895D01*
X60358333Y-79389895D02*
X60777381Y-79389895D01*
X60458333Y-60376966D02*
X60425000Y-60410300D01*
X60425000Y-60410300D02*
X60325000Y-60443633D01*
X60325000Y-60443633D02*
X60258333Y-60443633D01*
X60258333Y-60443633D02*
X60158333Y-60410300D01*
X60158333Y-60410300D02*
X60091667Y-60343633D01*
X60091667Y-60343633D02*
X60058333Y-60276966D01*
X60058333Y-60276966D02*
X60025000Y-60143633D01*
X60025000Y-60143633D02*
X60025000Y-60043633D01*
X60025000Y-60043633D02*
X60058333Y-59910300D01*
X60058333Y-59910300D02*
X60091667Y-59843633D01*
X60091667Y-59843633D02*
X60158333Y-59776966D01*
X60158333Y-59776966D02*
X60258333Y-59743633D01*
X60258333Y-59743633D02*
X60325000Y-59743633D01*
X60325000Y-59743633D02*
X60425000Y-59776966D01*
X60425000Y-59776966D02*
X60458333Y-59810300D01*
X61091667Y-59743633D02*
X60758333Y-59743633D01*
X60758333Y-59743633D02*
X60725000Y-60076966D01*
X60725000Y-60076966D02*
X60758333Y-60043633D01*
X60758333Y-60043633D02*
X60825000Y-60010300D01*
X60825000Y-60010300D02*
X60991667Y-60010300D01*
X60991667Y-60010300D02*
X61058333Y-60043633D01*
X61058333Y-60043633D02*
X61091667Y-60076966D01*
X61091667Y-60076966D02*
X61125000Y-60143633D01*
X61125000Y-60143633D02*
X61125000Y-60310300D01*
X61125000Y-60310300D02*
X61091667Y-60376966D01*
X61091667Y-60376966D02*
X61058333Y-60410300D01*
X61058333Y-60410300D02*
X60991667Y-60443633D01*
X60991667Y-60443633D02*
X60825000Y-60443633D01*
X60825000Y-60443633D02*
X60758333Y-60410300D01*
X60758333Y-60410300D02*
X60725000Y-60376966D01*
X62136904Y-60589895D02*
X61679761Y-60589895D01*
X61908333Y-60589895D02*
X61908333Y-59789895D01*
X61908333Y-59789895D02*
X61832142Y-59904180D01*
X61832142Y-59904180D02*
X61755952Y-59980371D01*
X61755952Y-59980371D02*
X61679761Y-60018466D01*
X62632143Y-59789895D02*
X62708333Y-59789895D01*
X62708333Y-59789895D02*
X62784524Y-59827990D01*
X62784524Y-59827990D02*
X62822619Y-59866085D01*
X62822619Y-59866085D02*
X62860714Y-59942276D01*
X62860714Y-59942276D02*
X62898809Y-60094657D01*
X62898809Y-60094657D02*
X62898809Y-60285133D01*
X62898809Y-60285133D02*
X62860714Y-60437514D01*
X62860714Y-60437514D02*
X62822619Y-60513704D01*
X62822619Y-60513704D02*
X62784524Y-60551800D01*
X62784524Y-60551800D02*
X62708333Y-60589895D01*
X62708333Y-60589895D02*
X62632143Y-60589895D01*
X62632143Y-60589895D02*
X62555952Y-60551800D01*
X62555952Y-60551800D02*
X62517857Y-60513704D01*
X62517857Y-60513704D02*
X62479762Y-60437514D01*
X62479762Y-60437514D02*
X62441666Y-60285133D01*
X62441666Y-60285133D02*
X62441666Y-60094657D01*
X62441666Y-60094657D02*
X62479762Y-59942276D01*
X62479762Y-59942276D02*
X62517857Y-59866085D01*
X62517857Y-59866085D02*
X62555952Y-59827990D01*
X62555952Y-59827990D02*
X62632143Y-59789895D01*
X63394048Y-59789895D02*
X63470238Y-59789895D01*
X63470238Y-59789895D02*
X63546429Y-59827990D01*
X63546429Y-59827990D02*
X63584524Y-59866085D01*
X63584524Y-59866085D02*
X63622619Y-59942276D01*
X63622619Y-59942276D02*
X63660714Y-60094657D01*
X63660714Y-60094657D02*
X63660714Y-60285133D01*
X63660714Y-60285133D02*
X63622619Y-60437514D01*
X63622619Y-60437514D02*
X63584524Y-60513704D01*
X63584524Y-60513704D02*
X63546429Y-60551800D01*
X63546429Y-60551800D02*
X63470238Y-60589895D01*
X63470238Y-60589895D02*
X63394048Y-60589895D01*
X63394048Y-60589895D02*
X63317857Y-60551800D01*
X63317857Y-60551800D02*
X63279762Y-60513704D01*
X63279762Y-60513704D02*
X63241667Y-60437514D01*
X63241667Y-60437514D02*
X63203571Y-60285133D01*
X63203571Y-60285133D02*
X63203571Y-60094657D01*
X63203571Y-60094657D02*
X63241667Y-59942276D01*
X63241667Y-59942276D02*
X63279762Y-59866085D01*
X63279762Y-59866085D02*
X63317857Y-59827990D01*
X63317857Y-59827990D02*
X63394048Y-59789895D01*
X64003572Y-60056561D02*
X64003572Y-60589895D01*
X64003572Y-60132752D02*
X64041667Y-60094657D01*
X64041667Y-60094657D02*
X64117857Y-60056561D01*
X64117857Y-60056561D02*
X64232143Y-60056561D01*
X64232143Y-60056561D02*
X64308334Y-60094657D01*
X64308334Y-60094657D02*
X64346429Y-60170847D01*
X64346429Y-60170847D02*
X64346429Y-60589895D01*
X64994048Y-60170847D02*
X64727382Y-60170847D01*
X64727382Y-60589895D02*
X64727382Y-59789895D01*
X64727382Y-59789895D02*
X65108334Y-59789895D01*
X71108333Y-64168633D02*
X70875000Y-63835300D01*
X70708333Y-64168633D02*
X70708333Y-63468633D01*
X70708333Y-63468633D02*
X70975000Y-63468633D01*
X70975000Y-63468633D02*
X71041667Y-63501966D01*
X71041667Y-63501966D02*
X71075000Y-63535300D01*
X71075000Y-63535300D02*
X71108333Y-63601966D01*
X71108333Y-63601966D02*
X71108333Y-63701966D01*
X71108333Y-63701966D02*
X71075000Y-63768633D01*
X71075000Y-63768633D02*
X71041667Y-63801966D01*
X71041667Y-63801966D02*
X70975000Y-63835300D01*
X70975000Y-63835300D02*
X70708333Y-63835300D01*
X71741667Y-63468633D02*
X71408333Y-63468633D01*
X71408333Y-63468633D02*
X71375000Y-63801966D01*
X71375000Y-63801966D02*
X71408333Y-63768633D01*
X71408333Y-63768633D02*
X71475000Y-63735300D01*
X71475000Y-63735300D02*
X71641667Y-63735300D01*
X71641667Y-63735300D02*
X71708333Y-63768633D01*
X71708333Y-63768633D02*
X71741667Y-63801966D01*
X71741667Y-63801966D02*
X71775000Y-63868633D01*
X71775000Y-63868633D02*
X71775000Y-64035300D01*
X71775000Y-64035300D02*
X71741667Y-64101966D01*
X71741667Y-64101966D02*
X71708333Y-64135300D01*
X71708333Y-64135300D02*
X71641667Y-64168633D01*
X71641667Y-64168633D02*
X71475000Y-64168633D01*
X71475000Y-64168633D02*
X71408333Y-64135300D01*
X71408333Y-64135300D02*
X71375000Y-64101966D01*
X72346428Y-63414895D02*
X72841666Y-63414895D01*
X72841666Y-63414895D02*
X72575000Y-63719657D01*
X72575000Y-63719657D02*
X72689285Y-63719657D01*
X72689285Y-63719657D02*
X72765476Y-63757752D01*
X72765476Y-63757752D02*
X72803571Y-63795847D01*
X72803571Y-63795847D02*
X72841666Y-63872038D01*
X72841666Y-63872038D02*
X72841666Y-64062514D01*
X72841666Y-64062514D02*
X72803571Y-64138704D01*
X72803571Y-64138704D02*
X72765476Y-64176800D01*
X72765476Y-64176800D02*
X72689285Y-64214895D01*
X72689285Y-64214895D02*
X72460714Y-64214895D01*
X72460714Y-64214895D02*
X72384523Y-64176800D01*
X72384523Y-64176800D02*
X72346428Y-64138704D01*
X73108333Y-63414895D02*
X73603571Y-63414895D01*
X73603571Y-63414895D02*
X73336905Y-63719657D01*
X73336905Y-63719657D02*
X73451190Y-63719657D01*
X73451190Y-63719657D02*
X73527381Y-63757752D01*
X73527381Y-63757752D02*
X73565476Y-63795847D01*
X73565476Y-63795847D02*
X73603571Y-63872038D01*
X73603571Y-63872038D02*
X73603571Y-64062514D01*
X73603571Y-64062514D02*
X73565476Y-64138704D01*
X73565476Y-64138704D02*
X73527381Y-64176800D01*
X73527381Y-64176800D02*
X73451190Y-64214895D01*
X73451190Y-64214895D02*
X73222619Y-64214895D01*
X73222619Y-64214895D02*
X73146428Y-64176800D01*
X73146428Y-64176800D02*
X73108333Y-64138704D01*
X74098810Y-63414895D02*
X74175000Y-63414895D01*
X74175000Y-63414895D02*
X74251191Y-63452990D01*
X74251191Y-63452990D02*
X74289286Y-63491085D01*
X74289286Y-63491085D02*
X74327381Y-63567276D01*
X74327381Y-63567276D02*
X74365476Y-63719657D01*
X74365476Y-63719657D02*
X74365476Y-63910133D01*
X74365476Y-63910133D02*
X74327381Y-64062514D01*
X74327381Y-64062514D02*
X74289286Y-64138704D01*
X74289286Y-64138704D02*
X74251191Y-64176800D01*
X74251191Y-64176800D02*
X74175000Y-64214895D01*
X74175000Y-64214895D02*
X74098810Y-64214895D01*
X74098810Y-64214895D02*
X74022619Y-64176800D01*
X74022619Y-64176800D02*
X73984524Y-64138704D01*
X73984524Y-64138704D02*
X73946429Y-64062514D01*
X73946429Y-64062514D02*
X73908333Y-63910133D01*
X73908333Y-63910133D02*
X73908333Y-63719657D01*
X73908333Y-63719657D02*
X73946429Y-63567276D01*
X73946429Y-63567276D02*
X73984524Y-63491085D01*
X73984524Y-63491085D02*
X74022619Y-63452990D01*
X74022619Y-63452990D02*
X74098810Y-63414895D01*
X52258333Y-60376966D02*
X52225000Y-60410300D01*
X52225000Y-60410300D02*
X52125000Y-60443633D01*
X52125000Y-60443633D02*
X52058333Y-60443633D01*
X52058333Y-60443633D02*
X51958333Y-60410300D01*
X51958333Y-60410300D02*
X51891667Y-60343633D01*
X51891667Y-60343633D02*
X51858333Y-60276966D01*
X51858333Y-60276966D02*
X51825000Y-60143633D01*
X51825000Y-60143633D02*
X51825000Y-60043633D01*
X51825000Y-60043633D02*
X51858333Y-59910300D01*
X51858333Y-59910300D02*
X51891667Y-59843633D01*
X51891667Y-59843633D02*
X51958333Y-59776966D01*
X51958333Y-59776966D02*
X52058333Y-59743633D01*
X52058333Y-59743633D02*
X52125000Y-59743633D01*
X52125000Y-59743633D02*
X52225000Y-59776966D01*
X52225000Y-59776966D02*
X52258333Y-59810300D01*
X52925000Y-60443633D02*
X52525000Y-60443633D01*
X52725000Y-60443633D02*
X52725000Y-59743633D01*
X52725000Y-59743633D02*
X52658333Y-59843633D01*
X52658333Y-59843633D02*
X52591667Y-59910300D01*
X52591667Y-59910300D02*
X52525000Y-59943633D01*
X53885714Y-59764895D02*
X53961904Y-59764895D01*
X53961904Y-59764895D02*
X54038095Y-59802990D01*
X54038095Y-59802990D02*
X54076190Y-59841085D01*
X54076190Y-59841085D02*
X54114285Y-59917276D01*
X54114285Y-59917276D02*
X54152380Y-60069657D01*
X54152380Y-60069657D02*
X54152380Y-60260133D01*
X54152380Y-60260133D02*
X54114285Y-60412514D01*
X54114285Y-60412514D02*
X54076190Y-60488704D01*
X54076190Y-60488704D02*
X54038095Y-60526800D01*
X54038095Y-60526800D02*
X53961904Y-60564895D01*
X53961904Y-60564895D02*
X53885714Y-60564895D01*
X53885714Y-60564895D02*
X53809523Y-60526800D01*
X53809523Y-60526800D02*
X53771428Y-60488704D01*
X53771428Y-60488704D02*
X53733333Y-60412514D01*
X53733333Y-60412514D02*
X53695237Y-60260133D01*
X53695237Y-60260133D02*
X53695237Y-60069657D01*
X53695237Y-60069657D02*
X53733333Y-59917276D01*
X53733333Y-59917276D02*
X53771428Y-59841085D01*
X53771428Y-59841085D02*
X53809523Y-59802990D01*
X53809523Y-59802990D02*
X53885714Y-59764895D01*
X54495238Y-60488704D02*
X54533333Y-60526800D01*
X54533333Y-60526800D02*
X54495238Y-60564895D01*
X54495238Y-60564895D02*
X54457142Y-60526800D01*
X54457142Y-60526800D02*
X54495238Y-60488704D01*
X54495238Y-60488704D02*
X54495238Y-60564895D01*
X55295237Y-60564895D02*
X54838094Y-60564895D01*
X55066666Y-60564895D02*
X55066666Y-59764895D01*
X55066666Y-59764895D02*
X54990475Y-59879180D01*
X54990475Y-59879180D02*
X54914285Y-59955371D01*
X54914285Y-59955371D02*
X54838094Y-59993466D01*
X55980952Y-60031561D02*
X55980952Y-60564895D01*
X55638095Y-60031561D02*
X55638095Y-60450609D01*
X55638095Y-60450609D02*
X55676190Y-60526800D01*
X55676190Y-60526800D02*
X55752380Y-60564895D01*
X55752380Y-60564895D02*
X55866666Y-60564895D01*
X55866666Y-60564895D02*
X55942857Y-60526800D01*
X55942857Y-60526800D02*
X55980952Y-60488704D01*
X56628571Y-60145847D02*
X56361905Y-60145847D01*
X56361905Y-60564895D02*
X56361905Y-59764895D01*
X56361905Y-59764895D02*
X56742857Y-59764895D01*
X77066666Y-68468633D02*
X77066666Y-68968633D01*
X77066666Y-68968633D02*
X77033333Y-69068633D01*
X77033333Y-69068633D02*
X76966666Y-69135300D01*
X76966666Y-69135300D02*
X76866666Y-69168633D01*
X76866666Y-69168633D02*
X76800000Y-69168633D01*
X77699999Y-68701966D02*
X77699999Y-69168633D01*
X77533333Y-68435300D02*
X77366666Y-68935300D01*
X77366666Y-68935300D02*
X77799999Y-68935300D01*
%TO.C,U1*%
D12*
X42960000Y-64042000D02*
X48480000Y-64042000D01*
X42960000Y-64312000D02*
X42960000Y-64042000D01*
X42960000Y-69562000D02*
X42960000Y-69292000D01*
X48480000Y-64042000D02*
X48480000Y-64312000D01*
X48480000Y-69292000D02*
X48480000Y-69562000D01*
X48480000Y-69562000D02*
X42960000Y-69562000D01*
X42130000Y-64302000D02*
X41790000Y-63832000D01*
X42470000Y-63832000D01*
X42130000Y-64302000D01*
G36*
X42130000Y-64302000D02*
G01*
X41790000Y-63832000D01*
X42470000Y-63832000D01*
X42130000Y-64302000D01*
G37*
%TO.C,C2*%
X67876748Y-72925000D02*
X68399252Y-72925000D01*
X67876748Y-74395000D02*
X68399252Y-74395000D01*
%TO.C,J2*%
X37990000Y-83930000D02*
X37990000Y-82550000D01*
X39370000Y-83930000D02*
X37990000Y-83930000D01*
X40640000Y-81170000D02*
X61070000Y-81170000D01*
X40640000Y-83930000D02*
X40640000Y-81170000D01*
X40640000Y-83930000D02*
X61070000Y-83930000D01*
X61070000Y-83930000D02*
X61070000Y-81170000D01*
%TO.C,D2*%
X66465500Y-57460000D02*
X66465500Y-59380000D01*
X66465500Y-59380000D02*
X69150500Y-59380000D01*
X69150500Y-57460000D02*
X66465500Y-57460000D01*
%TO.C,R7*%
X67948436Y-61495000D02*
X68402564Y-61495000D01*
X67948436Y-62965000D02*
X68402564Y-62965000D01*
%TO.C,C3*%
X57716748Y-57939000D02*
X58239252Y-57939000D01*
X57716748Y-59409000D02*
X58239252Y-59409000D01*
%TO.C,R6*%
X71758436Y-65305000D02*
X72212564Y-65305000D01*
X71758436Y-66775000D02*
X72212564Y-66775000D01*
%TO.C,R4*%
X67948436Y-65305000D02*
X68402564Y-65305000D01*
X67948436Y-66775000D02*
X68402564Y-66775000D01*
%TO.C,R3*%
X68402564Y-69115000D02*
X67948436Y-69115000D01*
X68402564Y-70585000D02*
X67948436Y-70585000D01*
%TO.C,C4*%
X68399252Y-76735000D02*
X67876748Y-76735000D01*
X68399252Y-78205000D02*
X67876748Y-78205000D01*
%TO.C,U4*%
D13*
X54666000Y-63810000D02*
X54666000Y-63915000D01*
X54666000Y-63810000D02*
X54771000Y-63810000D01*
X54666000Y-70810000D02*
X54666000Y-70705000D01*
X54666000Y-70810000D02*
X54771000Y-70810000D01*
X61666000Y-63810000D02*
X61561000Y-63810000D01*
X61666000Y-63810000D02*
X61666000Y-63915000D01*
X61666000Y-70810000D02*
X61561000Y-70810000D01*
X61666000Y-70810000D02*
X61666000Y-70705000D01*
D14*
X52426000Y-64510000D02*
G75*
G02*
X52226000Y-64510000I-100000J0D01*
G01*
X52226000Y-64510000D02*
G75*
G02*
X52426000Y-64510000I100000J0D01*
G01*
%TO.C,J3*%
D12*
X64660000Y-83930000D02*
X64660000Y-82550000D01*
X66040000Y-83930000D02*
X64660000Y-83930000D01*
X67310000Y-81170000D02*
X75040000Y-81170000D01*
X67310000Y-83930000D02*
X67310000Y-81170000D01*
X67310000Y-83930000D02*
X75040000Y-83930000D01*
X75040000Y-83930000D02*
X75040000Y-81170000D01*
%TO.C,Y1*%
X34970000Y-71154000D02*
X34970000Y-78524000D01*
X34970000Y-78524000D02*
X38690000Y-78524000D01*
X38690000Y-78524000D02*
X38690000Y-71154000D01*
%TO.C,R1*%
X42952936Y-77497000D02*
X43407064Y-77497000D01*
X42952936Y-78967000D02*
X43407064Y-78967000D01*
%TO.C,U2*%
D13*
X43720000Y-71394000D02*
X47720000Y-71394000D01*
X43720000Y-76434000D02*
X47720000Y-76434000D01*
D14*
X41375000Y-71419000D02*
G75*
G02*
X41175000Y-71419000I-100000J0D01*
G01*
X41175000Y-71419000D02*
G75*
G02*
X41375000Y-71419000I100000J0D01*
G01*
%TO.C,R2*%
D12*
X47979064Y-77497000D02*
X47524936Y-77497000D01*
X47979064Y-78967000D02*
X47524936Y-78967000D01*
%TO.C,U3*%
X43214000Y-57692000D02*
X48734000Y-57692000D01*
X43214000Y-57962000D02*
X43214000Y-57692000D01*
X43214000Y-63212000D02*
X43214000Y-62942000D01*
X48734000Y-57692000D02*
X48734000Y-57962000D01*
X48734000Y-62942000D02*
X48734000Y-63212000D01*
X48734000Y-63212000D02*
X43214000Y-63212000D01*
X42384000Y-57952000D02*
X42044000Y-57482000D01*
X42724000Y-57482000D01*
X42384000Y-57952000D01*
G36*
X42384000Y-57952000D02*
G01*
X42044000Y-57482000D01*
X42724000Y-57482000D01*
X42384000Y-57952000D01*
G37*
%TO.C,D1*%
X70275500Y-57460000D02*
X70275500Y-59380000D01*
X70275500Y-59380000D02*
X72960500Y-59380000D01*
X72960500Y-57460000D02*
X70275500Y-57460000D01*
%TO.C,BT1*%
X35450000Y-61104000D02*
X36830000Y-61104000D01*
X35450000Y-62484000D02*
X35450000Y-61104000D01*
X35450000Y-63754000D02*
X35450000Y-66404000D01*
X35450000Y-63754000D02*
X38210000Y-63754000D01*
X35450000Y-66404000D02*
X38210000Y-66404000D01*
X38210000Y-63754000D02*
X38210000Y-66404000D01*
%TO.C,J1*%
X78630000Y-69232000D02*
X80010000Y-69232000D01*
X78630000Y-70612000D02*
X78630000Y-69232000D01*
X78630000Y-71882000D02*
X78630000Y-79612000D01*
X78630000Y-71882000D02*
X81390000Y-71882000D01*
X78630000Y-79612000D02*
X81390000Y-79612000D01*
X81390000Y-71882000D02*
X81390000Y-79612000D01*
%TO.C,Y2*%
X54898000Y-78060000D02*
X62268000Y-78060000D01*
X62268000Y-74340000D02*
X54898000Y-74340000D01*
X62268000Y-78060000D02*
X62268000Y-74340000D01*
%TO.C,C5*%
X61526748Y-57939000D02*
X62049252Y-57939000D01*
X61526748Y-59409000D02*
X62049252Y-59409000D01*
%TO.C,R5*%
X72212564Y-61495000D02*
X71758436Y-61495000D01*
X72212564Y-62965000D02*
X71758436Y-62965000D01*
%TO.C,C1*%
X54429252Y-57939000D02*
X53906748Y-57939000D01*
X54429252Y-59409000D02*
X53906748Y-59409000D01*
%TO.C,J4*%
X76090000Y-60088000D02*
X77470000Y-60088000D01*
X76090000Y-61468000D02*
X76090000Y-60088000D01*
X76090000Y-62738000D02*
X76090000Y-67928000D01*
X76090000Y-62738000D02*
X78740000Y-62738000D01*
X76090000Y-67928000D02*
X81390000Y-67928000D01*
X78740000Y-60088000D02*
X81390000Y-60088000D01*
X78740000Y-62738000D02*
X78740000Y-60088000D01*
X81390000Y-60088000D02*
X81390000Y-67928000D01*
%TD*%
M02*
