%TF.GenerationSoftware,KiCad,Pcbnew,10.0.6*%
%TF.CreationDate,2026-10-06T16:49:29+05:30*%
%TF.ProjectId,Mcu - data logger,4d637520-2d20-4646-9174-61206c6f6767,1*%
%TF.SameCoordinates,Original*%
%TF.FileFunction,Copper,L1,Top*%
%TF.FilePolarity,Positive*%
%FSLAX46Y46*%
G04 Gerber Fmt 4.6, Leading zero omitted, Abs format (unit mm)*
G04 Created by KiCad (PCBNEW 10.0.6) date 2026-10-06 16:49:29*
%MOMM*%
%LPD*%
G01*
G04 APERTURE LIST*
G04 Aperture macros list*
%AMRoundRect*
0 Rectangle with rounded corners*
0 $1 Rounding radius*
0 $2 $3 $4 $5 $6 $7 $8 $9 X,Y pos of 4 corners*
0 Add a 4 corners polygon primitive as box body*
4,1,4,$2,$3,$4,$5,$6,$7,$8,$9,$2,$3,0*
0 Add four circle primitives for the rounded corners*
1,1,$1+$1,$2,$3*
1,1,$1+$1,$4,$5*
1,1,$1+$1,$6,$7*
1,1,$1+$1,$8,$9*
0 Add four rect primitives between the rounded corners*
20,1,$1+$1,$2,$3,$4,$5,0*
20,1,$1+$1,$4,$5,$6,$7,0*
20,1,$1+$1,$6,$7,$8,$9,0*
20,1,$1+$1,$8,$9,$2,$3,0*%
G04 Aperture macros list end*
%TA.AperFunction,SMDPad,CuDef*%
%ADD10RoundRect,0.162500X-0.650000X-0.162500X0.650000X-0.162500X0.650000X0.162500X-0.650000X0.162500X0*%
%TD*%
%TA.AperFunction,SMDPad,CuDef*%
%ADD11RoundRect,0.250000X-0.250000X-0.475000X0.250000X-0.475000X0.250000X0.475000X-0.250000X0.475000X0*%
%TD*%
%TA.AperFunction,ComponentPad*%
%ADD12R,1.700000X1.700000*%
%TD*%
%TA.AperFunction,ComponentPad*%
%ADD13C,1.700000*%
%TD*%
%TA.AperFunction,SMDPad,CuDef*%
%ADD14RoundRect,0.243750X-0.243750X-0.456250X0.243750X-0.456250X0.243750X0.456250X-0.243750X0.456250X0*%
%TD*%
%TA.AperFunction,SMDPad,CuDef*%
%ADD15RoundRect,0.250000X-0.262500X-0.450000X0.262500X-0.450000X0.262500X0.450000X-0.262500X0.450000X0*%
%TD*%
%TA.AperFunction,SMDPad,CuDef*%
%ADD16RoundRect,0.250000X0.262500X0.450000X-0.262500X0.450000X-0.262500X-0.450000X0.262500X-0.450000X0*%
%TD*%
%TA.AperFunction,SMDPad,CuDef*%
%ADD17RoundRect,0.250000X0.250000X0.475000X-0.250000X0.475000X-0.250000X-0.475000X0.250000X-0.475000X0*%
%TD*%
%TA.AperFunction,SMDPad,CuDef*%
%ADD18RoundRect,0.068750X-0.666250X-0.206250X0.666250X-0.206250X0.666250X0.206250X-0.666250X0.206250X0*%
%TD*%
%TA.AperFunction,SMDPad,CuDef*%
%ADD19RoundRect,0.068750X-0.206250X-0.666250X0.206250X-0.666250X0.206250X0.666250X-0.206250X0.666250X0*%
%TD*%
%TA.AperFunction,SMDPad,CuDef*%
%ADD20RoundRect,0.250001X0.949999X-1.499999X0.949999X1.499999X-0.949999X1.499999X-0.949999X-1.499999X0*%
%TD*%
%TA.AperFunction,SMDPad,CuDef*%
%ADD21RoundRect,0.073750X-0.911250X-0.221250X0.911250X-0.221250X0.911250X0.221250X-0.911250X0.221250X0*%
%TD*%
%TA.AperFunction,SMDPad,CuDef*%
%ADD22RoundRect,0.250001X1.499999X0.949999X-1.499999X0.949999X-1.499999X-0.949999X1.499999X-0.949999X0*%
%TD*%
%TA.AperFunction,ViaPad*%
%ADD23C,0.900000*%
%TD*%
%TA.AperFunction,ViaPad*%
%ADD24C,0.600000*%
%TD*%
%TA.AperFunction,Conductor*%
%ADD25C,0.350000*%
%TD*%
%TA.AperFunction,Conductor*%
%ADD26C,0.200000*%
%TD*%
G04 APERTURE END LIST*
D10*
%TO.P,U1,1,A0_1*%
%TO.N,/VCC*%
X42132500Y-64897000D03*
%TO.P,U1,2,A1_2*%
X42132500Y-66167000D03*
%TO.P,U1,3,A2_3*%
X42132500Y-67437000D03*
%TO.P,U1,4,GND_4*%
%TO.N,GND*%
X42132500Y-68707000D03*
%TO.P,U1,5,SDA_5*%
%TO.N,/SDA*%
X49307500Y-68707000D03*
%TO.P,U1,6,SCL_6*%
%TO.N,/SCK*%
X49307500Y-67437000D03*
%TO.P,U1,7,WP_7*%
%TO.N,GND*%
X49307500Y-66167000D03*
%TO.P,U1,8,VCC_8*%
%TO.N,/VCC*%
X49307500Y-64897000D03*
%TD*%
D11*
%TO.P,C2,1*%
%TO.N,Net-(U4-PB6)*%
X67188000Y-73660000D03*
%TO.P,C2,2*%
%TO.N,GND*%
X69088000Y-73660000D03*
%TD*%
D12*
%TO.P,J2,1,Pin_1_1*%
%TO.N,/D2*%
X39370000Y-82550000D03*
D13*
%TO.P,J2,2,Pin_2_2*%
%TO.N,/D3*%
X41910000Y-82550000D03*
%TO.P,J2,3,Pin_3_3*%
%TO.N,/D4*%
X44450000Y-82550000D03*
%TO.P,J2,4,Pin_4_4*%
%TO.N,/D5*%
X46990000Y-82550000D03*
%TO.P,J2,5,Pin_5_5*%
%TO.N,/D6*%
X49530000Y-82550000D03*
%TO.P,J2,6,Pin_6_6*%
%TO.N,/D7*%
X52070000Y-82550000D03*
%TO.P,J2,7,Pin_7_7*%
%TO.N,/D8*%
X54610000Y-82550000D03*
%TO.P,J2,8,Pin_8_8*%
%TO.N,GND*%
X57150000Y-82550000D03*
%TO.P,J2,9,Pin_9_9*%
%TO.N,/VCC*%
X59690000Y-82550000D03*
%TD*%
D14*
%TO.P,D2,1,K_1*%
%TO.N,Net-(D2-K)*%
X67213000Y-58420000D03*
%TO.P,D2,2,A_2*%
%TO.N,Net-(BT1-+)*%
X69088000Y-58420000D03*
%TD*%
D15*
%TO.P,R7,1*%
%TO.N,Net-(D2-K)*%
X67263000Y-62230000D03*
%TO.P,R7,2*%
%TO.N,GND*%
X69088000Y-62230000D03*
%TD*%
D11*
%TO.P,C3,1*%
%TO.N,GND*%
X57028000Y-58674000D03*
%TO.P,C3,2*%
%TO.N,Net-(U4-PB7)*%
X58928000Y-58674000D03*
%TD*%
D15*
%TO.P,R6,1*%
%TO.N,/VCC*%
X71073000Y-66040000D03*
%TO.P,R6,2*%
%TO.N,/RESET*%
X72898000Y-66040000D03*
%TD*%
%TO.P,R4,1*%
%TO.N,/SDA*%
X67263000Y-66040000D03*
%TO.P,R4,2*%
%TO.N,/VCC*%
X69088000Y-66040000D03*
%TD*%
D16*
%TO.P,R3,1*%
%TO.N,/VCC*%
X69088000Y-69850000D03*
%TO.P,R3,2*%
%TO.N,/SCK*%
X67263000Y-69850000D03*
%TD*%
D17*
%TO.P,C4,1*%
%TO.N,GND*%
X69088000Y-77470000D03*
%TO.P,C4,2*%
%TO.N,Net-(U4-AREF)*%
X67188000Y-77470000D03*
%TD*%
D18*
%TO.P,U4,1,PD3_1*%
%TO.N,/D3*%
X53996000Y-64510000D03*
%TO.P,U4,2,PD4_2*%
%TO.N,/D4*%
X53996000Y-65310000D03*
%TO.P,U4,3,GND_3*%
%TO.N,GND*%
X53996000Y-66110000D03*
%TO.P,U4,4,VCC_4*%
%TO.N,Net-(BT1-+)*%
X53996000Y-66910000D03*
%TO.P,U4,5,GND_5*%
%TO.N,GND*%
X53996000Y-67710000D03*
%TO.P,U4,6,VCC_6*%
%TO.N,unconnected-(U4-VCC-Pad6)*%
X53996000Y-68510000D03*
%TO.P,U4,7,PB6_7*%
%TO.N,Net-(U4-PB6)*%
X53996000Y-69310000D03*
%TO.P,U4,8,PB7_8*%
%TO.N,Net-(U4-PB7)*%
X53996000Y-70110000D03*
D19*
%TO.P,U4,9,PD5_9*%
%TO.N,/D5*%
X55366000Y-71480000D03*
%TO.P,U4,10,PD6_10*%
%TO.N,/D6*%
X56166000Y-71480000D03*
%TO.P,U4,11,PD7_11*%
%TO.N,/D7*%
X56966000Y-71480000D03*
%TO.P,U4,12,PB0_12*%
%TO.N,/D8*%
X57766000Y-71480000D03*
%TO.P,U4,13,PB1_13*%
%TO.N,unconnected-(U4-PB1-Pad13)*%
X58566000Y-71480000D03*
%TO.P,U4,14,PB2_14*%
%TO.N,unconnected-(U4-PB2-Pad14)*%
X59366000Y-71480000D03*
%TO.P,U4,15,PB3_15*%
%TO.N,/MOSI*%
X60166000Y-71480000D03*
%TO.P,U4,16,PB4_16*%
%TO.N,/MISO*%
X60966000Y-71480000D03*
D18*
%TO.P,U4,17,PB5_17*%
%TO.N,/SCK*%
X62336000Y-70110000D03*
%TO.P,U4,18,AVCC_18*%
%TO.N,Net-(BT1-+)*%
X62336000Y-69310000D03*
%TO.P,U4,19,ADC6_19*%
%TO.N,unconnected-(U4-ADC6-Pad19)*%
X62336000Y-68510000D03*
%TO.P,U4,20,AREF_20*%
%TO.N,Net-(U4-AREF)*%
X62336000Y-67710000D03*
%TO.P,U4,21,GND_21*%
%TO.N,GND*%
X62336000Y-66910000D03*
%TO.P,U4,22,ADC7_22*%
%TO.N,unconnected-(U4-ADC7-Pad22)*%
X62336000Y-66110000D03*
%TO.P,U4,23,PC0_23*%
%TO.N,unconnected-(U4-PC0-Pad23)*%
X62336000Y-65310000D03*
%TO.P,U4,24,PC1_24*%
%TO.N,unconnected-(U4-PC1-Pad24)*%
X62336000Y-64510000D03*
D19*
%TO.P,U4,25,PC2_25*%
%TO.N,unconnected-(U4-PC2-Pad25)*%
X60966000Y-63140000D03*
%TO.P,U4,26,PC3_26*%
%TO.N,unconnected-(U4-PC3-Pad26)*%
X60166000Y-63140000D03*
%TO.P,U4,27,PC4_27*%
%TO.N,/SDA*%
X59366000Y-63140000D03*
%TO.P,U4,28,PC5_28*%
%TO.N,/SCK*%
X58566000Y-63140000D03*
%TO.P,U4,29,PC6/~{RESET}_29*%
%TO.N,/RESET*%
X57766000Y-63140000D03*
%TO.P,U4,30,PD0_30*%
%TO.N,/RX*%
X56966000Y-63140000D03*
%TO.P,U4,31,PD1_31*%
%TO.N,/TX*%
X56166000Y-63140000D03*
%TO.P,U4,32,PD2_32*%
%TO.N,/D2*%
X55366000Y-63140000D03*
%TD*%
D12*
%TO.P,J3,1,Pin_1_1*%
%TO.N,GND*%
X66040000Y-82550000D03*
D13*
%TO.P,J3,2,Pin_2_2*%
%TO.N,/VCC*%
X68580000Y-82550000D03*
%TO.P,J3,3,Pin_3_3*%
%TO.N,/RX*%
X71120000Y-82550000D03*
%TO.P,J3,4,Pin_4_4*%
%TO.N,/TX*%
X73660000Y-82550000D03*
%TD*%
D20*
%TO.P,Y1,1,1_1*%
%TO.N,Net-(U2-X2)*%
X36830000Y-76514000D03*
%TO.P,Y1,2,2_2*%
%TO.N,Net-(U2-X1)*%
X36830000Y-71314000D03*
%TD*%
D15*
%TO.P,R1,1*%
%TO.N,/VCC*%
X42267500Y-78232000D03*
%TO.P,R1,2*%
%TO.N,Net-(U2-~{INTA})*%
X44092500Y-78232000D03*
%TD*%
D21*
%TO.P,U2,1,X1_1*%
%TO.N,Net-(U2-X1)*%
X43245000Y-72009000D03*
%TO.P,U2,2,X2_2*%
%TO.N,Net-(U2-X2)*%
X43245000Y-73279000D03*
%TO.P,U2,3,~{INTA}_3*%
%TO.N,Net-(U2-~{INTA})*%
X43245000Y-74549000D03*
%TO.P,U2,4,GND_4*%
%TO.N,GND*%
X43245000Y-75819000D03*
%TO.P,U2,5,SDA_5*%
%TO.N,/SDA*%
X48195000Y-75819000D03*
%TO.P,U2,6,SCL_6*%
%TO.N,/SCK*%
X48195000Y-74549000D03*
%TO.P,U2,7,SQW/~INT_7*%
%TO.N,Net-(U2-SQW{slash}~INT)*%
X48195000Y-73279000D03*
%TO.P,U2,8,VCC_8*%
%TO.N,/VCC*%
X48195000Y-72009000D03*
%TD*%
D16*
%TO.P,R2,1*%
%TO.N,/VCC*%
X48664500Y-78232000D03*
%TO.P,R2,2*%
%TO.N,Net-(U2-SQW{slash}~INT)*%
X46839500Y-78232000D03*
%TD*%
D10*
%TO.P,U3,1,A0_1*%
%TO.N,/VCC*%
X42386500Y-58547000D03*
%TO.P,U3,2,A1_2*%
%TO.N,GND*%
X42386500Y-59817000D03*
%TO.P,U3,3,A2_3*%
%TO.N,/VCC*%
X42386500Y-61087000D03*
%TO.P,U3,4,GND_4*%
%TO.N,GND*%
X42386500Y-62357000D03*
%TO.P,U3,5,SDA_5*%
%TO.N,/SDA*%
X49561500Y-62357000D03*
%TO.P,U3,6,SCL_6*%
%TO.N,/SCK*%
X49561500Y-61087000D03*
%TO.P,U3,7,WP_7*%
%TO.N,GND*%
X49561500Y-59817000D03*
%TO.P,U3,8,VCC_8*%
%TO.N,/VCC*%
X49561500Y-58547000D03*
%TD*%
D14*
%TO.P,D1,1,K_1*%
%TO.N,Net-(D1-K)*%
X71023000Y-58420000D03*
%TO.P,D1,2,A_2*%
%TO.N,/SCK*%
X72898000Y-58420000D03*
%TD*%
D12*
%TO.P,BT1,1,+_1*%
%TO.N,Net-(BT1-+)*%
X36830000Y-62484000D03*
D13*
%TO.P,BT1,2,-_2*%
%TO.N,GND*%
X36830000Y-65024000D03*
%TD*%
D12*
%TO.P,J1,1,Pin_1_1*%
%TO.N,GND*%
X80010000Y-70612000D03*
D13*
%TO.P,J1,2,Pin_2_2*%
%TO.N,/VCC*%
X80010000Y-73152000D03*
%TO.P,J1,3,Pin_3_3*%
%TO.N,/SDA*%
X80010000Y-75692000D03*
%TO.P,J1,4,Pin_4_4*%
%TO.N,/SCK*%
X80010000Y-78232000D03*
%TD*%
D22*
%TO.P,Y2,1,1_1*%
%TO.N,Net-(U4-PB7)*%
X60258000Y-76200000D03*
%TO.P,Y2,2,2_2*%
%TO.N,Net-(U4-PB6)*%
X55058000Y-76200000D03*
%TD*%
D11*
%TO.P,C5,1*%
%TO.N,Net-(BT1-+)*%
X60838000Y-58674000D03*
%TO.P,C5,2*%
%TO.N,GND*%
X62738000Y-58674000D03*
%TD*%
D16*
%TO.P,R5,1*%
%TO.N,GND*%
X72898000Y-62230000D03*
%TO.P,R5,2*%
%TO.N,Net-(D1-K)*%
X71073000Y-62230000D03*
%TD*%
D17*
%TO.P,C1,1*%
%TO.N,GND*%
X55118000Y-58674000D03*
%TO.P,C1,2*%
%TO.N,/VCC*%
X53218000Y-58674000D03*
%TD*%
D12*
%TO.P,J4,1,Pin_1_1*%
%TO.N,/MISO*%
X77470000Y-61468000D03*
D13*
%TO.P,J4,2,Pin_2_2*%
%TO.N,/VCC*%
X80010000Y-61468000D03*
%TO.P,J4,3,Pin_3_3*%
%TO.N,/SCK*%
X77470000Y-64008000D03*
%TO.P,J4,4,Pin_4_4*%
%TO.N,/MOSI*%
X80010000Y-64008000D03*
%TO.P,J4,5,Pin_5_5*%
%TO.N,/RESET*%
X77470000Y-66548000D03*
%TO.P,J4,6,Pin_6_6*%
%TO.N,GND*%
X80010000Y-66548000D03*
%TD*%
D23*
%TO.N,/VCC*%
X77019686Y-69907686D03*
X71628000Y-68072000D03*
%TO.N,GND*%
X52508000Y-66248630D03*
X64554000Y-65570000D03*
X72898000Y-60706000D03*
X69088000Y-60706000D03*
X45720000Y-75692000D03*
X46952000Y-66764000D03*
X70866000Y-77470000D03*
X57404000Y-59944000D03*
X65335686Y-61664314D03*
X60001686Y-60668000D03*
X63500000Y-60198000D03*
D24*
%TO.N,/SDA*%
X67564000Y-68072000D03*
X76708000Y-74676000D03*
X47844000Y-68536735D03*
X47868765Y-62367235D03*
%TO.N,/SCK*%
X72644000Y-71915000D03*
X74930000Y-67310000D03*
X74676000Y-73914000D03*
%TO.N,/D2*%
X55372000Y-64516000D03*
%TO.N,/D5*%
X53432000Y-71628000D03*
%TO.N,/D6*%
X56134000Y-73314000D03*
%TO.N,/D7*%
X56934003Y-73314000D03*
%TO.N,/D8*%
X57734006Y-73314000D03*
%TO.N,Net-(BT1-+)*%
X63754000Y-69342000D03*
X60960000Y-69215000D03*
X55372000Y-66675000D03*
X60325000Y-57696000D03*
X69850000Y-59690000D03*
%TO.N,Net-(U4-PB7)*%
X55278500Y-69562500D03*
X58420000Y-60868000D03*
%TO.N,/RESET*%
X63154000Y-63500000D03*
X57766000Y-64770000D03*
X65244504Y-63533496D03*
X68580000Y-63500000D03*
%TO.N,Net-(U4-AREF)*%
X59944000Y-68580000D03*
X65278000Y-77470000D03*
%TO.N,/MISO*%
X64516000Y-71628000D03*
%TO.N,/RX*%
X56896000Y-67310000D03*
%TO.N,/TX*%
X57496000Y-68580000D03*
%TD*%
%TO.N,/VCC*%
D25*
X48277000Y-79993000D02*
X48664500Y-79605500D01*
X48195000Y-72009000D02*
X43623000Y-67437000D01*
X44028500Y-79993000D02*
X48277000Y-79993000D01*
X43623000Y-67437000D02*
X42132500Y-67437000D01*
X77019686Y-69907686D02*
X78005383Y-69907686D01*
X41148000Y-78232000D02*
X42267500Y-78232000D01*
X69088000Y-68072000D02*
X69088000Y-69850000D01*
X49561500Y-58547000D02*
X53091000Y-58547000D01*
X40386000Y-58928000D02*
X40386000Y-60960000D01*
X78005383Y-69907686D02*
X79333341Y-68579728D01*
X59690000Y-82550000D02*
X58415000Y-83825000D01*
X40767000Y-58547000D02*
X40386000Y-58928000D01*
X42132500Y-67437000D02*
X42132500Y-66167000D01*
X38095000Y-81285000D02*
X41148000Y-78232000D01*
X81647594Y-68579728D02*
X81661384Y-61468000D01*
X69088000Y-68072000D02*
X71628000Y-68072000D01*
X42132500Y-64897000D02*
X49307500Y-64897000D01*
X58415000Y-83825000D02*
X38095000Y-83825000D01*
X42386500Y-58547000D02*
X40767000Y-58547000D01*
X40513000Y-61087000D02*
X42386500Y-61087000D01*
X81661384Y-61468000D02*
X80010000Y-61468000D01*
X53091000Y-58547000D02*
X53218000Y-58674000D01*
X79333341Y-68579728D02*
X81647594Y-68579728D01*
X48664500Y-79605500D02*
X48664500Y-78232000D01*
X38095000Y-83825000D02*
X38095000Y-81285000D01*
X69088000Y-66040000D02*
X71073000Y-66040000D01*
X40386000Y-60960000D02*
X40513000Y-61087000D01*
X42267500Y-78232000D02*
X44028500Y-79993000D01*
X42132500Y-64897000D02*
X42132500Y-66167000D01*
X69088000Y-66040000D02*
X69088000Y-68072000D01*
%TO.N,GND*%
X69088000Y-77470000D02*
X69088000Y-73660000D01*
X42386500Y-62357000D02*
X43815000Y-62357000D01*
X42386500Y-62357000D02*
X41275000Y-62357000D01*
X38608000Y-65024000D02*
X36830000Y-65024000D01*
X44450000Y-75692000D02*
X44323000Y-75819000D01*
X62738000Y-59436000D02*
X63500000Y-60198000D01*
X47549000Y-66167000D02*
X49307500Y-66167000D01*
X66040000Y-82550000D02*
X69088000Y-79502000D01*
X49886499Y-60141999D02*
X53650001Y-60141999D01*
X52646630Y-66110000D02*
X52508000Y-66248630D01*
X64516000Y-66548000D02*
X64154000Y-66910000D01*
X69088000Y-79502000D02*
X69088000Y-77470000D01*
X46952000Y-66764000D02*
X47549000Y-66167000D01*
X57028000Y-59568000D02*
X57404000Y-59944000D01*
X42132500Y-68707000D02*
X40513000Y-68707000D01*
X57028000Y-58674000D02*
X57028000Y-59568000D01*
X42386500Y-59817000D02*
X43942000Y-59817000D01*
X53650001Y-60141999D02*
X55118000Y-58674000D01*
X64966314Y-61664314D02*
X63500000Y-60198000D01*
X64554000Y-65570000D02*
X64516000Y-65608000D01*
X49307500Y-66167000D02*
X49657000Y-66167000D01*
X53223328Y-67710000D02*
X52508000Y-66994672D01*
X40513000Y-68707000D02*
X36830000Y-65024000D01*
X41275000Y-62357000D02*
X38608000Y-65024000D01*
X69088000Y-77470000D02*
X70866000Y-77470000D01*
X43942000Y-59817000D02*
X49561500Y-59817000D01*
X53996000Y-67710000D02*
X53223328Y-67710000D01*
X43815000Y-62357000D02*
X44196000Y-61976000D01*
X44196000Y-61976000D02*
X44196000Y-60071000D01*
X60001686Y-60668000D02*
X63030000Y-60668000D01*
X53996000Y-66110000D02*
X52646630Y-66110000D01*
X45720000Y-75692000D02*
X44450000Y-75692000D01*
X44323000Y-75819000D02*
X43245000Y-75819000D01*
X52508000Y-66994672D02*
X52508000Y-66248630D01*
X69088000Y-62230000D02*
X69088000Y-60706000D01*
X65335686Y-61664314D02*
X64966314Y-61664314D01*
X64154000Y-66910000D02*
X62336000Y-66910000D01*
X62738000Y-58674000D02*
X62738000Y-59436000D01*
X64516000Y-65608000D02*
X64516000Y-66548000D01*
X49561500Y-59817000D02*
X49886499Y-60141999D01*
X72898000Y-62230000D02*
X72898000Y-60706000D01*
X63030000Y-60668000D02*
X63500000Y-60198000D01*
X55118000Y-58674000D02*
X57028000Y-58674000D01*
X49657000Y-66167000D02*
X49714000Y-66110000D01*
X44196000Y-60071000D02*
X43942000Y-59817000D01*
%TO.N,/SDA*%
D26*
X59436000Y-61468000D02*
X64008000Y-61468000D01*
X47879000Y-62357000D02*
X49561500Y-62357000D01*
X64008000Y-61468000D02*
X65004314Y-62464314D01*
X50292000Y-75692000D02*
X50292000Y-69691500D01*
X59366000Y-61538000D02*
X59366000Y-63140000D01*
X47868765Y-62367235D02*
X47879000Y-62357000D01*
X67263000Y-64703462D02*
X67263000Y-66040000D01*
X53975000Y-62357000D02*
X49561500Y-62357000D01*
X49307500Y-68707000D02*
X48014265Y-68707000D01*
X76708000Y-74676000D02*
X77724000Y-75692000D01*
X48014265Y-68707000D02*
X47844000Y-68536735D01*
X53975000Y-62357000D02*
X54864000Y-61468000D01*
X67263000Y-66040000D02*
X67263000Y-67771000D01*
X54864000Y-61468000D02*
X59436000Y-61468000D01*
X65004314Y-62464314D02*
X65023852Y-62464314D01*
X77724000Y-75692000D02*
X80010000Y-75692000D01*
X48195000Y-75819000D02*
X50165000Y-75819000D01*
X50165000Y-75819000D02*
X50292000Y-75692000D01*
X50292000Y-69691500D02*
X49307500Y-68707000D01*
X67263000Y-67771000D02*
X67564000Y-68072000D01*
X65023852Y-62464314D02*
X67263000Y-64703462D01*
X59436000Y-61468000D02*
X59366000Y-61538000D01*
%TO.N,/SCK*%
X60625471Y-70110000D02*
X62336000Y-70110000D01*
X50800000Y-67310000D02*
X50800000Y-64262000D01*
X52889686Y-64008000D02*
X51054000Y-64008000D01*
X50800000Y-64262000D02*
X51054000Y-64008000D01*
X58566000Y-68050529D02*
X60625471Y-70110000D01*
X49307500Y-67437000D02*
X50673000Y-67437000D01*
X58566000Y-63140000D02*
X58566000Y-62405000D01*
X48641000Y-67437000D02*
X49307500Y-67437000D01*
X62336000Y-70110000D02*
X67003000Y-70110000D01*
X48768000Y-70358000D02*
X47244000Y-68834000D01*
X74676000Y-73914000D02*
X78994000Y-78232000D01*
X72644000Y-71915000D02*
X72357000Y-71628000D01*
X48133000Y-61087000D02*
X47244000Y-61976000D01*
X49657000Y-74549000D02*
X49784000Y-74422000D01*
X70866000Y-71374000D02*
X74930000Y-67310000D01*
X47244000Y-62591000D02*
X48661000Y-64008000D01*
X58566000Y-63140000D02*
X58566000Y-68050529D01*
X72357000Y-71628000D02*
X70612000Y-71628000D01*
X48514000Y-67564000D02*
X48641000Y-67437000D01*
X54921686Y-61976000D02*
X52889686Y-64008000D01*
X67003000Y-70110000D02*
X67263000Y-69850000D01*
X78994000Y-78232000D02*
X80010000Y-78232000D01*
X73914000Y-64008000D02*
X77470000Y-64008000D01*
X47244000Y-61976000D02*
X47244000Y-62591000D01*
X47244000Y-67564000D02*
X48514000Y-67564000D01*
X73914000Y-59436000D02*
X73914000Y-64008000D01*
X58566000Y-62405000D02*
X58137000Y-61976000D01*
X72898000Y-58420000D02*
X73914000Y-59436000D01*
X50673000Y-67437000D02*
X50800000Y-67310000D01*
X69041000Y-71628000D02*
X70612000Y-71628000D01*
X47244000Y-68834000D02*
X47244000Y-67564000D01*
X70612000Y-71628000D02*
X70866000Y-71374000D01*
X49784000Y-70358000D02*
X48768000Y-70358000D01*
X48661000Y-64008000D02*
X51054000Y-64008000D01*
X49784000Y-74422000D02*
X49784000Y-70358000D01*
X48195000Y-74549000D02*
X49657000Y-74549000D01*
X49561500Y-61087000D02*
X48133000Y-61087000D01*
X58137000Y-61976000D02*
X54921686Y-61976000D01*
X67263000Y-69850000D02*
X69041000Y-71628000D01*
%TO.N,Net-(U4-PB6)*%
X55118000Y-78486000D02*
X62362000Y-78486000D01*
X53261000Y-69310000D02*
X53996000Y-69310000D01*
X55058000Y-78426000D02*
X55118000Y-78486000D01*
X52324000Y-70247000D02*
X53261000Y-69310000D01*
X62362000Y-78486000D02*
X67188000Y-73660000D01*
X55058000Y-76200000D02*
X52324000Y-76200000D01*
X52324000Y-76200000D02*
X52324000Y-70247000D01*
X55058000Y-76200000D02*
X55058000Y-78426000D01*
%TO.N,/D2*%
X55372000Y-64516000D02*
X55372000Y-63146000D01*
X55372000Y-63146000D02*
X55366000Y-63140000D01*
%TO.N,/D3*%
X51308000Y-67367686D02*
X51308000Y-64770000D01*
X50800000Y-79248000D02*
X50800000Y-67875686D01*
X41910000Y-81026000D02*
X42418000Y-80518000D01*
X51308000Y-64770000D02*
X51568000Y-64510000D01*
X50800000Y-67875686D02*
X51308000Y-67367686D01*
X51568000Y-64510000D02*
X53996000Y-64510000D01*
X42418000Y-80518000D02*
X49530000Y-80518000D01*
X49530000Y-80518000D02*
X50800000Y-79248000D01*
X41910000Y-82550000D02*
X41910000Y-81026000D01*
%TO.N,/D4*%
X51200000Y-79610000D02*
X51200000Y-68041371D01*
X49784000Y-81026000D02*
X51200000Y-79610000D01*
X51708000Y-67533371D02*
X51708000Y-65488000D01*
X51708000Y-65488000D02*
X51886000Y-65310000D01*
X44450000Y-81026000D02*
X49784000Y-81026000D01*
X51200000Y-68041371D02*
X51708000Y-67533371D01*
X44450000Y-82550000D02*
X44450000Y-81026000D01*
X51886000Y-65310000D02*
X53996000Y-65310000D01*
%TO.N,/D5*%
X53432000Y-71628000D02*
X55218000Y-71628000D01*
X55218000Y-71628000D02*
X55366000Y-71480000D01*
%TO.N,/D6*%
X56134000Y-73314000D02*
X56134000Y-71512000D01*
X56134000Y-71512000D02*
X56166000Y-71480000D01*
%TO.N,/D7*%
X56934003Y-71511997D02*
X56966000Y-71480000D01*
X56934003Y-73314000D02*
X56934003Y-71511997D01*
%TO.N,/D8*%
X57734006Y-73314000D02*
X57734006Y-71511994D01*
X57734006Y-71511994D02*
X57766000Y-71480000D01*
%TO.N,Net-(D2-K)*%
X67263000Y-58470000D02*
X67213000Y-58420000D01*
X67263000Y-62230000D02*
X67263000Y-58470000D01*
%TO.N,Net-(BT1-+)*%
X55245000Y-66675000D02*
X55010000Y-66910000D01*
X69088000Y-58928000D02*
X69850000Y-59690000D01*
X63754000Y-69342000D02*
X62368000Y-69342000D01*
X60838000Y-58209000D02*
X60838000Y-58674000D01*
X62241000Y-69215000D02*
X62336000Y-69310000D01*
X69088000Y-58420000D02*
X69088000Y-58928000D01*
X60960000Y-69215000D02*
X62241000Y-69215000D01*
X60325000Y-57696000D02*
X60838000Y-58209000D01*
X55010000Y-66910000D02*
X53996000Y-66910000D01*
X55372000Y-66675000D02*
X55245000Y-66675000D01*
X62368000Y-69342000D02*
X62336000Y-69310000D01*
%TO.N,Net-(U4-PB7)*%
X60258000Y-76200000D02*
X57972000Y-73914000D01*
X52832000Y-71274000D02*
X53996000Y-70110000D01*
X57972000Y-73914000D02*
X53086000Y-73914000D01*
X52832000Y-73660000D02*
X52832000Y-71274000D01*
X58928000Y-60360000D02*
X58928000Y-58674000D01*
X54731000Y-70110000D02*
X53996000Y-70110000D01*
X58420000Y-60868000D02*
X58928000Y-60360000D01*
X53086000Y-73914000D02*
X52832000Y-73660000D01*
X55278500Y-69562500D02*
X54731000Y-70110000D01*
%TO.N,/RESET*%
X72898000Y-66040000D02*
X74676000Y-66040000D01*
X74676000Y-66040000D02*
X75184000Y-66548000D01*
X65211008Y-63500000D02*
X63154000Y-63500000D01*
X65244504Y-63533496D02*
X65211008Y-63500000D01*
X75184000Y-66548000D02*
X77470000Y-66548000D01*
X72898000Y-66040000D02*
X70358000Y-63500000D01*
X70358000Y-63500000D02*
X68580000Y-63500000D01*
X57766000Y-64770000D02*
X57766000Y-63140000D01*
%TO.N,Net-(U4-AREF)*%
X60814000Y-67710000D02*
X62336000Y-67710000D01*
X67188000Y-77470000D02*
X65278000Y-77470000D01*
X59944000Y-68580000D02*
X60814000Y-67710000D01*
%TO.N,/MOSI*%
X78620000Y-67176000D02*
X73281000Y-72515000D01*
X60166000Y-72215000D02*
X60166000Y-71480000D01*
X73281000Y-72515000D02*
X60466000Y-72515000D01*
X78620000Y-65398000D02*
X78620000Y-67176000D01*
X80010000Y-64008000D02*
X78620000Y-65398000D01*
X60466000Y-72515000D02*
X60166000Y-72215000D01*
%TO.N,/MISO*%
X64262000Y-71882000D02*
X61368000Y-71882000D01*
X64516000Y-71628000D02*
X64262000Y-71882000D01*
X61368000Y-71882000D02*
X60966000Y-71480000D01*
%TO.N,/RX*%
X56896000Y-67310000D02*
X56966000Y-67240000D01*
X56966000Y-67240000D02*
X56966000Y-63140000D01*
%TO.N,/TX*%
X57496000Y-68580000D02*
X56166000Y-68580000D01*
X56166000Y-68580000D02*
X56166000Y-63140000D01*
%TO.N,Net-(U2-X2)*%
X40065000Y-73279000D02*
X43245000Y-73279000D01*
X36830000Y-76514000D02*
X40065000Y-73279000D01*
%TO.N,Net-(U2-X1)*%
X42550000Y-71314000D02*
X43245000Y-72009000D01*
X36830000Y-71314000D02*
X42550000Y-71314000D01*
%TO.N,Net-(U2-~{INTA})*%
X40640000Y-76200000D02*
X40640000Y-75419000D01*
X41622000Y-77182000D02*
X40640000Y-76200000D01*
X44092500Y-78232000D02*
X43042500Y-77182000D01*
X40640000Y-75419000D02*
X41510000Y-74549000D01*
X41510000Y-74549000D02*
X43245000Y-74549000D01*
X43042500Y-77182000D02*
X41622000Y-77182000D01*
%TO.N,Net-(U2-SQW{slash}~INT)*%
X46839500Y-74241394D02*
X47801894Y-73279000D01*
X46839500Y-78232000D02*
X46839500Y-74241394D01*
X47801894Y-73279000D02*
X48195000Y-73279000D01*
%TO.N,Net-(D1-K)*%
X71073000Y-58470000D02*
X71023000Y-58420000D01*
X71073000Y-62230000D02*
X71073000Y-58470000D01*
%TD*%
%TA.AperFunction,Conductor*%
%TO.N,/VCC*%
G36*
X52470016Y-57423685D02*
G01*
X52515771Y-57476489D01*
X52525715Y-57545647D01*
X52496690Y-57609203D01*
X52490658Y-57615681D01*
X52375684Y-57730654D01*
X52283643Y-57879875D01*
X52283641Y-57879880D01*
X52228494Y-58046302D01*
X52228493Y-58046309D01*
X52218000Y-58149013D01*
X52218000Y-58424000D01*
X53094000Y-58424000D01*
X53161039Y-58443685D01*
X53206794Y-58496489D01*
X53218000Y-58548000D01*
X53218000Y-58800000D01*
X53198315Y-58867039D01*
X53145511Y-58912794D01*
X53094000Y-58924000D01*
X52218001Y-58924000D01*
X52218001Y-59198986D01*
X52228494Y-59301698D01*
X52229089Y-59303493D01*
X52229129Y-59304667D01*
X52229911Y-59308319D01*
X52229259Y-59308458D01*
X52231492Y-59373321D01*
X52195762Y-59433364D01*
X52133242Y-59464557D01*
X52111384Y-59466499D01*
X50938602Y-59466499D01*
X50871563Y-59446814D01*
X50825808Y-59394010D01*
X50821002Y-59381446D01*
X50820531Y-59380398D01*
X50796713Y-59340999D01*
X50739081Y-59245664D01*
X50721245Y-59178112D01*
X50739082Y-59117365D01*
X50820071Y-58983394D01*
X50820072Y-58983393D01*
X50867932Y-58829802D01*
X50867935Y-58829792D01*
X50870914Y-58797000D01*
X48252085Y-58797000D01*
X48255064Y-58829792D01*
X48255067Y-58829802D01*
X48302060Y-58980610D01*
X48303211Y-59050470D01*
X48266410Y-59109863D01*
X48203342Y-59139930D01*
X48183675Y-59141500D01*
X43764325Y-59141500D01*
X43697286Y-59121815D01*
X43651531Y-59069011D01*
X43641587Y-58999853D01*
X43645940Y-58980610D01*
X43692932Y-58829802D01*
X43692935Y-58829792D01*
X43695914Y-58797000D01*
X41077085Y-58797000D01*
X41080064Y-58829792D01*
X41080067Y-58829802D01*
X41127927Y-58983392D01*
X41208918Y-59117366D01*
X41226754Y-59184920D01*
X41208918Y-59245666D01*
X41127469Y-59380397D01*
X41079569Y-59534116D01*
X41073500Y-59600911D01*
X41073500Y-60033098D01*
X41079568Y-60099882D01*
X41079571Y-60099893D01*
X41127467Y-60253598D01*
X41127468Y-60253600D01*
X41127469Y-60253602D01*
X41208918Y-60388335D01*
X41226754Y-60455887D01*
X41208918Y-60516633D01*
X41127927Y-60650607D01*
X41080067Y-60804197D01*
X41080064Y-60804207D01*
X41077085Y-60836999D01*
X41077085Y-60837000D01*
X42262500Y-60837000D01*
X42329539Y-60856685D01*
X42375294Y-60909489D01*
X42386500Y-60961000D01*
X42386500Y-61213000D01*
X42366815Y-61280039D01*
X42314011Y-61325794D01*
X42262500Y-61337000D01*
X41077085Y-61337000D01*
X41080064Y-61369792D01*
X41080067Y-61369802D01*
X41127927Y-61523392D01*
X41132257Y-61530554D01*
X41150095Y-61598108D01*
X41128580Y-61664582D01*
X41074541Y-61708872D01*
X41073596Y-61709267D01*
X40995219Y-61741733D01*
X40995217Y-61741734D01*
X40955032Y-61758378D01*
X40955028Y-61758380D01*
X40844398Y-61832301D01*
X40844390Y-61832307D01*
X38364518Y-64312181D01*
X38303195Y-64345666D01*
X38276837Y-64348500D01*
X38071712Y-64348500D01*
X38004673Y-64328815D01*
X37971394Y-64297385D01*
X37860109Y-64144214D01*
X37860105Y-64144209D01*
X37746569Y-64030673D01*
X37713084Y-63969350D01*
X37718068Y-63899658D01*
X37759940Y-63843725D01*
X37790915Y-63826810D01*
X37922331Y-63777796D01*
X38037546Y-63691546D01*
X38123796Y-63576331D01*
X38174091Y-63441483D01*
X38180500Y-63381873D01*
X38180499Y-61586128D01*
X38174091Y-61526517D01*
X38173004Y-61523603D01*
X38123797Y-61391671D01*
X38123793Y-61391664D01*
X38037547Y-61276455D01*
X38037544Y-61276452D01*
X37922335Y-61190206D01*
X37922328Y-61190202D01*
X37787482Y-61139908D01*
X37787483Y-61139908D01*
X37727883Y-61133501D01*
X37727881Y-61133500D01*
X37727873Y-61133500D01*
X37727864Y-61133500D01*
X35932129Y-61133500D01*
X35932123Y-61133501D01*
X35872516Y-61139908D01*
X35737671Y-61190202D01*
X35737664Y-61190206D01*
X35622455Y-61276452D01*
X35622452Y-61276455D01*
X35536206Y-61391664D01*
X35536202Y-61391671D01*
X35485908Y-61526517D01*
X35482570Y-61557570D01*
X35479501Y-61586123D01*
X35479500Y-61586135D01*
X35479500Y-63381870D01*
X35479501Y-63381876D01*
X35485908Y-63441483D01*
X35536202Y-63576328D01*
X35536206Y-63576335D01*
X35622452Y-63691544D01*
X35622455Y-63691547D01*
X35737664Y-63777793D01*
X35737671Y-63777797D01*
X35869082Y-63826810D01*
X35925016Y-63868681D01*
X35949433Y-63934145D01*
X35934582Y-64002418D01*
X35913431Y-64030673D01*
X35799889Y-64144215D01*
X35674951Y-64316179D01*
X35578444Y-64505585D01*
X35512753Y-64707760D01*
X35479500Y-64917713D01*
X35479500Y-65130286D01*
X35505816Y-65296443D01*
X35512754Y-65340243D01*
X35577656Y-65539991D01*
X35578444Y-65542414D01*
X35674951Y-65731820D01*
X35799890Y-65903786D01*
X35950213Y-66054109D01*
X36122179Y-66179048D01*
X36122181Y-66179049D01*
X36122184Y-66179051D01*
X36311588Y-66275557D01*
X36513757Y-66341246D01*
X36723713Y-66374500D01*
X36723714Y-66374500D01*
X36936286Y-66374500D01*
X36936287Y-66374500D01*
X37123293Y-66344881D01*
X37192587Y-66353836D01*
X37230372Y-66379673D01*
X39988305Y-69137606D01*
X40082394Y-69231695D01*
X40082397Y-69231697D01*
X40082398Y-69231698D01*
X40193020Y-69305613D01*
X40193022Y-69305614D01*
X40193031Y-69305620D01*
X40214518Y-69314520D01*
X40315964Y-69356541D01*
X40436409Y-69380499D01*
X40446464Y-69382499D01*
X40446468Y-69382500D01*
X40446469Y-69382500D01*
X40579531Y-69382500D01*
X41014977Y-69382500D01*
X41079125Y-69400382D01*
X41208398Y-69478531D01*
X41362113Y-69526430D01*
X41428909Y-69532500D01*
X42836090Y-69532499D01*
X42836097Y-69532499D01*
X42902882Y-69526431D01*
X42902885Y-69526430D01*
X42902887Y-69526430D01*
X43056602Y-69478531D01*
X43194388Y-69395236D01*
X43308236Y-69281388D01*
X43391531Y-69143602D01*
X43439430Y-68989887D01*
X43445500Y-68923091D01*
X43445499Y-68490910D01*
X43445499Y-68490901D01*
X43439431Y-68424117D01*
X43439428Y-68424106D01*
X43391532Y-68270400D01*
X43391531Y-68270398D01*
X43381489Y-68253786D01*
X43310081Y-68135664D01*
X43292245Y-68068112D01*
X43310082Y-68007365D01*
X43391071Y-67873394D01*
X43391072Y-67873393D01*
X43438932Y-67719802D01*
X43438935Y-67719792D01*
X43441914Y-67687000D01*
X40823085Y-67687000D01*
X40826064Y-67719792D01*
X40826065Y-67719794D01*
X40832553Y-67740614D01*
X40833703Y-67810474D01*
X40796902Y-67869867D01*
X40733834Y-67899935D01*
X40664521Y-67891132D01*
X40626486Y-67865185D01*
X39948300Y-67186999D01*
X40823085Y-67186999D01*
X40823085Y-67187000D01*
X41882500Y-67187000D01*
X42382500Y-67187000D01*
X43441915Y-67187000D01*
X43441914Y-67186999D01*
X43438935Y-67154207D01*
X43438932Y-67154197D01*
X43391072Y-67000606D01*
X43391071Y-67000604D01*
X43309790Y-66866151D01*
X43291953Y-66798596D01*
X43309790Y-66737849D01*
X43391071Y-66603395D01*
X43391072Y-66603393D01*
X43438932Y-66449802D01*
X43438935Y-66449792D01*
X43441914Y-66417000D01*
X42382500Y-66417000D01*
X42382500Y-67187000D01*
X41882500Y-67187000D01*
X41882500Y-66417000D01*
X40823085Y-66417000D01*
X40826064Y-66449792D01*
X40826067Y-66449802D01*
X40873927Y-66603392D01*
X40955210Y-66737850D01*
X40973046Y-66805405D01*
X40955210Y-66866150D01*
X40873927Y-67000607D01*
X40826067Y-67154197D01*
X40826064Y-67154207D01*
X40823085Y-67186999D01*
X39948300Y-67186999D01*
X38678300Y-65916999D01*
X40823085Y-65916999D01*
X40823085Y-65917000D01*
X41882500Y-65917000D01*
X42382500Y-65917000D01*
X43441915Y-65917000D01*
X43441914Y-65916999D01*
X43438935Y-65884207D01*
X43438932Y-65884197D01*
X43391072Y-65730606D01*
X43391071Y-65730604D01*
X43309790Y-65596151D01*
X43291953Y-65528596D01*
X43309790Y-65467849D01*
X43391071Y-65333395D01*
X43391072Y-65333393D01*
X43438932Y-65179802D01*
X43438935Y-65179792D01*
X43441914Y-65147000D01*
X42382500Y-65147000D01*
X42382500Y-65917000D01*
X41882500Y-65917000D01*
X41882500Y-65147000D01*
X40823085Y-65147000D01*
X40826064Y-65179792D01*
X40826067Y-65179802D01*
X40873927Y-65333392D01*
X40955210Y-65467850D01*
X40973046Y-65535405D01*
X40955210Y-65596150D01*
X40873927Y-65730607D01*
X40826067Y-65884197D01*
X40826064Y-65884207D01*
X40823085Y-65916999D01*
X38678300Y-65916999D01*
X38660301Y-65899000D01*
X38626816Y-65837677D01*
X38631800Y-65767985D01*
X38673672Y-65712052D01*
X38723791Y-65689702D01*
X38756626Y-65683170D01*
X38805036Y-65673541D01*
X38927969Y-65622620D01*
X39038606Y-65548695D01*
X39940302Y-64646999D01*
X40823085Y-64646999D01*
X40823085Y-64647000D01*
X41882500Y-64647000D01*
X42382500Y-64647000D01*
X43441915Y-64647000D01*
X43441914Y-64646999D01*
X43438935Y-64614207D01*
X43438932Y-64614197D01*
X43391072Y-64460607D01*
X43307836Y-64322919D01*
X43194080Y-64209163D01*
X43056396Y-64125929D01*
X42902792Y-64078065D01*
X42836043Y-64072000D01*
X42382500Y-64072000D01*
X42382500Y-64647000D01*
X41882500Y-64647000D01*
X41882500Y-64072000D01*
X41428957Y-64072000D01*
X41362207Y-64078065D01*
X41208603Y-64125929D01*
X41070919Y-64209163D01*
X40957163Y-64322919D01*
X40873927Y-64460607D01*
X40826067Y-64614197D01*
X40826064Y-64614207D01*
X40823085Y-64646999D01*
X39940302Y-64646999D01*
X40252549Y-64334752D01*
X41040951Y-63546349D01*
X41406628Y-63180671D01*
X41467949Y-63147188D01*
X41531195Y-63149968D01*
X41616113Y-63176430D01*
X41682909Y-63182500D01*
X43090090Y-63182499D01*
X43090097Y-63182499D01*
X43156882Y-63176431D01*
X43156885Y-63176430D01*
X43156887Y-63176430D01*
X43310602Y-63128531D01*
X43439874Y-63050382D01*
X43504023Y-63032500D01*
X43881532Y-63032500D01*
X43881533Y-63032499D01*
X44012036Y-63006541D01*
X44134969Y-62955620D01*
X44245606Y-62881695D01*
X44720695Y-62406606D01*
X44734959Y-62385258D01*
X44734960Y-62385258D01*
X44794613Y-62295979D01*
X44794620Y-62295969D01*
X44845540Y-62173036D01*
X44865568Y-62072352D01*
X44871500Y-62042533D01*
X44871500Y-60616500D01*
X44891185Y-60549461D01*
X44943989Y-60503706D01*
X44995500Y-60492500D01*
X47578902Y-60492500D01*
X47645941Y-60512185D01*
X47691696Y-60564989D01*
X47701640Y-60634147D01*
X47672615Y-60697703D01*
X47666583Y-60704181D01*
X46763481Y-61607282D01*
X46763479Y-61607284D01*
X46738530Y-61650498D01*
X46727985Y-61668764D01*
X46702000Y-61713771D01*
X46686297Y-61740970D01*
X46684423Y-61744215D01*
X46643499Y-61896943D01*
X46643499Y-61896945D01*
X46643499Y-62065046D01*
X46643500Y-62065059D01*
X46643500Y-62504330D01*
X46643499Y-62504348D01*
X46643499Y-62670054D01*
X46643498Y-62670054D01*
X46643499Y-62670057D01*
X46683364Y-62818834D01*
X46684423Y-62822784D01*
X46684423Y-62822785D01*
X46713133Y-62872512D01*
X46713133Y-62872513D01*
X46763475Y-62959709D01*
X46763481Y-62959717D01*
X46882349Y-63078585D01*
X46882355Y-63078590D01*
X48061404Y-64257640D01*
X48094889Y-64318963D01*
X48089905Y-64388655D01*
X48079840Y-64409470D01*
X48048929Y-64460602D01*
X48048927Y-64460606D01*
X48001067Y-64614197D01*
X48001064Y-64614207D01*
X47998085Y-64646999D01*
X47998085Y-64647000D01*
X49183500Y-64647000D01*
X49250539Y-64666685D01*
X49296294Y-64719489D01*
X49307500Y-64771000D01*
X49307500Y-65023000D01*
X49287815Y-65090039D01*
X49235011Y-65135794D01*
X49183500Y-65147000D01*
X47998085Y-65147000D01*
X48001064Y-65179792D01*
X48001067Y-65179802D01*
X48048060Y-65330610D01*
X48049211Y-65400470D01*
X48012410Y-65459863D01*
X47949342Y-65489930D01*
X47929675Y-65491500D01*
X47482467Y-65491500D01*
X47351969Y-65517458D01*
X47351959Y-65517461D01*
X47229038Y-65568376D01*
X47229020Y-65568386D01*
X47118398Y-65642301D01*
X47118395Y-65642303D01*
X47082347Y-65678352D01*
X46983516Y-65777182D01*
X46922196Y-65810666D01*
X46895837Y-65813500D01*
X46858379Y-65813500D01*
X46674756Y-65850025D01*
X46674748Y-65850027D01*
X46501771Y-65921676D01*
X46501762Y-65921681D01*
X46346092Y-66025697D01*
X46346088Y-66025700D01*
X46213700Y-66158088D01*
X46213697Y-66158092D01*
X46109681Y-66313762D01*
X46109676Y-66313771D01*
X46038027Y-66486748D01*
X46038025Y-66486756D01*
X46001500Y-66670379D01*
X46001500Y-66857620D01*
X46038025Y-67041243D01*
X46038027Y-67041251D01*
X46109676Y-67214228D01*
X46109681Y-67214237D01*
X46213697Y-67369907D01*
X46213700Y-67369911D01*
X46346088Y-67502299D01*
X46346092Y-67502302D01*
X46501762Y-67606318D01*
X46501775Y-67606325D01*
X46566952Y-67633322D01*
X46621356Y-67677163D01*
X46643421Y-67743457D01*
X46643500Y-67747883D01*
X46643500Y-68747330D01*
X46643499Y-68747348D01*
X46643499Y-68913054D01*
X46643498Y-68913054D01*
X46656833Y-68962821D01*
X46684423Y-69065785D01*
X46698571Y-69090289D01*
X46709084Y-69108498D01*
X46763479Y-69202715D01*
X46882349Y-69321585D01*
X46882355Y-69321590D01*
X48283139Y-70722374D01*
X48283149Y-70722385D01*
X48287479Y-70726715D01*
X48287480Y-70726716D01*
X48399284Y-70838520D01*
X48399286Y-70838521D01*
X48399290Y-70838524D01*
X48493148Y-70892712D01*
X48536216Y-70917577D01*
X48639620Y-70945284D01*
X48639619Y-70945284D01*
X48650042Y-70948076D01*
X48688942Y-70958500D01*
X48688943Y-70958500D01*
X49059500Y-70958500D01*
X49126539Y-70978185D01*
X49172294Y-71030989D01*
X49183500Y-71082500D01*
X49183500Y-71090000D01*
X49163815Y-71157039D01*
X49111011Y-71202794D01*
X49059500Y-71214000D01*
X48445000Y-71214000D01*
X48445000Y-71885000D01*
X48425315Y-71952039D01*
X48372511Y-71997794D01*
X48321000Y-72009000D01*
X48195000Y-72009000D01*
X48195000Y-72135000D01*
X48175315Y-72202039D01*
X48122511Y-72247794D01*
X48071000Y-72259000D01*
X46710000Y-72259000D01*
X46710000Y-72267863D01*
X46724768Y-72380028D01*
X46724769Y-72380032D01*
X46782578Y-72519598D01*
X46819797Y-72568102D01*
X46844991Y-72633272D01*
X46830953Y-72701716D01*
X46819798Y-72719074D01*
X46782143Y-72768147D01*
X46724282Y-72907837D01*
X46724281Y-72907841D01*
X46709500Y-73020105D01*
X46709500Y-73470795D01*
X46689815Y-73537834D01*
X46673181Y-73558476D01*
X46470786Y-73760872D01*
X46358981Y-73872676D01*
X46358979Y-73872678D01*
X46343676Y-73899185D01*
X46332704Y-73918190D01*
X46279923Y-74009609D01*
X46238999Y-74162337D01*
X46238999Y-74162339D01*
X46238999Y-74330440D01*
X46239000Y-74330453D01*
X46239000Y-74692583D01*
X46219315Y-74759622D01*
X46166511Y-74805377D01*
X46097353Y-74815321D01*
X46067548Y-74807144D01*
X45997255Y-74778028D01*
X45997243Y-74778025D01*
X45813620Y-74741500D01*
X45813616Y-74741500D01*
X45626384Y-74741500D01*
X45626379Y-74741500D01*
X45442756Y-74778025D01*
X45442748Y-74778027D01*
X45269771Y-74849676D01*
X45269762Y-74849681D01*
X45114092Y-74953697D01*
X45114088Y-74953700D01*
X45087608Y-74980181D01*
X45026285Y-75013666D01*
X44999927Y-75016500D01*
X44844430Y-75016500D01*
X44777391Y-74996815D01*
X44731636Y-74944011D01*
X44721491Y-74876314D01*
X44721665Y-74874998D01*
X44730500Y-74807887D01*
X44730499Y-74290114D01*
X44726995Y-74263500D01*
X44715720Y-74177848D01*
X44715719Y-74177847D01*
X44715719Y-74177841D01*
X44677140Y-74084703D01*
X44657856Y-74038146D01*
X44620518Y-73989487D01*
X44595323Y-73924318D01*
X44609361Y-73855873D01*
X44620518Y-73838513D01*
X44657856Y-73789853D01*
X44703152Y-73680498D01*
X44715719Y-73650159D01*
X44730500Y-73537887D01*
X44730499Y-73020114D01*
X44727261Y-72995520D01*
X44715720Y-72907848D01*
X44715719Y-72907847D01*
X44715719Y-72907841D01*
X44670421Y-72798481D01*
X44657856Y-72768146D01*
X44620518Y-72719487D01*
X44595323Y-72654318D01*
X44609361Y-72585873D01*
X44620518Y-72568513D01*
X44657856Y-72519853D01*
X44693695Y-72433329D01*
X44715719Y-72380159D01*
X44730500Y-72267887D01*
X44730499Y-71750136D01*
X46710000Y-71750136D01*
X46710000Y-71759000D01*
X47945000Y-71759000D01*
X47945000Y-71214000D01*
X47246136Y-71214000D01*
X47133971Y-71228768D01*
X47133967Y-71228769D01*
X46994401Y-71286578D01*
X46874547Y-71378547D01*
X46782578Y-71498401D01*
X46724769Y-71637967D01*
X46724768Y-71637971D01*
X46710000Y-71750136D01*
X44730499Y-71750136D01*
X44730499Y-71750114D01*
X44724472Y-71704335D01*
X44715720Y-71637848D01*
X44715719Y-71637847D01*
X44715719Y-71637841D01*
X44657856Y-71498147D01*
X44565810Y-71378190D01*
X44445853Y-71286144D01*
X44445852Y-71286143D01*
X44445850Y-71286142D01*
X44306162Y-71228282D01*
X44306160Y-71228281D01*
X44306159Y-71228281D01*
X44291803Y-71226391D01*
X44193894Y-71213500D01*
X44193887Y-71213500D01*
X43350097Y-71213500D01*
X43283058Y-71193815D01*
X43262416Y-71177181D01*
X43037590Y-70952355D01*
X43037588Y-70952352D01*
X42918717Y-70833481D01*
X42918712Y-70833477D01*
X42806437Y-70768656D01*
X42806435Y-70768654D01*
X42781788Y-70754424D01*
X42781787Y-70754423D01*
X42713493Y-70736124D01*
X42629057Y-70713499D01*
X42470943Y-70713499D01*
X42463347Y-70713499D01*
X42463331Y-70713500D01*
X38654500Y-70713500D01*
X38587461Y-70693815D01*
X38541706Y-70641011D01*
X38530500Y-70589500D01*
X38530500Y-69763997D01*
X38530499Y-69763984D01*
X38525406Y-69714135D01*
X38519999Y-69661203D01*
X38464814Y-69494666D01*
X38458024Y-69483658D01*
X38372713Y-69345348D01*
X38372710Y-69345344D01*
X38248655Y-69221289D01*
X38248651Y-69221286D01*
X38099337Y-69129187D01*
X38099335Y-69129186D01*
X38016065Y-69101593D01*
X37932797Y-69074001D01*
X37932795Y-69074000D01*
X37830015Y-69063500D01*
X37830008Y-69063500D01*
X35829992Y-69063500D01*
X35829984Y-69063500D01*
X35727204Y-69074000D01*
X35727203Y-69074001D01*
X35560664Y-69129186D01*
X35560662Y-69129187D01*
X35411348Y-69221286D01*
X35411344Y-69221289D01*
X35287289Y-69345344D01*
X35287286Y-69345348D01*
X35195187Y-69494662D01*
X35195186Y-69494664D01*
X35140001Y-69661203D01*
X35140000Y-69661204D01*
X35129500Y-69763984D01*
X35129500Y-72864015D01*
X35140000Y-72966795D01*
X35140001Y-72966796D01*
X35195186Y-73133335D01*
X35195187Y-73133337D01*
X35287286Y-73282651D01*
X35287289Y-73282655D01*
X35411344Y-73406710D01*
X35411348Y-73406713D01*
X35560662Y-73498812D01*
X35560664Y-73498813D01*
X35560666Y-73498814D01*
X35727203Y-73553999D01*
X35829992Y-73564500D01*
X35829997Y-73564500D01*
X37830003Y-73564500D01*
X37830008Y-73564500D01*
X37932797Y-73553999D01*
X38099334Y-73498814D01*
X38248655Y-73406711D01*
X38372711Y-73282655D01*
X38464814Y-73133334D01*
X38519999Y-72966797D01*
X38530500Y-72864008D01*
X38530500Y-72038499D01*
X38550185Y-71971461D01*
X38602989Y-71925706D01*
X38654500Y-71914500D01*
X41635500Y-71914500D01*
X41702539Y-71934185D01*
X41748294Y-71986989D01*
X41759500Y-72038499D01*
X41759500Y-72267888D01*
X41774279Y-72380151D01*
X41774281Y-72380158D01*
X41774281Y-72380159D01*
X41819246Y-72488715D01*
X41826840Y-72507047D01*
X41834309Y-72576517D01*
X41803034Y-72638996D01*
X41742945Y-72674648D01*
X41712279Y-72678500D01*
X40151669Y-72678500D01*
X40151653Y-72678499D01*
X40144057Y-72678499D01*
X39985943Y-72678499D01*
X39891714Y-72703748D01*
X39833214Y-72719423D01*
X39785825Y-72746784D01*
X39785824Y-72746784D01*
X39696287Y-72798477D01*
X39696282Y-72798481D01*
X39584478Y-72910286D01*
X38203172Y-74291591D01*
X38141849Y-74325076D01*
X38076489Y-74321616D01*
X37976952Y-74288632D01*
X37932795Y-74274000D01*
X37830015Y-74263500D01*
X37830008Y-74263500D01*
X35829992Y-74263500D01*
X35829984Y-74263500D01*
X35727204Y-74274000D01*
X35727203Y-74274001D01*
X35560664Y-74329186D01*
X35560662Y-74329187D01*
X35411348Y-74421286D01*
X35411344Y-74421289D01*
X35287289Y-74545344D01*
X35287286Y-74545348D01*
X35195187Y-74694662D01*
X35195186Y-74694664D01*
X35140001Y-74861203D01*
X35140000Y-74861204D01*
X35129500Y-74963984D01*
X35129500Y-78064015D01*
X35140000Y-78166795D01*
X35140001Y-78166797D01*
X35157135Y-78218505D01*
X35195186Y-78333335D01*
X35195187Y-78333337D01*
X35287286Y-78482651D01*
X35287289Y-78482655D01*
X35411344Y-78606710D01*
X35411348Y-78606713D01*
X35560662Y-78698812D01*
X35560664Y-78698813D01*
X35560666Y-78698814D01*
X35727203Y-78753999D01*
X35829992Y-78764500D01*
X35829997Y-78764500D01*
X37830003Y-78764500D01*
X37830008Y-78764500D01*
X37932797Y-78753999D01*
X37999228Y-78731986D01*
X41255001Y-78731986D01*
X41265494Y-78834697D01*
X41320641Y-79001119D01*
X41320643Y-79001124D01*
X41412684Y-79150345D01*
X41536654Y-79274315D01*
X41685875Y-79366356D01*
X41685880Y-79366358D01*
X41852302Y-79421505D01*
X41852309Y-79421506D01*
X41955019Y-79431999D01*
X42017499Y-79431998D01*
X42017500Y-79431998D01*
X42017500Y-78482000D01*
X41255001Y-78482000D01*
X41255001Y-78731986D01*
X37999228Y-78731986D01*
X38099334Y-78698814D01*
X38248655Y-78606711D01*
X38372711Y-78482655D01*
X38464814Y-78333334D01*
X38519999Y-78166797D01*
X38530500Y-78064008D01*
X38530500Y-75714097D01*
X38550185Y-75647058D01*
X38566819Y-75626416D01*
X40277416Y-73915819D01*
X40338739Y-73882334D01*
X40365097Y-73879500D01*
X41030902Y-73879500D01*
X41097941Y-73899185D01*
X41143696Y-73951989D01*
X41153640Y-74021147D01*
X41124615Y-74084703D01*
X41118583Y-74091181D01*
X40159481Y-75050282D01*
X40159479Y-75050285D01*
X40147049Y-75071815D01*
X40132392Y-75097203D01*
X40109361Y-75137094D01*
X40109359Y-75137096D01*
X40080425Y-75187209D01*
X40080424Y-75187210D01*
X40076999Y-75199992D01*
X40039499Y-75339943D01*
X40039499Y-75339945D01*
X40039499Y-75508046D01*
X40039500Y-75508059D01*
X40039500Y-76113330D01*
X40039499Y-76113348D01*
X40039499Y-76279054D01*
X40039498Y-76279054D01*
X40080423Y-76431786D01*
X40084695Y-76439185D01*
X40090635Y-76449473D01*
X40090828Y-76449806D01*
X40090829Y-76449811D01*
X40090830Y-76449811D01*
X40159475Y-76568709D01*
X40159481Y-76568717D01*
X40278349Y-76687585D01*
X40278355Y-76687590D01*
X41219617Y-77628853D01*
X41253102Y-77690176D01*
X41255295Y-77729126D01*
X41255001Y-77732005D01*
X41255000Y-77732026D01*
X41255000Y-77982000D01*
X42143500Y-77982000D01*
X42210539Y-78001685D01*
X42256294Y-78054489D01*
X42267500Y-78106000D01*
X42267500Y-78232000D01*
X42393500Y-78232000D01*
X42460539Y-78251685D01*
X42506294Y-78304489D01*
X42517500Y-78356000D01*
X42517500Y-79431999D01*
X42579972Y-79431999D01*
X42579986Y-79431998D01*
X42682697Y-79421505D01*
X42849119Y-79366358D01*
X42849124Y-79366356D01*
X42998342Y-79274317D01*
X43091964Y-79180695D01*
X43153287Y-79147210D01*
X43222979Y-79152194D01*
X43267327Y-79180695D01*
X43361344Y-79274712D01*
X43510666Y-79366814D01*
X43677203Y-79421999D01*
X43779991Y-79432500D01*
X44405008Y-79432499D01*
X44405016Y-79432498D01*
X44405019Y-79432498D01*
X44461302Y-79426748D01*
X44507797Y-79421999D01*
X44674334Y-79366814D01*
X44823656Y-79274712D01*
X44947712Y-79150656D01*
X45039814Y-79001334D01*
X45094999Y-78834797D01*
X45105500Y-78732009D01*
X45105499Y-77731992D01*
X45102587Y-77703489D01*
X45094999Y-77629203D01*
X45094998Y-77629200D01*
X45073266Y-77563617D01*
X45039814Y-77462666D01*
X44947712Y-77313344D01*
X44823656Y-77189288D01*
X44674334Y-77097186D01*
X44507797Y-77042001D01*
X44507795Y-77042000D01*
X44405016Y-77031500D01*
X43792597Y-77031500D01*
X43725558Y-77011815D01*
X43704916Y-76995181D01*
X43535915Y-76826180D01*
X43502430Y-76764857D01*
X43507414Y-76695165D01*
X43549286Y-76639232D01*
X43614750Y-76614815D01*
X43623596Y-76614499D01*
X44193888Y-76614499D01*
X44306151Y-76599720D01*
X44306150Y-76599720D01*
X44306159Y-76599719D01*
X44445853Y-76541856D01*
X44553516Y-76459243D01*
X44581537Y-76443065D01*
X44642969Y-76417620D01*
X44686703Y-76388398D01*
X44753381Y-76367520D01*
X44755594Y-76367500D01*
X44999927Y-76367500D01*
X45066966Y-76387185D01*
X45087608Y-76403819D01*
X45114088Y-76430299D01*
X45114092Y-76430302D01*
X45269762Y-76534318D01*
X45269771Y-76534323D01*
X45308956Y-76550554D01*
X45442749Y-76605973D01*
X45609955Y-76639232D01*
X45626379Y-76642499D01*
X45626383Y-76642500D01*
X45626384Y-76642500D01*
X45813617Y-76642500D01*
X45813618Y-76642499D01*
X45997251Y-76605973D01*
X46067547Y-76576854D01*
X46137016Y-76569386D01*
X46199496Y-76600661D01*
X46235148Y-76660750D01*
X46239000Y-76691416D01*
X46239000Y-77039491D01*
X46219315Y-77106530D01*
X46180098Y-77145029D01*
X46108344Y-77189287D01*
X45984289Y-77313342D01*
X45892187Y-77462663D01*
X45892185Y-77462668D01*
X45871801Y-77524184D01*
X45837001Y-77629203D01*
X45837001Y-77629204D01*
X45837000Y-77629204D01*
X45826500Y-77731983D01*
X45826500Y-78732001D01*
X45826501Y-78732019D01*
X45837000Y-78834796D01*
X45837001Y-78834799D01*
X45892185Y-79001331D01*
X45892187Y-79001336D01*
X45897000Y-79009139D01*
X45984288Y-79150656D01*
X46108344Y-79274712D01*
X46257666Y-79366814D01*
X46424203Y-79421999D01*
X46526991Y-79432500D01*
X47152008Y-79432499D01*
X47152016Y-79432498D01*
X47152019Y-79432498D01*
X47208302Y-79426748D01*
X47254797Y-79421999D01*
X47421334Y-79366814D01*
X47570656Y-79274712D01*
X47664675Y-79180692D01*
X47725994Y-79147210D01*
X47795686Y-79152194D01*
X47840034Y-79180695D01*
X47933654Y-79274315D01*
X48082875Y-79366356D01*
X48082880Y-79366358D01*
X48249302Y-79421505D01*
X48249309Y-79421506D01*
X48352019Y-79431999D01*
X48914500Y-79431999D01*
X48976972Y-79431999D01*
X48976986Y-79431998D01*
X49079697Y-79421505D01*
X49246119Y-79366358D01*
X49246124Y-79366356D01*
X49395345Y-79274315D01*
X49519315Y-79150345D01*
X49611356Y-79001124D01*
X49611358Y-79001119D01*
X49666505Y-78834697D01*
X49666506Y-78834690D01*
X49676999Y-78731986D01*
X49677000Y-78731973D01*
X49677000Y-78482000D01*
X48914500Y-78482000D01*
X48914500Y-79431999D01*
X48352019Y-79431999D01*
X48414499Y-79431998D01*
X48414500Y-79431998D01*
X48414500Y-77982000D01*
X48914500Y-77982000D01*
X49676999Y-77982000D01*
X49676999Y-77732028D01*
X49676998Y-77732013D01*
X49666505Y-77629302D01*
X49611358Y-77462880D01*
X49611356Y-77462875D01*
X49519315Y-77313654D01*
X49395345Y-77189684D01*
X49246124Y-77097643D01*
X49246119Y-77097641D01*
X49079697Y-77042494D01*
X49079690Y-77042493D01*
X48976986Y-77032000D01*
X48914500Y-77032000D01*
X48914500Y-77982000D01*
X48414500Y-77982000D01*
X48414500Y-77032000D01*
X48414499Y-77031999D01*
X48352028Y-77032000D01*
X48352011Y-77032001D01*
X48249302Y-77042494D01*
X48082880Y-77097641D01*
X48082875Y-77097643D01*
X47933657Y-77189682D01*
X47840034Y-77283305D01*
X47778710Y-77316789D01*
X47709019Y-77311805D01*
X47664672Y-77283304D01*
X47570655Y-77189287D01*
X47498902Y-77145029D01*
X47452178Y-77093081D01*
X47440000Y-77039491D01*
X47440000Y-76738499D01*
X47459685Y-76671460D01*
X47512489Y-76625705D01*
X47564000Y-76614499D01*
X49143888Y-76614499D01*
X49256151Y-76599720D01*
X49256150Y-76599720D01*
X49256159Y-76599719D01*
X49395853Y-76541856D01*
X49515810Y-76449810D01*
X49515809Y-76449810D01*
X49521917Y-76445124D01*
X49587086Y-76419930D01*
X49597403Y-76419500D01*
X50075500Y-76419500D01*
X50142539Y-76439185D01*
X50188294Y-76491989D01*
X50199500Y-76543500D01*
X50199500Y-78947903D01*
X50179815Y-79014942D01*
X50163181Y-79035584D01*
X49317584Y-79881181D01*
X49256261Y-79914666D01*
X49229903Y-79917500D01*
X42338940Y-79917500D01*
X42298019Y-79928464D01*
X42298019Y-79928465D01*
X42282569Y-79932605D01*
X42186214Y-79958423D01*
X42186209Y-79958426D01*
X42049290Y-80037475D01*
X42049282Y-80037481D01*
X41429481Y-80657282D01*
X41429479Y-80657285D01*
X41379361Y-80744094D01*
X41379359Y-80744096D01*
X41350425Y-80794209D01*
X41350424Y-80794210D01*
X41350423Y-80794215D01*
X41309499Y-80946943D01*
X41309499Y-80946945D01*
X41309499Y-81115046D01*
X41309500Y-81115059D01*
X41309500Y-81264281D01*
X41289815Y-81331320D01*
X41241795Y-81374765D01*
X41202185Y-81394947D01*
X41202184Y-81394948D01*
X41030215Y-81519889D01*
X40916673Y-81633431D01*
X40855350Y-81666915D01*
X40785658Y-81661931D01*
X40729725Y-81620059D01*
X40712810Y-81589082D01*
X40663797Y-81457671D01*
X40663793Y-81457664D01*
X40577547Y-81342455D01*
X40577544Y-81342452D01*
X40462335Y-81256206D01*
X40462328Y-81256202D01*
X40327482Y-81205908D01*
X40327483Y-81205908D01*
X40267883Y-81199501D01*
X40267881Y-81199500D01*
X40267873Y-81199500D01*
X40267864Y-81199500D01*
X38472129Y-81199500D01*
X38472123Y-81199501D01*
X38412516Y-81205908D01*
X38277671Y-81256202D01*
X38277664Y-81256206D01*
X38162455Y-81342452D01*
X38162452Y-81342455D01*
X38076206Y-81457664D01*
X38076202Y-81457671D01*
X38025908Y-81592517D01*
X38019501Y-81652116D01*
X38019500Y-81652135D01*
X38019500Y-83447870D01*
X38019501Y-83447876D01*
X38025908Y-83507483D01*
X38076202Y-83642328D01*
X38076206Y-83642335D01*
X38162452Y-83757544D01*
X38162455Y-83757547D01*
X38277664Y-83843793D01*
X38277671Y-83843797D01*
X38412517Y-83894091D01*
X38412516Y-83894091D01*
X38419444Y-83894835D01*
X38472127Y-83900500D01*
X40267872Y-83900499D01*
X40327483Y-83894091D01*
X40462331Y-83843796D01*
X40577546Y-83757546D01*
X40663796Y-83642331D01*
X40712810Y-83510916D01*
X40754681Y-83454984D01*
X40820145Y-83430566D01*
X40888418Y-83445417D01*
X40916673Y-83466569D01*
X41030213Y-83580109D01*
X41202179Y-83705048D01*
X41202181Y-83705049D01*
X41202184Y-83705051D01*
X41391588Y-83801557D01*
X41593757Y-83867246D01*
X41803713Y-83900500D01*
X41803714Y-83900500D01*
X42016286Y-83900500D01*
X42016287Y-83900500D01*
X42226243Y-83867246D01*
X42428412Y-83801557D01*
X42617816Y-83705051D01*
X42672572Y-83665269D01*
X42789786Y-83580109D01*
X42789788Y-83580106D01*
X42789792Y-83580104D01*
X42940104Y-83429792D01*
X42940106Y-83429788D01*
X42940109Y-83429786D01*
X43065048Y-83257820D01*
X43065047Y-83257820D01*
X43065051Y-83257816D01*
X43069514Y-83249054D01*
X43117488Y-83198259D01*
X43185308Y-83181463D01*
X43251444Y-83203999D01*
X43290486Y-83249056D01*
X43294951Y-83257820D01*
X43419890Y-83429786D01*
X43570213Y-83580109D01*
X43742179Y-83705048D01*
X43742181Y-83705049D01*
X43742184Y-83705051D01*
X43931588Y-83801557D01*
X44133757Y-83867246D01*
X44343713Y-83900500D01*
X44343714Y-83900500D01*
X44556286Y-83900500D01*
X44556287Y-83900500D01*
X44766243Y-83867246D01*
X44968412Y-83801557D01*
X45157816Y-83705051D01*
X45212572Y-83665269D01*
X45329786Y-83580109D01*
X45329788Y-83580106D01*
X45329792Y-83580104D01*
X45480104Y-83429792D01*
X45480106Y-83429788D01*
X45480109Y-83429786D01*
X45605048Y-83257820D01*
X45605047Y-83257820D01*
X45605051Y-83257816D01*
X45609514Y-83249054D01*
X45657488Y-83198259D01*
X45725308Y-83181463D01*
X45791444Y-83203999D01*
X45830486Y-83249056D01*
X45834951Y-83257820D01*
X45959890Y-83429786D01*
X46110213Y-83580109D01*
X46282179Y-83705048D01*
X46282181Y-83705049D01*
X46282184Y-83705051D01*
X46471588Y-83801557D01*
X46673757Y-83867246D01*
X46883713Y-83900500D01*
X46883714Y-83900500D01*
X47096286Y-83900500D01*
X47096287Y-83900500D01*
X47306243Y-83867246D01*
X47508412Y-83801557D01*
X47697816Y-83705051D01*
X47752572Y-83665269D01*
X47869786Y-83580109D01*
X47869788Y-83580106D01*
X47869792Y-83580104D01*
X48020104Y-83429792D01*
X48020106Y-83429788D01*
X48020109Y-83429786D01*
X48145048Y-83257820D01*
X48145047Y-83257820D01*
X48145051Y-83257816D01*
X48149514Y-83249054D01*
X48197488Y-83198259D01*
X48265308Y-83181463D01*
X48331444Y-83203999D01*
X48370486Y-83249056D01*
X48374951Y-83257820D01*
X48499890Y-83429786D01*
X48650213Y-83580109D01*
X48822179Y-83705048D01*
X48822181Y-83705049D01*
X48822184Y-83705051D01*
X49011588Y-83801557D01*
X49213757Y-83867246D01*
X49423713Y-83900500D01*
X49423714Y-83900500D01*
X49636286Y-83900500D01*
X49636287Y-83900500D01*
X49846243Y-83867246D01*
X50048412Y-83801557D01*
X50237816Y-83705051D01*
X50292572Y-83665269D01*
X50409786Y-83580109D01*
X50409788Y-83580106D01*
X50409792Y-83580104D01*
X50560104Y-83429792D01*
X50560106Y-83429788D01*
X50560109Y-83429786D01*
X50685048Y-83257820D01*
X50685047Y-83257820D01*
X50685051Y-83257816D01*
X50689514Y-83249054D01*
X50737488Y-83198259D01*
X50805308Y-83181463D01*
X50871444Y-83203999D01*
X50910486Y-83249056D01*
X50914951Y-83257820D01*
X51039890Y-83429786D01*
X51190213Y-83580109D01*
X51362179Y-83705048D01*
X51362181Y-83705049D01*
X51362184Y-83705051D01*
X51551588Y-83801557D01*
X51753757Y-83867246D01*
X51963713Y-83900500D01*
X51963714Y-83900500D01*
X52176286Y-83900500D01*
X52176287Y-83900500D01*
X52386243Y-83867246D01*
X52588412Y-83801557D01*
X52777816Y-83705051D01*
X52832572Y-83665269D01*
X52949786Y-83580109D01*
X52949788Y-83580106D01*
X52949792Y-83580104D01*
X53100104Y-83429792D01*
X53100106Y-83429788D01*
X53100109Y-83429786D01*
X53225048Y-83257820D01*
X53225047Y-83257820D01*
X53225051Y-83257816D01*
X53229514Y-83249054D01*
X53277488Y-83198259D01*
X53345308Y-83181463D01*
X53411444Y-83203999D01*
X53450486Y-83249056D01*
X53454951Y-83257820D01*
X53579890Y-83429786D01*
X53730213Y-83580109D01*
X53902179Y-83705048D01*
X53902181Y-83705049D01*
X53902184Y-83705051D01*
X54091588Y-83801557D01*
X54293757Y-83867246D01*
X54503713Y-83900500D01*
X54503714Y-83900500D01*
X54716286Y-83900500D01*
X54716287Y-83900500D01*
X54926243Y-83867246D01*
X55128412Y-83801557D01*
X55317816Y-83705051D01*
X55372572Y-83665269D01*
X55489786Y-83580109D01*
X55489788Y-83580106D01*
X55489792Y-83580104D01*
X55640104Y-83429792D01*
X55640106Y-83429788D01*
X55640109Y-83429786D01*
X55765048Y-83257820D01*
X55765047Y-83257820D01*
X55765051Y-83257816D01*
X55769514Y-83249054D01*
X55817488Y-83198259D01*
X55885308Y-83181463D01*
X55951444Y-83203999D01*
X55990486Y-83249056D01*
X55994951Y-83257820D01*
X56119890Y-83429786D01*
X56270213Y-83580109D01*
X56442179Y-83705048D01*
X56442181Y-83705049D01*
X56442184Y-83705051D01*
X56631588Y-83801557D01*
X56833757Y-83867246D01*
X57043713Y-83900500D01*
X57043714Y-83900500D01*
X57256286Y-83900500D01*
X57256287Y-83900500D01*
X57466243Y-83867246D01*
X57668412Y-83801557D01*
X57857816Y-83705051D01*
X57912572Y-83665269D01*
X58029786Y-83580109D01*
X58029788Y-83580106D01*
X58029792Y-83580104D01*
X58180104Y-83429792D01*
X58180106Y-83429788D01*
X58180109Y-83429786D01*
X58265890Y-83311717D01*
X58305051Y-83257816D01*
X58309793Y-83248508D01*
X58357763Y-83197711D01*
X58425583Y-83180911D01*
X58491719Y-83203445D01*
X58530763Y-83248500D01*
X58535373Y-83257547D01*
X58574728Y-83311716D01*
X59207037Y-82679408D01*
X59224075Y-82742993D01*
X59289901Y-82857007D01*
X59382993Y-82950099D01*
X59497007Y-83015925D01*
X59560590Y-83032962D01*
X58928282Y-83665269D01*
X58928282Y-83665270D01*
X58982449Y-83704624D01*
X59171782Y-83801095D01*
X59373870Y-83866757D01*
X59583754Y-83900000D01*
X59796246Y-83900000D01*
X60006127Y-83866757D01*
X60006130Y-83866757D01*
X60208217Y-83801095D01*
X60397554Y-83704622D01*
X60451716Y-83665270D01*
X60451717Y-83665270D01*
X59819408Y-83032962D01*
X59882993Y-83015925D01*
X59997007Y-82950099D01*
X60090099Y-82857007D01*
X60155925Y-82742993D01*
X60172962Y-82679409D01*
X60805270Y-83311717D01*
X60805270Y-83311716D01*
X60844622Y-83257554D01*
X60941095Y-83068217D01*
X61006757Y-82866130D01*
X61006757Y-82866127D01*
X61040000Y-82656246D01*
X61040000Y-82443753D01*
X61006757Y-82233872D01*
X61006757Y-82233869D01*
X60941095Y-82031782D01*
X60844624Y-81842449D01*
X60805270Y-81788282D01*
X60805269Y-81788282D01*
X60172962Y-82420590D01*
X60155925Y-82357007D01*
X60090099Y-82242993D01*
X59997007Y-82149901D01*
X59882993Y-82084075D01*
X59819409Y-82067037D01*
X60451716Y-81434728D01*
X60397550Y-81395375D01*
X60208217Y-81298904D01*
X60006129Y-81233242D01*
X59796246Y-81200000D01*
X59583754Y-81200000D01*
X59373872Y-81233242D01*
X59373869Y-81233242D01*
X59171782Y-81298904D01*
X58982439Y-81395380D01*
X58928282Y-81434727D01*
X58928282Y-81434728D01*
X59560591Y-82067037D01*
X59497007Y-82084075D01*
X59382993Y-82149901D01*
X59289901Y-82242993D01*
X59224075Y-82357007D01*
X59207037Y-82420591D01*
X58574728Y-81788282D01*
X58574727Y-81788282D01*
X58535380Y-81842440D01*
X58535376Y-81842446D01*
X58530760Y-81851505D01*
X58482781Y-81902297D01*
X58414959Y-81919087D01*
X58348826Y-81896543D01*
X58309794Y-81851493D01*
X58305051Y-81842184D01*
X58305049Y-81842181D01*
X58305048Y-81842179D01*
X58180109Y-81670213D01*
X58029786Y-81519890D01*
X57857820Y-81394951D01*
X57668414Y-81298444D01*
X57668413Y-81298443D01*
X57668412Y-81298443D01*
X57466243Y-81232754D01*
X57466241Y-81232753D01*
X57466240Y-81232753D01*
X57304957Y-81207208D01*
X57256287Y-81199500D01*
X57043713Y-81199500D01*
X56995042Y-81207208D01*
X56833760Y-81232753D01*
X56631585Y-81298444D01*
X56442179Y-81394951D01*
X56270213Y-81519890D01*
X56119890Y-81670213D01*
X55994949Y-81842182D01*
X55990484Y-81850946D01*
X55942509Y-81901742D01*
X55874688Y-81918536D01*
X55808553Y-81895998D01*
X55769516Y-81850946D01*
X55765050Y-81842182D01*
X55640109Y-81670213D01*
X55489786Y-81519890D01*
X55317820Y-81394951D01*
X55128414Y-81298444D01*
X55128413Y-81298443D01*
X55128412Y-81298443D01*
X54926243Y-81232754D01*
X54926241Y-81232753D01*
X54926240Y-81232753D01*
X54764957Y-81207208D01*
X54716287Y-81199500D01*
X54503713Y-81199500D01*
X54455042Y-81207208D01*
X54293760Y-81232753D01*
X54091585Y-81298444D01*
X53902179Y-81394951D01*
X53730213Y-81519890D01*
X53579890Y-81670213D01*
X53454949Y-81842182D01*
X53450484Y-81850946D01*
X53402509Y-81901742D01*
X53334688Y-81918536D01*
X53268553Y-81895998D01*
X53229516Y-81850946D01*
X53225050Y-81842182D01*
X53100109Y-81670213D01*
X52949786Y-81519890D01*
X52777820Y-81394951D01*
X52588414Y-81298444D01*
X52588413Y-81298443D01*
X52588412Y-81298443D01*
X52386243Y-81232754D01*
X52386241Y-81232753D01*
X52386240Y-81232753D01*
X52224957Y-81207208D01*
X52176287Y-81199500D01*
X51963713Y-81199500D01*
X51915042Y-81207208D01*
X51753760Y-81232753D01*
X51551585Y-81298444D01*
X51362179Y-81394951D01*
X51190213Y-81519890D01*
X51039890Y-81670213D01*
X50914949Y-81842182D01*
X50910484Y-81850946D01*
X50862509Y-81901742D01*
X50794688Y-81918536D01*
X50728553Y-81895998D01*
X50689516Y-81850946D01*
X50685050Y-81842182D01*
X50560109Y-81670213D01*
X50409788Y-81519892D01*
X50370605Y-81491425D01*
X50327938Y-81436096D01*
X50321958Y-81366482D01*
X50354564Y-81304687D01*
X50355738Y-81303495D01*
X51558506Y-80100728D01*
X51558511Y-80100724D01*
X51568714Y-80090520D01*
X51568716Y-80090520D01*
X51680520Y-79978716D01*
X51759577Y-79841784D01*
X51800500Y-79689057D01*
X51800500Y-76805929D01*
X51820185Y-76738890D01*
X51872989Y-76693135D01*
X51942147Y-76683191D01*
X51986498Y-76698541D01*
X52092216Y-76759577D01*
X52244943Y-76800500D01*
X52403057Y-76800500D01*
X52683500Y-76800500D01*
X52750539Y-76820185D01*
X52796294Y-76872989D01*
X52807500Y-76924500D01*
X52807500Y-77200015D01*
X52818000Y-77302795D01*
X52818001Y-77302797D01*
X52834374Y-77352208D01*
X52873186Y-77469335D01*
X52873187Y-77469337D01*
X52965286Y-77618651D01*
X52965289Y-77618655D01*
X53089344Y-77742710D01*
X53089348Y-77742713D01*
X53238662Y-77834812D01*
X53238664Y-77834813D01*
X53238666Y-77834814D01*
X53405203Y-77889999D01*
X53507992Y-77900500D01*
X54333500Y-77900500D01*
X54400539Y-77920185D01*
X54446294Y-77972989D01*
X54457500Y-78024500D01*
X54457500Y-78339330D01*
X54457499Y-78339348D01*
X54457499Y-78505054D01*
X54457498Y-78505054D01*
X54498423Y-78657787D01*
X54498424Y-78657788D01*
X54520197Y-78695500D01*
X54520198Y-78695501D01*
X54577475Y-78794709D01*
X54577479Y-78794714D01*
X54577480Y-78794716D01*
X54637480Y-78854716D01*
X54749284Y-78966520D01*
X54823103Y-79009139D01*
X54886215Y-79045577D01*
X55038943Y-79086501D01*
X55038946Y-79086501D01*
X55204653Y-79086501D01*
X55204669Y-79086500D01*
X62275331Y-79086500D01*
X62275347Y-79086501D01*
X62282943Y-79086501D01*
X62441054Y-79086501D01*
X62441057Y-79086501D01*
X62593785Y-79045577D01*
X62656897Y-79009139D01*
X62730716Y-78966520D01*
X62842520Y-78854716D01*
X62842520Y-78854714D01*
X62852724Y-78844511D01*
X62852728Y-78844506D01*
X64265819Y-77431415D01*
X64327142Y-77397930D01*
X64396834Y-77402914D01*
X64452767Y-77444786D01*
X64477184Y-77510250D01*
X64477500Y-77519096D01*
X64477500Y-77548846D01*
X64508261Y-77703489D01*
X64508264Y-77703501D01*
X64568602Y-77849172D01*
X64568609Y-77849185D01*
X64656210Y-77980288D01*
X64656213Y-77980292D01*
X64767707Y-78091786D01*
X64767711Y-78091789D01*
X64898814Y-78179390D01*
X64898827Y-78179397D01*
X65025824Y-78232000D01*
X65044503Y-78239737D01*
X65168145Y-78264331D01*
X65199153Y-78270499D01*
X65199156Y-78270500D01*
X65199158Y-78270500D01*
X65356844Y-78270500D01*
X65356845Y-78270499D01*
X65511497Y-78239737D01*
X65624166Y-78193067D01*
X65657172Y-78179397D01*
X65657172Y-78179396D01*
X65657179Y-78179394D01*
X65711663Y-78142989D01*
X65788875Y-78091398D01*
X65855553Y-78070520D01*
X65857766Y-78070500D01*
X66099415Y-78070500D01*
X66166454Y-78090185D01*
X66212209Y-78142989D01*
X66217118Y-78155489D01*
X66225040Y-78179394D01*
X66253185Y-78264331D01*
X66253187Y-78264336D01*
X66256989Y-78270500D01*
X66345288Y-78413656D01*
X66469344Y-78537712D01*
X66618666Y-78629814D01*
X66785203Y-78684999D01*
X66887991Y-78695500D01*
X67488008Y-78695499D01*
X67488016Y-78695498D01*
X67488019Y-78695498D01*
X67544302Y-78689748D01*
X67590797Y-78684999D01*
X67757334Y-78629814D01*
X67906656Y-78537712D01*
X68030712Y-78413656D01*
X68032461Y-78410819D01*
X68034169Y-78409283D01*
X68035193Y-78407989D01*
X68035414Y-78408163D01*
X68084406Y-78364096D01*
X68153368Y-78352872D01*
X68217451Y-78380713D01*
X68243537Y-78410817D01*
X68245288Y-78413656D01*
X68245289Y-78413657D01*
X68245290Y-78413658D01*
X68374451Y-78542819D01*
X68372559Y-78544710D01*
X68405774Y-78591583D01*
X68412500Y-78631867D01*
X68412500Y-79170836D01*
X68392815Y-79237875D01*
X68376181Y-79258517D01*
X66471516Y-81163181D01*
X66410193Y-81196666D01*
X66383835Y-81199500D01*
X65142129Y-81199500D01*
X65142123Y-81199501D01*
X65082516Y-81205908D01*
X64947671Y-81256202D01*
X64947664Y-81256206D01*
X64832455Y-81342452D01*
X64832452Y-81342455D01*
X64746206Y-81457664D01*
X64746202Y-81457671D01*
X64695908Y-81592517D01*
X64689501Y-81652116D01*
X64689500Y-81652135D01*
X64689500Y-83447870D01*
X64689501Y-83447876D01*
X64695908Y-83507483D01*
X64746202Y-83642328D01*
X64746206Y-83642335D01*
X64832452Y-83757544D01*
X64832455Y-83757547D01*
X64947664Y-83843793D01*
X64947671Y-83843797D01*
X65082517Y-83894091D01*
X65082516Y-83894091D01*
X65089444Y-83894835D01*
X65142127Y-83900500D01*
X66937872Y-83900499D01*
X66997483Y-83894091D01*
X67132331Y-83843796D01*
X67247546Y-83757546D01*
X67333796Y-83642331D01*
X67384091Y-83507483D01*
X67390500Y-83447873D01*
X67390499Y-83423979D01*
X67393330Y-83410963D01*
X67403940Y-83391525D01*
X67410179Y-83370275D01*
X67426803Y-83349643D01*
X67426808Y-83349636D01*
X67426811Y-83349634D01*
X67426818Y-83349626D01*
X68097037Y-82679408D01*
X68114075Y-82742993D01*
X68179901Y-82857007D01*
X68272993Y-82950099D01*
X68387007Y-83015925D01*
X68450590Y-83032962D01*
X67818282Y-83665269D01*
X67818282Y-83665270D01*
X67872449Y-83704624D01*
X68061782Y-83801095D01*
X68263870Y-83866757D01*
X68473754Y-83900000D01*
X68686246Y-83900000D01*
X68896127Y-83866757D01*
X68896130Y-83866757D01*
X69098217Y-83801095D01*
X69287554Y-83704622D01*
X69341716Y-83665270D01*
X69341717Y-83665270D01*
X68709408Y-83032962D01*
X68772993Y-83015925D01*
X68887007Y-82950099D01*
X68980099Y-82857007D01*
X69045925Y-82742993D01*
X69062962Y-82679408D01*
X69695270Y-83311717D01*
X69695270Y-83311716D01*
X69734622Y-83257555D01*
X69739232Y-83248507D01*
X69787205Y-83197709D01*
X69855025Y-83180912D01*
X69921161Y-83203447D01*
X69960204Y-83248504D01*
X69964949Y-83257817D01*
X70089890Y-83429786D01*
X70240213Y-83580109D01*
X70412179Y-83705048D01*
X70412181Y-83705049D01*
X70412184Y-83705051D01*
X70601588Y-83801557D01*
X70803757Y-83867246D01*
X71013713Y-83900500D01*
X71013714Y-83900500D01*
X71226286Y-83900500D01*
X71226287Y-83900500D01*
X71436243Y-83867246D01*
X71638412Y-83801557D01*
X71827816Y-83705051D01*
X71882572Y-83665269D01*
X71999786Y-83580109D01*
X71999788Y-83580106D01*
X71999792Y-83580104D01*
X72150104Y-83429792D01*
X72150106Y-83429788D01*
X72150109Y-83429786D01*
X72275048Y-83257820D01*
X72275047Y-83257820D01*
X72275051Y-83257816D01*
X72279514Y-83249054D01*
X72327488Y-83198259D01*
X72395308Y-83181463D01*
X72461444Y-83203999D01*
X72500486Y-83249056D01*
X72504951Y-83257820D01*
X72629890Y-83429786D01*
X72780213Y-83580109D01*
X72952179Y-83705048D01*
X72952181Y-83705049D01*
X72952184Y-83705051D01*
X73141588Y-83801557D01*
X73343757Y-83867246D01*
X73553713Y-83900500D01*
X73553714Y-83900500D01*
X73766286Y-83900500D01*
X73766287Y-83900500D01*
X73976243Y-83867246D01*
X74178412Y-83801557D01*
X74367816Y-83705051D01*
X74422572Y-83665269D01*
X74539786Y-83580109D01*
X74539788Y-83580106D01*
X74539792Y-83580104D01*
X74690104Y-83429792D01*
X74690106Y-83429788D01*
X74690109Y-83429786D01*
X74815048Y-83257820D01*
X74815047Y-83257820D01*
X74815051Y-83257816D01*
X74911557Y-83068412D01*
X74977246Y-82866243D01*
X75010500Y-82656287D01*
X75010500Y-82443713D01*
X74977246Y-82233757D01*
X74911557Y-82031588D01*
X74815051Y-81842184D01*
X74815049Y-81842181D01*
X74815048Y-81842179D01*
X74690109Y-81670213D01*
X74539786Y-81519890D01*
X74367820Y-81394951D01*
X74178414Y-81298444D01*
X74178413Y-81298443D01*
X74178412Y-81298443D01*
X73976243Y-81232754D01*
X73976241Y-81232753D01*
X73976240Y-81232753D01*
X73814957Y-81207208D01*
X73766287Y-81199500D01*
X73553713Y-81199500D01*
X73505042Y-81207208D01*
X73343760Y-81232753D01*
X73141585Y-81298444D01*
X72952179Y-81394951D01*
X72780213Y-81519890D01*
X72629890Y-81670213D01*
X72504949Y-81842182D01*
X72500484Y-81850946D01*
X72452509Y-81901742D01*
X72384688Y-81918536D01*
X72318553Y-81895998D01*
X72279516Y-81850946D01*
X72275050Y-81842182D01*
X72150109Y-81670213D01*
X71999786Y-81519890D01*
X71827820Y-81394951D01*
X71638414Y-81298444D01*
X71638413Y-81298443D01*
X71638412Y-81298443D01*
X71436243Y-81232754D01*
X71436241Y-81232753D01*
X71436240Y-81232753D01*
X71274957Y-81207208D01*
X71226287Y-81199500D01*
X71013713Y-81199500D01*
X70965042Y-81207208D01*
X70803760Y-81232753D01*
X70601585Y-81298444D01*
X70412179Y-81394951D01*
X70240213Y-81519890D01*
X70089890Y-81670213D01*
X69964949Y-81842182D01*
X69960202Y-81851499D01*
X69912227Y-81902293D01*
X69844405Y-81919087D01*
X69778271Y-81896548D01*
X69739234Y-81851495D01*
X69734626Y-81842452D01*
X69695270Y-81788282D01*
X69695269Y-81788282D01*
X69062962Y-82420590D01*
X69045925Y-82357007D01*
X68980099Y-82242993D01*
X68887007Y-82149901D01*
X68772993Y-82084075D01*
X68709408Y-82067037D01*
X69341716Y-81434728D01*
X69287550Y-81395375D01*
X69098217Y-81298904D01*
X68896129Y-81233242D01*
X68686246Y-81200000D01*
X68644662Y-81200000D01*
X68577623Y-81180315D01*
X68531868Y-81127511D01*
X68521924Y-81058353D01*
X68550949Y-80994797D01*
X68556973Y-80988326D01*
X69612695Y-79932606D01*
X69686620Y-79821969D01*
X69737541Y-79699036D01*
X69763500Y-79568531D01*
X69763500Y-79435469D01*
X69763500Y-78631867D01*
X69783185Y-78564828D01*
X69802386Y-78543656D01*
X69801549Y-78542819D01*
X69864981Y-78479387D01*
X69930712Y-78413656D01*
X70022814Y-78264334D01*
X70032582Y-78234853D01*
X70072352Y-78177412D01*
X70136868Y-78150588D01*
X70205644Y-78162902D01*
X70237968Y-78186179D01*
X70260088Y-78208299D01*
X70260092Y-78208302D01*
X70415762Y-78312318D01*
X70415768Y-78312321D01*
X70415769Y-78312322D01*
X70588749Y-78383973D01*
X70737977Y-78413656D01*
X70772379Y-78420499D01*
X70772383Y-78420500D01*
X70772384Y-78420500D01*
X70959617Y-78420500D01*
X70959618Y-78420499D01*
X71143251Y-78383973D01*
X71316231Y-78312322D01*
X71471908Y-78208302D01*
X71604302Y-78075908D01*
X71708322Y-77920231D01*
X71779973Y-77747251D01*
X71816500Y-77563616D01*
X71816500Y-77376384D01*
X71779973Y-77192749D01*
X71716491Y-77039491D01*
X71708323Y-77019771D01*
X71708318Y-77019762D01*
X71604302Y-76864092D01*
X71604299Y-76864088D01*
X71471911Y-76731700D01*
X71471907Y-76731697D01*
X71316237Y-76627681D01*
X71316228Y-76627676D01*
X71143251Y-76556027D01*
X71143243Y-76556025D01*
X70959620Y-76519500D01*
X70959616Y-76519500D01*
X70772384Y-76519500D01*
X70772379Y-76519500D01*
X70588756Y-76556025D01*
X70588748Y-76556027D01*
X70415771Y-76627676D01*
X70415762Y-76627681D01*
X70260092Y-76731697D01*
X70237967Y-76753822D01*
X70176643Y-76787306D01*
X70106951Y-76782320D01*
X70051018Y-76740448D01*
X70032581Y-76705142D01*
X70030964Y-76700263D01*
X70022814Y-76675666D01*
X69930712Y-76526344D01*
X69806656Y-76402288D01*
X69801549Y-76397181D01*
X69803435Y-76395294D01*
X69770212Y-76348375D01*
X69763500Y-76308132D01*
X69763500Y-74821867D01*
X69783185Y-74754828D01*
X69802386Y-74733656D01*
X69801549Y-74732819D01*
X69850633Y-74683735D01*
X69930712Y-74603656D01*
X70022814Y-74454334D01*
X70077999Y-74287797D01*
X70088500Y-74185009D01*
X70088499Y-73239499D01*
X70108183Y-73172461D01*
X70160987Y-73126706D01*
X70212499Y-73115500D01*
X73194331Y-73115500D01*
X73194347Y-73115501D01*
X73201943Y-73115501D01*
X73360054Y-73115501D01*
X73360057Y-73115501D01*
X73512785Y-73074577D01*
X73562904Y-73045639D01*
X73649716Y-72995520D01*
X73761520Y-72883716D01*
X73761520Y-72883714D01*
X73771728Y-72873507D01*
X73771730Y-72873504D01*
X78978506Y-67666728D01*
X78978511Y-67666724D01*
X78988714Y-67656520D01*
X78988716Y-67656520D01*
X79018788Y-67626447D01*
X79080108Y-67592963D01*
X79149800Y-67597947D01*
X79179353Y-67613810D01*
X79288112Y-67692827D01*
X79302184Y-67703051D01*
X79491588Y-67799557D01*
X79693757Y-67865246D01*
X79903713Y-67898500D01*
X79903714Y-67898500D01*
X80116286Y-67898500D01*
X80116287Y-67898500D01*
X80326243Y-67865246D01*
X80528412Y-67799557D01*
X80717816Y-67703051D01*
X80806463Y-67638646D01*
X80889786Y-67578109D01*
X80889788Y-67578106D01*
X80889792Y-67578104D01*
X81040104Y-67427792D01*
X81040106Y-67427788D01*
X81040109Y-67427786D01*
X81165048Y-67255820D01*
X81165047Y-67255820D01*
X81165051Y-67255816D01*
X81261557Y-67066412D01*
X81322041Y-66880259D01*
X81361479Y-66822585D01*
X81425837Y-66795387D01*
X81494684Y-66807302D01*
X81546159Y-66854546D01*
X81563972Y-66918579D01*
X81563972Y-69529941D01*
X81544287Y-69596980D01*
X81491483Y-69642735D01*
X81422325Y-69652679D01*
X81358769Y-69623654D01*
X81323790Y-69573274D01*
X81303797Y-69519671D01*
X81303793Y-69519664D01*
X81217547Y-69404455D01*
X81217544Y-69404452D01*
X81102335Y-69318206D01*
X81102328Y-69318202D01*
X80967482Y-69267908D01*
X80967483Y-69267908D01*
X80907883Y-69261501D01*
X80907881Y-69261500D01*
X80907873Y-69261500D01*
X80907864Y-69261500D01*
X79112129Y-69261500D01*
X79112123Y-69261501D01*
X79052516Y-69267908D01*
X78917671Y-69318202D01*
X78917664Y-69318206D01*
X78802455Y-69404452D01*
X78802452Y-69404455D01*
X78716206Y-69519664D01*
X78716202Y-69519671D01*
X78665908Y-69654517D01*
X78659501Y-69714116D01*
X78659500Y-69714135D01*
X78659500Y-71509870D01*
X78659501Y-71509876D01*
X78665908Y-71569483D01*
X78716202Y-71704328D01*
X78716206Y-71704335D01*
X78802452Y-71819544D01*
X78802455Y-71819547D01*
X78917664Y-71905793D01*
X78917671Y-71905797D01*
X78962618Y-71922561D01*
X79052517Y-71956091D01*
X79112127Y-71962500D01*
X79122685Y-71962499D01*
X79189723Y-71982179D01*
X79210372Y-71998818D01*
X79880591Y-72669037D01*
X79817007Y-72686075D01*
X79702993Y-72751901D01*
X79609901Y-72844993D01*
X79544075Y-72959007D01*
X79527037Y-73022591D01*
X78894728Y-72390282D01*
X78894727Y-72390282D01*
X78855380Y-72444439D01*
X78758904Y-72633782D01*
X78693242Y-72835869D01*
X78693242Y-72835872D01*
X78660000Y-73045753D01*
X78660000Y-73258246D01*
X78693242Y-73468127D01*
X78693242Y-73468130D01*
X78758904Y-73670217D01*
X78855375Y-73859550D01*
X78894728Y-73913716D01*
X79527037Y-73281408D01*
X79544075Y-73344993D01*
X79609901Y-73459007D01*
X79702993Y-73552099D01*
X79817007Y-73617925D01*
X79880590Y-73634962D01*
X79248282Y-74267269D01*
X79248282Y-74267270D01*
X79302452Y-74306626D01*
X79302451Y-74306626D01*
X79311495Y-74311234D01*
X79362292Y-74359208D01*
X79379087Y-74427029D01*
X79356550Y-74493164D01*
X79311499Y-74532202D01*
X79302182Y-74536949D01*
X79130213Y-74661890D01*
X78979890Y-74812213D01*
X78854948Y-74984184D01*
X78854947Y-74984185D01*
X78834765Y-75023795D01*
X78786791Y-75074591D01*
X78724281Y-75091500D01*
X78024097Y-75091500D01*
X77957058Y-75071815D01*
X77936416Y-75055181D01*
X77542574Y-74661339D01*
X77509089Y-74600016D01*
X77508638Y-74597849D01*
X77481850Y-74463181D01*
X77477737Y-74442503D01*
X77443915Y-74360849D01*
X77417397Y-74296827D01*
X77417390Y-74296814D01*
X77329789Y-74165711D01*
X77329786Y-74165707D01*
X77218292Y-74054213D01*
X77218288Y-74054210D01*
X77087185Y-73966609D01*
X77087172Y-73966602D01*
X76941501Y-73906264D01*
X76941489Y-73906261D01*
X76786845Y-73875500D01*
X76786842Y-73875500D01*
X76629158Y-73875500D01*
X76629155Y-73875500D01*
X76474510Y-73906261D01*
X76474498Y-73906264D01*
X76328827Y-73966602D01*
X76328814Y-73966609D01*
X76197711Y-74054210D01*
X76197707Y-74054213D01*
X76086213Y-74165707D01*
X76086208Y-74165713D01*
X76046278Y-74225472D01*
X75992665Y-74270277D01*
X75923340Y-74278983D01*
X75860313Y-74248827D01*
X75855496Y-74244261D01*
X75510574Y-73899339D01*
X75477089Y-73838016D01*
X75476638Y-73835849D01*
X75445738Y-73680510D01*
X75445737Y-73680503D01*
X75445735Y-73680498D01*
X75385397Y-73534827D01*
X75385390Y-73534814D01*
X75297789Y-73403711D01*
X75297786Y-73403707D01*
X75186292Y-73292213D01*
X75186288Y-73292210D01*
X75055185Y-73204609D01*
X75055172Y-73204602D01*
X74936486Y-73155442D01*
X74909497Y-73144263D01*
X74909489Y-73144261D01*
X74754845Y-73113500D01*
X74754842Y-73113500D01*
X74597158Y-73113500D01*
X74597155Y-73113500D01*
X74442510Y-73144261D01*
X74442498Y-73144264D01*
X74296827Y-73204602D01*
X74296814Y-73204609D01*
X74165711Y-73292210D01*
X74165707Y-73292213D01*
X74054213Y-73403707D01*
X74054210Y-73403711D01*
X73966609Y-73534814D01*
X73966602Y-73534827D01*
X73906264Y-73680498D01*
X73906261Y-73680510D01*
X73875500Y-73835153D01*
X73875500Y-73992846D01*
X73906261Y-74147489D01*
X73906264Y-74147501D01*
X73966602Y-74293172D01*
X73966609Y-74293185D01*
X74054210Y-74424288D01*
X74054213Y-74424292D01*
X74165707Y-74535786D01*
X74165711Y-74535789D01*
X74296814Y-74623390D01*
X74296827Y-74623397D01*
X74442498Y-74683735D01*
X74442503Y-74683737D01*
X74507147Y-74696595D01*
X74597849Y-74714638D01*
X74659760Y-74747023D01*
X74661339Y-74748574D01*
X78509139Y-78596374D01*
X78509149Y-78596385D01*
X78513479Y-78600715D01*
X78513480Y-78600716D01*
X78625284Y-78712520D01*
X78690917Y-78750412D01*
X78712095Y-78762639D01*
X78712097Y-78762641D01*
X78754777Y-78787283D01*
X78802992Y-78837850D01*
X78803260Y-78838373D01*
X78854949Y-78939817D01*
X78979890Y-79111786D01*
X79130213Y-79262109D01*
X79302179Y-79387048D01*
X79302181Y-79387049D01*
X79302184Y-79387051D01*
X79491588Y-79483557D01*
X79693757Y-79549246D01*
X79903713Y-79582500D01*
X79903714Y-79582500D01*
X80116286Y-79582500D01*
X80116287Y-79582500D01*
X80326243Y-79549246D01*
X80528412Y-79483557D01*
X80717816Y-79387051D01*
X80746300Y-79366356D01*
X80889786Y-79262109D01*
X80889788Y-79262106D01*
X80889792Y-79262104D01*
X81040104Y-79111792D01*
X81040106Y-79111788D01*
X81040109Y-79111786D01*
X81165048Y-78939820D01*
X81165050Y-78939817D01*
X81165051Y-78939816D01*
X81261557Y-78750412D01*
X81322041Y-78564259D01*
X81361479Y-78506585D01*
X81425837Y-78479387D01*
X81494684Y-78491302D01*
X81546159Y-78538546D01*
X81563972Y-78602579D01*
X81563972Y-81218000D01*
X81544287Y-81285039D01*
X81514372Y-81317200D01*
X78069974Y-83900499D01*
X77533039Y-84303200D01*
X77467597Y-84327676D01*
X77458639Y-84328000D01*
X37425004Y-84328000D01*
X37357965Y-84308315D01*
X37330856Y-84284698D01*
X34821449Y-81357055D01*
X34792766Y-81293344D01*
X34792089Y-81278248D01*
X34788317Y-81232991D01*
X34787888Y-81222690D01*
X34790489Y-60272709D01*
X34790500Y-60272580D01*
X34790500Y-60195276D01*
X34790500Y-60193199D01*
X34790508Y-60132170D01*
X34790504Y-60132157D01*
X34790500Y-60132120D01*
X34790500Y-60132108D01*
X34777195Y-60082451D01*
X34778858Y-60012605D01*
X34809285Y-59962686D01*
X36474973Y-58296999D01*
X41077085Y-58296999D01*
X41077085Y-58297000D01*
X42136500Y-58297000D01*
X42636500Y-58297000D01*
X43695915Y-58297000D01*
X43695914Y-58296999D01*
X48252085Y-58296999D01*
X48252085Y-58297000D01*
X49311500Y-58297000D01*
X49811500Y-58297000D01*
X50870915Y-58297000D01*
X50870914Y-58296999D01*
X50867935Y-58264207D01*
X50867932Y-58264197D01*
X50820072Y-58110607D01*
X50736836Y-57972919D01*
X50623080Y-57859163D01*
X50485396Y-57775929D01*
X50331792Y-57728065D01*
X50265043Y-57722000D01*
X49811500Y-57722000D01*
X49811500Y-58297000D01*
X49311500Y-58297000D01*
X49311500Y-57722000D01*
X48857957Y-57722000D01*
X48791207Y-57728065D01*
X48637603Y-57775929D01*
X48499919Y-57859163D01*
X48386163Y-57972919D01*
X48302927Y-58110607D01*
X48255067Y-58264197D01*
X48255064Y-58264207D01*
X48252085Y-58296999D01*
X43695914Y-58296999D01*
X43692935Y-58264207D01*
X43692932Y-58264197D01*
X43645072Y-58110607D01*
X43561836Y-57972919D01*
X43448080Y-57859163D01*
X43310396Y-57775929D01*
X43156792Y-57728065D01*
X43090043Y-57722000D01*
X42636500Y-57722000D01*
X42636500Y-58297000D01*
X42136500Y-58297000D01*
X42136500Y-57722000D01*
X41682957Y-57722000D01*
X41616207Y-57728065D01*
X41462603Y-57775929D01*
X41324919Y-57859163D01*
X41211163Y-57972919D01*
X41127927Y-58110607D01*
X41080067Y-58264197D01*
X41080064Y-58264207D01*
X41077085Y-58296999D01*
X36474973Y-58296999D01*
X37331653Y-57440319D01*
X37392976Y-57406834D01*
X37419334Y-57404000D01*
X52402977Y-57404000D01*
X52470016Y-57423685D01*
G37*
%TD.AperFunction*%
%TA.AperFunction,Conductor*%
G36*
X81125270Y-73913717D02*
G01*
X81125270Y-73913716D01*
X81164622Y-73859554D01*
X81261095Y-73670217D01*
X81322041Y-73482645D01*
X81361478Y-73424970D01*
X81425837Y-73397771D01*
X81494683Y-73409685D01*
X81546159Y-73456929D01*
X81563972Y-73520963D01*
X81563972Y-75321420D01*
X81544287Y-75388459D01*
X81491483Y-75434214D01*
X81422325Y-75444158D01*
X81358769Y-75415133D01*
X81322041Y-75359738D01*
X81321488Y-75358036D01*
X81261557Y-75173588D01*
X81165051Y-74984184D01*
X81165049Y-74984181D01*
X81165048Y-74984179D01*
X81040109Y-74812213D01*
X80889786Y-74661890D01*
X80717817Y-74536949D01*
X80708504Y-74532204D01*
X80657707Y-74484230D01*
X80640912Y-74416409D01*
X80663449Y-74350274D01*
X80708507Y-74311232D01*
X80717555Y-74306622D01*
X80771716Y-74267270D01*
X80771717Y-74267270D01*
X80139408Y-73634962D01*
X80202993Y-73617925D01*
X80317007Y-73552099D01*
X80410099Y-73459007D01*
X80475925Y-73344993D01*
X80492962Y-73281408D01*
X81125270Y-73913717D01*
G37*
%TD.AperFunction*%
%TA.AperFunction,Conductor*%
G36*
X81499398Y-71585225D02*
G01*
X81548804Y-71634630D01*
X81563972Y-71694058D01*
X81563972Y-72783036D01*
X81544287Y-72850075D01*
X81491483Y-72895830D01*
X81422325Y-72905774D01*
X81358769Y-72876749D01*
X81322041Y-72821354D01*
X81261095Y-72633782D01*
X81164624Y-72444449D01*
X81125270Y-72390282D01*
X81125269Y-72390282D01*
X80492962Y-73022590D01*
X80475925Y-72959007D01*
X80410099Y-72844993D01*
X80317007Y-72751901D01*
X80202993Y-72686075D01*
X80139409Y-72669037D01*
X80809627Y-71998818D01*
X80870950Y-71965333D01*
X80897307Y-71962499D01*
X80907872Y-71962499D01*
X80967483Y-71956091D01*
X81102331Y-71905796D01*
X81217546Y-71819546D01*
X81303796Y-71704331D01*
X81323790Y-71650725D01*
X81365661Y-71594791D01*
X81431125Y-71570374D01*
X81499398Y-71585225D01*
G37*
%TD.AperFunction*%
%TA.AperFunction,Conductor*%
G36*
X67711591Y-63436385D02*
G01*
X67762476Y-63484266D01*
X67779500Y-63546973D01*
X67779500Y-63578846D01*
X67810261Y-63733489D01*
X67810264Y-63733501D01*
X67870602Y-63879172D01*
X67870609Y-63879185D01*
X67958210Y-64010288D01*
X67958213Y-64010292D01*
X68069707Y-64121786D01*
X68069711Y-64121789D01*
X68200814Y-64209390D01*
X68200827Y-64209397D01*
X68338524Y-64266432D01*
X68346503Y-64269737D01*
X68485498Y-64297385D01*
X68501153Y-64300499D01*
X68501156Y-64300500D01*
X68501158Y-64300500D01*
X68658844Y-64300500D01*
X68658845Y-64300499D01*
X68813497Y-64269737D01*
X68959179Y-64209394D01*
X68959525Y-64209163D01*
X69090875Y-64121398D01*
X69157553Y-64100520D01*
X69159766Y-64100500D01*
X70057903Y-64100500D01*
X70124942Y-64120185D01*
X70145584Y-64136819D01*
X70666965Y-64658200D01*
X70700450Y-64719523D01*
X70695466Y-64789215D01*
X70653594Y-64845148D01*
X70618289Y-64863587D01*
X70491378Y-64905642D01*
X70491375Y-64905643D01*
X70342154Y-64997684D01*
X70218183Y-65121655D01*
X70218180Y-65121659D01*
X70186038Y-65173770D01*
X70134090Y-65220495D01*
X70065128Y-65231716D01*
X70001046Y-65203873D01*
X69974962Y-65173770D01*
X69942819Y-65121659D01*
X69942816Y-65121655D01*
X69818845Y-64997684D01*
X69669624Y-64905643D01*
X69669619Y-64905641D01*
X69503197Y-64850494D01*
X69503190Y-64850493D01*
X69400486Y-64840000D01*
X69338000Y-64840000D01*
X69338000Y-65790000D01*
X70949000Y-65790000D01*
X71016039Y-65809685D01*
X71061794Y-65862489D01*
X71073000Y-65914000D01*
X71073000Y-66040000D01*
X71199000Y-66040000D01*
X71266039Y-66059685D01*
X71311794Y-66112489D01*
X71323000Y-66164000D01*
X71323000Y-67239999D01*
X71385472Y-67239999D01*
X71385486Y-67239998D01*
X71488197Y-67229505D01*
X71654619Y-67174358D01*
X71654624Y-67174356D01*
X71803842Y-67082317D01*
X71897464Y-66988695D01*
X71958787Y-66955210D01*
X72028479Y-66960194D01*
X72072827Y-66988695D01*
X72166844Y-67082712D01*
X72316166Y-67174814D01*
X72482703Y-67229999D01*
X72585491Y-67240500D01*
X73210508Y-67240499D01*
X73210516Y-67240498D01*
X73210519Y-67240498D01*
X73288745Y-67232507D01*
X73313297Y-67229999D01*
X73479834Y-67174814D01*
X73629156Y-67082712D01*
X73753212Y-66958656D01*
X73845314Y-66809334D01*
X73873095Y-66725495D01*
X73912868Y-66668051D01*
X73977384Y-66641228D01*
X73990801Y-66640500D01*
X74182604Y-66640500D01*
X74249643Y-66660185D01*
X74295398Y-66712989D01*
X74305342Y-66782147D01*
X74285706Y-66833391D01*
X74220609Y-66930814D01*
X74220602Y-66930827D01*
X74160264Y-67076498D01*
X74160261Y-67076508D01*
X74129361Y-67231850D01*
X74096976Y-67293761D01*
X74095425Y-67295339D01*
X70497284Y-70893481D01*
X70399584Y-70991181D01*
X70338261Y-71024666D01*
X70311903Y-71027500D01*
X69983023Y-71027500D01*
X69915984Y-71007815D01*
X69870229Y-70955011D01*
X69860285Y-70885853D01*
X69889310Y-70822297D01*
X69895342Y-70815819D01*
X69942815Y-70768345D01*
X70034856Y-70619124D01*
X70034858Y-70619119D01*
X70090005Y-70452697D01*
X70090006Y-70452690D01*
X70100499Y-70349986D01*
X70100500Y-70349973D01*
X70100500Y-70100000D01*
X69212000Y-70100000D01*
X69144961Y-70080315D01*
X69099206Y-70027511D01*
X69088000Y-69976000D01*
X69088000Y-69850000D01*
X68962000Y-69850000D01*
X68894961Y-69830315D01*
X68849206Y-69777511D01*
X68838000Y-69726000D01*
X68838000Y-69600000D01*
X69338000Y-69600000D01*
X70100499Y-69600000D01*
X70100499Y-69350028D01*
X70100498Y-69350013D01*
X70090005Y-69247302D01*
X70034858Y-69080880D01*
X70034856Y-69080875D01*
X69942815Y-68931654D01*
X69818845Y-68807684D01*
X69669624Y-68715643D01*
X69669619Y-68715641D01*
X69503197Y-68660494D01*
X69503190Y-68660493D01*
X69400486Y-68650000D01*
X69338000Y-68650000D01*
X69338000Y-69600000D01*
X68838000Y-69600000D01*
X68838000Y-68650000D01*
X68837999Y-68649999D01*
X68775528Y-68650000D01*
X68775511Y-68650001D01*
X68672802Y-68660494D01*
X68506380Y-68715641D01*
X68506375Y-68715643D01*
X68357157Y-68807682D01*
X68263534Y-68901305D01*
X68202210Y-68934789D01*
X68132519Y-68929805D01*
X68088172Y-68901304D01*
X68064678Y-68877810D01*
X68031193Y-68816487D01*
X68036177Y-68746795D01*
X68070559Y-68698674D01*
X68069982Y-68698097D01*
X68073452Y-68694626D01*
X68073715Y-68694259D01*
X68074277Y-68693796D01*
X68074289Y-68693789D01*
X68185789Y-68582289D01*
X68273394Y-68451179D01*
X68333737Y-68305497D01*
X68364500Y-68150842D01*
X68364500Y-67993158D01*
X68364500Y-67993155D01*
X68364499Y-67993153D01*
X68359283Y-67966929D01*
X68333737Y-67838503D01*
X68333735Y-67838498D01*
X68273397Y-67692827D01*
X68273390Y-67692814D01*
X68185789Y-67561711D01*
X68185786Y-67561707D01*
X68074292Y-67450213D01*
X68074288Y-67450210D01*
X67943185Y-67362609D01*
X67943174Y-67362603D01*
X67940042Y-67361306D01*
X67938654Y-67360188D01*
X67937809Y-67359736D01*
X67937894Y-67359575D01*
X67885640Y-67317462D01*
X67863579Y-67251167D01*
X67863500Y-67246747D01*
X67863500Y-67232507D01*
X67883185Y-67165468D01*
X67922403Y-67126968D01*
X67994156Y-67082712D01*
X68088175Y-66988692D01*
X68149494Y-66955210D01*
X68219186Y-66960194D01*
X68263534Y-66988695D01*
X68357154Y-67082315D01*
X68506375Y-67174356D01*
X68506380Y-67174358D01*
X68672802Y-67229505D01*
X68672809Y-67229506D01*
X68775519Y-67239999D01*
X69338000Y-67239999D01*
X69400472Y-67239999D01*
X69400486Y-67239998D01*
X69503197Y-67229505D01*
X69669619Y-67174358D01*
X69669624Y-67174356D01*
X69818845Y-67082315D01*
X69942817Y-66958343D01*
X69974961Y-66906230D01*
X70026909Y-66859505D01*
X70095871Y-66848282D01*
X70159954Y-66876126D01*
X70186039Y-66906230D01*
X70218182Y-66958343D01*
X70342154Y-67082315D01*
X70491375Y-67174356D01*
X70491380Y-67174358D01*
X70657802Y-67229505D01*
X70657809Y-67229506D01*
X70760519Y-67239999D01*
X70822999Y-67239998D01*
X70823000Y-67239998D01*
X70823000Y-66290000D01*
X69338000Y-66290000D01*
X69338000Y-67239999D01*
X68775519Y-67239999D01*
X68837999Y-67239998D01*
X68838000Y-67239998D01*
X68838000Y-64840000D01*
X68837999Y-64839999D01*
X68775528Y-64840000D01*
X68775511Y-64840001D01*
X68672802Y-64850494D01*
X68506380Y-64905641D01*
X68506375Y-64905643D01*
X68357157Y-64997682D01*
X68263534Y-65091305D01*
X68202210Y-65124789D01*
X68132519Y-65119805D01*
X68088172Y-65091304D01*
X67994155Y-64997287D01*
X67922402Y-64953029D01*
X67875678Y-64901081D01*
X67863500Y-64847491D01*
X67863500Y-64624407D01*
X67863500Y-64624405D01*
X67822577Y-64471678D01*
X67774644Y-64388655D01*
X67743524Y-64334752D01*
X67743521Y-64334748D01*
X67743520Y-64334746D01*
X67631716Y-64222942D01*
X67631715Y-64222941D01*
X67627385Y-64218611D01*
X67627374Y-64218601D01*
X67050953Y-63642180D01*
X67017468Y-63580857D01*
X67022452Y-63511165D01*
X67064324Y-63455232D01*
X67129788Y-63430815D01*
X67138614Y-63430499D01*
X67575508Y-63430499D01*
X67575516Y-63430498D01*
X67575519Y-63430498D01*
X67642899Y-63423615D01*
X67711591Y-63436385D01*
G37*
%TD.AperFunction*%
%TA.AperFunction,Conductor*%
G36*
X81494684Y-64267302D02*
G01*
X81546159Y-64314546D01*
X81563972Y-64378579D01*
X81563972Y-66177420D01*
X81544287Y-66244459D01*
X81491483Y-66290214D01*
X81422325Y-66300158D01*
X81358769Y-66271133D01*
X81322041Y-66215738D01*
X81317158Y-66200710D01*
X81261557Y-66029588D01*
X81165051Y-65840184D01*
X81165049Y-65840181D01*
X81165048Y-65840179D01*
X81040109Y-65668213D01*
X80889786Y-65517890D01*
X80717820Y-65392951D01*
X80717115Y-65392591D01*
X80709054Y-65388485D01*
X80658259Y-65340512D01*
X80641463Y-65272692D01*
X80663999Y-65206556D01*
X80709054Y-65167515D01*
X80717816Y-65163051D01*
X80762912Y-65130287D01*
X80889786Y-65038109D01*
X80889788Y-65038106D01*
X80889792Y-65038104D01*
X81040104Y-64887792D01*
X81040106Y-64887788D01*
X81040109Y-64887786D01*
X81165048Y-64715820D01*
X81165047Y-64715820D01*
X81165051Y-64715816D01*
X81261557Y-64526412D01*
X81322041Y-64340259D01*
X81361479Y-64282585D01*
X81425837Y-64255387D01*
X81494684Y-64267302D01*
G37*
%TD.AperFunction*%
%TA.AperFunction,Conductor*%
G36*
X81125270Y-62229717D02*
G01*
X81125270Y-62229716D01*
X81164622Y-62175554D01*
X81261095Y-61986217D01*
X81322041Y-61798645D01*
X81361478Y-61740970D01*
X81425837Y-61713771D01*
X81494683Y-61725685D01*
X81546159Y-61772929D01*
X81563972Y-61836963D01*
X81563972Y-63637420D01*
X81544287Y-63704459D01*
X81491483Y-63750214D01*
X81422325Y-63760158D01*
X81358769Y-63731133D01*
X81322041Y-63675738D01*
X81309774Y-63637984D01*
X81261557Y-63489588D01*
X81165051Y-63300184D01*
X81165049Y-63300181D01*
X81165048Y-63300179D01*
X81040109Y-63128213D01*
X80889786Y-62977890D01*
X80717817Y-62852949D01*
X80708504Y-62848204D01*
X80657707Y-62800230D01*
X80640912Y-62732409D01*
X80663449Y-62666274D01*
X80708507Y-62627232D01*
X80717555Y-62622622D01*
X80771716Y-62583270D01*
X80771717Y-62583270D01*
X80139408Y-61950962D01*
X80202993Y-61933925D01*
X80317007Y-61868099D01*
X80410099Y-61775007D01*
X80475925Y-61660993D01*
X80492962Y-61597408D01*
X81125270Y-62229717D01*
G37*
%TD.AperFunction*%
%TA.AperFunction,Conductor*%
G36*
X77525678Y-57423685D02*
G01*
X77533034Y-57428796D01*
X79526639Y-58924000D01*
X81514372Y-60414800D01*
X81556193Y-60470771D01*
X81563972Y-60514000D01*
X81563972Y-61099036D01*
X81544287Y-61166075D01*
X81491483Y-61211830D01*
X81422325Y-61221774D01*
X81358769Y-61192749D01*
X81322041Y-61137354D01*
X81261095Y-60949782D01*
X81164624Y-60760449D01*
X81125270Y-60706282D01*
X81125269Y-60706282D01*
X80492962Y-61338590D01*
X80475925Y-61275007D01*
X80410099Y-61160993D01*
X80317007Y-61067901D01*
X80202993Y-61002075D01*
X80139409Y-60985037D01*
X80771716Y-60352728D01*
X80717550Y-60313375D01*
X80528217Y-60216904D01*
X80326129Y-60151242D01*
X80116246Y-60118000D01*
X79903754Y-60118000D01*
X79693872Y-60151242D01*
X79693869Y-60151242D01*
X79491782Y-60216904D01*
X79302439Y-60313380D01*
X79248282Y-60352727D01*
X79248282Y-60352728D01*
X79880591Y-60985037D01*
X79817007Y-61002075D01*
X79702993Y-61067901D01*
X79609901Y-61160993D01*
X79544075Y-61275007D01*
X79527037Y-61338591D01*
X78856818Y-60668372D01*
X78823333Y-60607049D01*
X78823330Y-60607036D01*
X78820499Y-60594015D01*
X78820499Y-60570128D01*
X78814091Y-60510517D01*
X78772645Y-60399394D01*
X78763798Y-60375673D01*
X78763793Y-60375664D01*
X78677547Y-60260455D01*
X78677544Y-60260452D01*
X78562335Y-60174206D01*
X78562328Y-60174202D01*
X78427482Y-60123908D01*
X78427483Y-60123908D01*
X78367883Y-60117501D01*
X78367881Y-60117500D01*
X78367873Y-60117500D01*
X78367864Y-60117500D01*
X76572129Y-60117500D01*
X76572123Y-60117501D01*
X76512516Y-60123908D01*
X76377671Y-60174202D01*
X76377664Y-60174206D01*
X76262455Y-60260452D01*
X76262452Y-60260455D01*
X76176206Y-60375664D01*
X76176202Y-60375671D01*
X76125908Y-60510517D01*
X76119501Y-60570116D01*
X76119500Y-60570135D01*
X76119500Y-62365870D01*
X76119501Y-62365876D01*
X76125908Y-62425483D01*
X76176202Y-62560328D01*
X76176206Y-62560335D01*
X76262452Y-62675544D01*
X76262455Y-62675547D01*
X76377664Y-62761793D01*
X76377671Y-62761797D01*
X76509082Y-62810810D01*
X76565016Y-62852681D01*
X76589433Y-62918145D01*
X76574582Y-62986418D01*
X76553431Y-63014673D01*
X76439889Y-63128215D01*
X76314948Y-63300184D01*
X76314947Y-63300185D01*
X76294765Y-63339795D01*
X76246791Y-63390591D01*
X76184281Y-63407500D01*
X74638500Y-63407500D01*
X74571461Y-63387815D01*
X74525706Y-63335011D01*
X74514500Y-63283500D01*
X74514500Y-59525059D01*
X74514501Y-59525046D01*
X74514501Y-59356945D01*
X74514501Y-59356943D01*
X74473577Y-59204215D01*
X74437368Y-59141500D01*
X74437368Y-59141499D01*
X74394522Y-59067287D01*
X74394521Y-59067286D01*
X74394520Y-59067284D01*
X74282716Y-58955480D01*
X74282715Y-58955479D01*
X74278385Y-58951149D01*
X74278374Y-58951139D01*
X73922319Y-58595084D01*
X73888834Y-58533761D01*
X73886000Y-58507403D01*
X73886000Y-57914157D01*
X73885999Y-57914144D01*
X73875587Y-57812225D01*
X73820862Y-57647075D01*
X73787567Y-57593096D01*
X73769127Y-57525705D01*
X73790049Y-57459042D01*
X73843691Y-57414272D01*
X73893106Y-57404000D01*
X77458639Y-57404000D01*
X77525678Y-57423685D01*
G37*
%TD.AperFunction*%
%TA.AperFunction,Conductor*%
G36*
X79544075Y-61660993D02*
G01*
X79609901Y-61775007D01*
X79702993Y-61868099D01*
X79817007Y-61933925D01*
X79880590Y-61950962D01*
X79248282Y-62583269D01*
X79248282Y-62583270D01*
X79302452Y-62622626D01*
X79302451Y-62622626D01*
X79311495Y-62627234D01*
X79362292Y-62675208D01*
X79379087Y-62743029D01*
X79356550Y-62809164D01*
X79311499Y-62848202D01*
X79302182Y-62852949D01*
X79130213Y-62977890D01*
X78979890Y-63128213D01*
X78854949Y-63300182D01*
X78850484Y-63308946D01*
X78802509Y-63359742D01*
X78734688Y-63376536D01*
X78668553Y-63353998D01*
X78629516Y-63308946D01*
X78625050Y-63300182D01*
X78500109Y-63128213D01*
X78386569Y-63014673D01*
X78353084Y-62953350D01*
X78358068Y-62883658D01*
X78399940Y-62827725D01*
X78430915Y-62810810D01*
X78562331Y-62761796D01*
X78677546Y-62675546D01*
X78763796Y-62560331D01*
X78814091Y-62425483D01*
X78820500Y-62365873D01*
X78820499Y-62355312D01*
X78840179Y-62288275D01*
X78856818Y-62267626D01*
X79527037Y-61597408D01*
X79544075Y-61660993D01*
G37*
%TD.AperFunction*%
%TD*%
M02*
